<?xml version="1.0" standalone="no"?>
<!DOCTYPE svg PUBLIC "-//W3C//DTD SVG 1.1//EN" "http://www.w3.org/Graphics/SVG/1.1/DTD/svg11.dtd" >
<svg>
<metadata>
Created by FontForge 20090914 at Tue Jun 23 14:54:06 2015
 By www-data
Copyright (c) 1997 Adobe Systems Incorporated.  All Rights Reserved.Spring is a trademark of LetterPerfect Design.
</metadata>
<defs>
<font id="SpringLP-Light" horiz-adv-x="408" >
  <font-face 
    font-family="SpringLP-Light"
    font-weight="300"
    font-style="italic"
    font-stretch="normal"
    units-per-em="1000"
    panose-1="2 11 4 0 0 0 0 0 0 0"
    ascent="800"
    descent="-200"
    x-height="327.001"
    cap-height="630.001"
    bbox="-182.998 -322.999 1323 763"
    underline-thickness="40"
    underline-position="-60"
    slope="-25"
    unicode-range="U+0020-U+2122"
  />
<missing-glyph horiz-adv-x="502" 
d="M-1 0h500v500h-500v-500zM9 10v480h480v-480h-480z" />
    <glyph glyph-name=".notdef" horiz-adv-x="502" 
d="M-1 0h500v500h-500v-500zM9 10v480h480v-480h-480z" />
    <glyph glyph-name="space" unicode=" " horiz-adv-x="202" 
 />
    <glyph glyph-name="exclam" unicode="!" horiz-adv-x="235" 
d="M284 430c0 15.333 -11.3301 29.667 -33.9971 43h-1l-2 1c-4.66699 0 -9.83398 -2.5 -15.501 -7.5s-8.5 -9.16699 -8.5 -12.5c0 -1.33301 1 -2 3 -2c4 0 6 -2 6 -6c0 -5.33301 -2.66699 -14.5 -8 -27.5s-13 -29.833 -23 -50.5l-4 -8l-33.5 -68
c-8.33301 -17.333 -16.833 -36.333 -25.5 -57s-15.834 -39.834 -21.501 -57.501s-8.5 -32.167 -8.5 -43.5c0 -7.33301 1.33301 -13.666 4 -18.999c1.33301 -3.33301 3.33301 -5 6 -5c4 0 6 4 6 12c0 13.333 10.167 39 30.5 77s49.5 86.333 87.5 145
c15.333 24 26.166 42 32.499 54s9.5 22.667 9.5 32zM140.003 40.001c0 3.33301 -0.165039 6.16797 -0.498047 8.50098s-1.5 3.5 -3.5 3.5c-0.666992 0 -2.33398 -1 -5.00098 -3l-6 -4c-6.66699 -4.66699 -12.334 -7.66699 -17.001 -9c-4 -1.33301 -8.66699 -3.33301 -14 -6
c-3.33301 -1.33301 -6 -2.33301 -8 -3c-7.33301 -2 -11 -7.33301 -11 -16c0 -6.66699 2 -13.334 6 -20.001c2.66699 -4 6.66699 -7.5 12 -10.5s10.333 -4.5 15 -4.5c6 0 12 4 18 12c4 5.33301 7.33301 13.5 10 24.5s4 20.167 4 27.5z" />
    <glyph glyph-name="quotedbl" unicode="&#x22;" horiz-adv-x="261" 
d="M389 598c0 4.66699 -3.83496 9 -11.502 13s-15.5 6 -23.5 6c-8.66699 0 -13.667 -2.66699 -15 -8c-0.666992 -4.66699 -3 -14.667 -7 -30c-5.33301 -23.333 -9.66602 -43 -12.999 -59s-6 -31.667 -8 -47c1.33301 -5.33301 4 -8 8 -8c2.66699 0 4.33398 1.33301 5.00098 4
l21 41l33 62.5c6 11.667 9.66699 20.167 11 25.5zM288.998 598c0 5.33301 -3.83398 9.66699 -11.501 13s-15.5 5 -23.5 5c-9.33301 0 -14.333 -2.33301 -15 -7c-0.666992 -5.33301 -3.66699 -19 -9 -41l-11.5 -53c-3 -14 -5.5 -28 -7.5 -42c2 -5.33301 5 -8 9 -8
c2.66699 0 4.33398 1.33301 5.00098 4c2.66699 4.66699 7.66699 14.334 15 29.001c14 26.667 25.167 48.667 33.5 66s13.5 28.666 15.5 33.999z" />
    <glyph glyph-name="numbersign" unicode="#" horiz-adv-x="599" 
d="M206 315c-29.333 0 -51.334 0.331055 -66.001 0.998047s-22 2 -22 4c0 2.66699 -2.33301 4 -7 4c-4 0 -8 -1.16699 -12 -3.5s-6 -5.5 -6 -9.5c0 -8.66699 9 -17.167 27 -25.5s36.333 -12.5 55 -12.5c28.667 0 54 0.666992 76 2c-11.333 -14 -22.333 -29.167 -33 -45.5
s-20.334 -31.833 -29.001 -46.5c-42 0 -72.667 0.333008 -92 1c-14.667 0.666992 -26.667 1.5 -36 2.5s-14 2.16699 -14 3.5c0 2.66699 -2.33301 4 -7 4c-4 0 -8 -1 -12 -3s-6.33301 -4.66699 -7 -8c0 -8.66699 8.83301 -17.5 26.5 -26.5s35.167 -13.5 52.5 -13.5
c26 0 48.333 0.666992 67 2c-15.333 -26 -27.5 -55.167 -36.5 -87.5s-13.5 -53.5 -13.5 -63.5c0 -8 2 -12 6 -12c2 0 3.33301 1.66699 4 5c10 42 36.333 95 79 159l159 10c-16 -27.333 -29.333 -57.166 -40 -89.499s-16 -56.166 -16 -71.499c0 -8.66699 2 -13 6 -13
c2 0 3.33301 1.66699 4 5c6.66699 28.667 16.167 54.334 28.5 77.001s29.166 49.334 50.499 80.001l10 14c23.333 2 46.5 3.66699 69.5 5s42.167 2 57.5 2c5.33301 0 10.333 -0.333008 15 -1h8h5c2 -0.666992 3.66699 -1 5 -1c7.33301 0 11 2 11 6
c0 5.33301 -3.5 10.166 -10.5 14.499s-16.5 6.5 -28.5 6.5h-54.5c-17 0 -35.833 -0.666992 -56.5 -2l38.5 48l44.5 56c10.667 0 26.334 0.666992 47.001 2c28 1.33301 46 2 54 2c10 0 15.667 -0.666992 17 -2s3.33301 -2 6 -2c0.666992 0 1.33398 0.333008 2.00098 1h4
c6 0.666992 9 3 9 7c0 4.66699 -3.5 9.16699 -10.5 13.5s-16.167 6.5 -27.5 6.5h-39c-11.333 0 -24.333 -0.666992 -39 -2l36 45c13.333 16 23.333 28.333 30 37c2.66699 2.66699 4 6 4 10c0 7.33301 -4.83301 13.666 -14.5 18.999s-20.167 8 -31.5 8
c-6.66699 0 -14 -3.16699 -22 -9.5s-12 -10.833 -12 -13.5h1c1.33301 0 3.66602 0.666992 6.99902 2c2.66699 0.666992 4.33398 1 5.00098 1c2.66699 0 4 -1 4 -3c0 -5.33301 -4.5 -14 -13.5 -26s-22.5 -29 -40.5 -51c-9.33301 -12 -14.333 -18.333 -15 -19
c-15.333 -0.666992 -42.666 -1 -81.999 -1c-24.667 -0.666992 -41.667 -1 -51 -1l42 52l26 32c3.33301 4.66699 5 8.66699 5 12c0 7.33301 -4.83301 13.333 -14.5 18s-20.167 7 -31.5 7c-6 0 -13.333 -3.33301 -22 -10s-13 -11 -13 -13c0 -0.666992 0.333008 -1 1 -1
s2 0.666992 4 2c3.33301 1.33301 6 2 8 2c2.66699 0 4 -1 4 -3c0 -4.66699 -4.83301 -13.5 -14.5 -26.5l-43.5 -56.5c-2.66699 -2.66699 -7 -8 -13 -16h-72zM381.999 186.998c-8.66699 0 -33 -0.333008 -73 -1c-30 0 -54.333 -0.333008 -73 -1l24 32l35 45l12 15
c12 0.666992 41.333 2.66699 88 6c20.667 1.33301 39 2.33301 55 3c-10.667 -14 -25.667 -35.333 -45 -64c-10 -16 -17.667 -27.667 -23 -35z" />
    <glyph glyph-name="dollar" unicode="$" horiz-adv-x="330" 
d="M142 114c-3.33301 -8 -7.6709 -19.0049 -13.0039 -33.0049c-4.66699 -13.333 -8.66699 -23.666 -12 -30.999c-10.667 -5.33301 -22.167 -10.666 -34.5 -15.999s-23.166 -9.66602 -32.499 -12.999c-13.333 -4.66699 -20 -9.66699 -20 -15
c0 -2.66699 1.33301 -4.66699 4 -6c10 -6 23.667 -9 41 -9c10.667 0 18.334 0.666992 23.001 2c-3.33301 -14 -6.5 -29.5 -9.5 -46.5l-7.5 -41.5v-2v-2c0 -6 1.66699 -9 5 -9c2.66699 0 4.33398 2 5.00098 6c2.66699 14 6.5 30 11.5 48s10.167 34.667 15.5 50l20.5 8
c8.33301 3.33301 16.5 7 24.5 11c42 20 72.833 40.333 92.5 61s29.5 41.334 29.5 62.001c0 12.667 -4.33301 26.667 -13 42c-4.66699 8 -12.667 14.5 -24 19.5s-23.666 7.83301 -36.999 8.5l28 51l40 76c12.667 4.66699 25 8.5 37 11.5s22 4.5 30 4.5c10.667 0 16 -3 16 -9
c0 -3.33301 -2.33301 -8.33301 -7 -15c-2.66699 -3.33301 -4 -5.66602 -4 -6.99902s1 -2 3 -2c1.33301 0 6.33301 3 15 9s13 15 13 27c0 8 -1.83301 16 -5.5 24s-8.83398 14.333 -15.501 19c-8.66699 6 -17.667 9 -27 9c-6 0 -11.667 -1 -17 -3c13.333 22 24 40.667 32 56
c1.33301 4 2 7.66699 2 11c0 7.33301 -1.5 15 -4.5 23s-5.83301 12 -8.5 12c-2 0 -3.33301 -1.33301 -4 -4c-6.66699 -18.667 -18 -43.667 -34 -75c-6 -13.333 -10.667 -23.333 -14 -30c-29.333 -8 -59.333 -19.167 -90 -33.5s-58.667 -30 -84 -47
s-45.333 -33.833 -60 -50.5s-22 -31.667 -22 -45c0 -9.33301 3.66699 -17.333 11 -24c8 -7.33301 15.667 -12.833 23 -16.5s16.333 -5.5 27 -5.5c8.66699 0 15.667 0.666992 21 2c8.66699 2 23 4.33301 43 7c10.667 1.33301 17.334 2.33301 20.001 3zM209.995 255.995
l-6.99805 -12.999l-18 -35c-10.667 -0.666992 -25 -2.33398 -43 -5.00098c-27.333 -3.33301 -46 -5 -56 -5c-4.66699 0 -8.83398 1.33301 -12.501 4s-5.5 5.66699 -5.5 9c0 6.66699 5.83301 15 17.5 25s27.167 20.667 46.5 32s39.166 21.833 59.499 31.5
s37.5 17.167 51.5 22.5l-16.5 -33zM251.997 163.996c0 -10 -5 -20.001 -15 -30.001c-14 -14 -27.667 -25.833 -41 -35.5s-29.666 -20.5 -48.999 -32.5l-4 -2c5.33301 12 9.66602 21.333 12.999 28l12 25c13.333 28 24 51.667 32 71c18.667 0 32 -2.16699 40 -6.5
s12 -10.166 12 -17.499z" />
    <glyph glyph-name="percent" unicode="%" horiz-adv-x="524" 
d="M327 394c0 10.667 -3.66504 21.3311 -10.998 31.998c-4.66699 6.66699 -11.667 13.667 -21 21c-6.66699 4.66699 -11 8.66699 -13 12l3 3c4 4 6 6.66699 6 8c0 2.66699 -6.66699 10.334 -20 23.001l-2 2c-3.33301 2.66699 -6 4 -8 4c-1.33301 0 -4 -1.33301 -8 -4l-4 -3
c-21.333 -14.667 -41.333 -29.667 -60 -45s-35.334 -31 -50.001 -47s-26.167 -31.667 -34.5 -47s-12.5 -29.666 -12.5 -42.999c0 -22 11.667 -40 35 -54c5.33301 -3.33301 13 -5 23 -5c15.333 0 33.166 4.33301 53.499 13s40 20.167 59 34.5s34.5 30 46.5 47
s18 33.167 18 48.5zM504.002 424.997c0 8 -2.83594 15.9971 -8.50293 23.9971s-12.167 12.333 -19.5 13c-7.33301 0 -15.833 -2.83301 -25.5 -8.5s-14.5 -9.5 -14.5 -11.5v0c0.666992 -0.666992 1.33398 -1 2.00098 -1s2 0.333008 4 1c2.66699 0.666992 4.66699 1 6 1
c4 0 6 -1.66699 6 -5c0 -5.33301 -6.66699 -15.333 -20 -30s-34.666 -37 -63.999 -67l-93.5 -96c-27.667 -29.333 -56.5 -61.666 -86.5 -96.999s-58 -72.166 -84 -110.499s-47.667 -76.5 -65 -114.5c0 -0.666992 -0.333008 -1.66699 -1 -3v-2c0 -6 2.33301 -9 7 -9s8 2 10 6
c22 39.333 51.167 81.833 87.5 127.5s75.333 90.834 117 135.501s82.334 86 122.001 124l114.5 107c4 4 6 9.33301 6 16zM469.999 116.994c0 10.667 -3.66504 21.3311 -10.998 31.998c-4.66699 6.66699 -11.667 13.667 -21 21c-6.66699 4.66699 -11 8.66699 -13 12l3 3
c4 4 6 6.66699 6 8c0 2.66699 -6.66699 10.334 -20 23.001l-2 2c-3.33301 2.66699 -6 4 -8 4c-1.33301 0 -4 -1.33301 -8 -4l-4 -3c-21.333 -14.667 -41.333 -29.667 -60 -45s-35.334 -31 -50.001 -47s-26.167 -31.667 -34.5 -47s-12.5 -29.666 -12.5 -42.999
c0 -22 11.667 -40 35 -54c5.33301 -3.33301 13 -5 23 -5c15.333 0 33.166 4.33301 53.499 13s40 20.167 59 34.5s34.5 30 46.5 47s18 33.167 18 48.5zM300.001 400.991c0 -19.333 -9.66406 -39.168 -28.9971 -59.501s-45.333 -40.166 -78 -59.499
c-12.667 -8 -25 -12 -37 -12c-6 0 -10.833 1.5 -14.5 4.5s-5.5 8.16699 -5.5 15.5c1.33301 10.667 6.16602 23 14.499 37s18.666 28.333 30.999 43s25.666 28.5 39.999 41.5s27.833 23.833 40.5 32.5c8 -2.66699 15.167 -6 21.5 -10s10.5 -8 12.5 -12
c2.66699 -6 4 -13 4 -21zM443.004 123.989c0 -19.333 -9.66406 -39.168 -28.9971 -59.501s-45.333 -40.166 -78 -59.499c-12.667 -8 -25 -12 -37 -12c-6 0 -10.833 1.5 -14.5 4.5s-5.5 8.16699 -5.5 15.5c1.33301 10.667 6.16602 23 14.499 37s18.666 28.333 30.999 43
s25.666 28.5 39.999 41.5s27.833 23.833 40.5 32.5c8 -2.66699 15.167 -6 21.5 -10s10.5 -8 12.5 -12c2.66699 -6 4 -13 4 -21z" />
    <glyph glyph-name="ampersand" unicode="&#x26;" horiz-adv-x="628" 
d="M671 192c0 1.33301 -2.67188 3.33203 -8.00488 5.99902c-8 3.33301 -21.667 5 -41 5c-16.667 0 -35.667 -1.33301 -57 -4s-45 -6 -71 -10c-36 -6 -58.333 -9 -67 -9c-5.33301 0 -8.66602 1 -9.99902 3c-2 5.33301 -4.33301 8 -7 8s-4 -2.66699 -4 -8
c2.66699 -20.667 13 -31 31 -31c4.66699 0 13.334 1 26.001 3c2 0.666992 3.66699 1 5 1c9.33301 0 15.333 -3.66699 18 -11s4 -15 4 -23c0 -18.667 -8.16699 -36 -24.5 -52s-38.166 -29.833 -65.499 -41.5s-57.666 -20.667 -90.999 -27s-66.666 -9.5 -99.999 -9.5
c-26.667 0 -51.667 2 -75 6c-15.333 2.66699 -27.666 7.83398 -36.999 15.501s-14 17.167 -14 28.5c0 20 16.333 44.5 49 73.5s85.334 61.833 158.001 98.5h2l1 1c5.33301 0 10.666 -5.66699 15.999 -17c10.667 -22.667 19.167 -43.834 25.5 -63.501s9.5 -35.167 9.5 -46.5
c0 -4.66699 -1.33301 -9.66699 -4 -15l-2 -4c-4 -5.33301 -6 -8.66602 -6 -9.99902s1 -2 3 -2c4 0 9 1.33301 15 4c10.667 4 16 15 16 33c0 33.333 -14 72.333 -42 117c-2 4 -3 7.66699 -3 11c0 4.66699 1 7.33398 3 8.00098c50 30 89.333 57.667 118 83
s43 49.666 43 72.999c0 14.667 -6 28 -18 40c-2.66699 2.66699 -5.66699 4 -9 4c-4.66699 0 -7 -2 -7 -6c0 -2 0.666992 -3.33301 2 -4c10.667 -4.66699 16 -11.334 16 -20.001c0 -9.33301 -6.16699 -20.166 -18.5 -32.499s-27.5 -24.5 -45.5 -36.5s-36.167 -23 -54.5 -33
s-33.166 -17.333 -44.499 -22c-8 -3.33301 -14.333 -5 -19 -5c-3.33301 0 -6.33301 2 -9 6c-10 15.333 -15 31.333 -15 48c0 16 4.5 31 13.5 45s21 26.5 36 37.5s31 20.333 48 28s33.833 13.5 50.5 17.5c3.33301 0.666992 6.66602 2.16699 9.99902 4.5s5 5.16602 5 8.49902
c0 4 -2 9.33301 -6 16c-10 17.333 -20.333 26 -31 26c-0.666992 0 -1.66699 -0.333008 -3 -1h-2c-50 -14.667 -88.333 -36.667 -115 -66s-40 -60 -40 -92c0 -26.667 9 -51 27 -73c4.66699 -4.66699 7 -9 7 -13c0 -0.666992 -0.666992 -1.66699 -2 -3
c-7.33301 -6 -23.333 -15 -48 -27c-36.667 -17.333 -68.334 -35.166 -95.001 -53.499s-49 -42.5 -67 -72.5c-8 -12.667 -12 -25.667 -12 -39c0 -22.667 9 -43.334 27 -62.001s36 -30.667 54 -36c35.333 -10 72 -15 110 -15c36.667 0 73.167 4.16699 109.5 12.5
s69 19.5 98 33.5s52 29.833 69 47.5s25.5 35.167 25.5 52.5c0 16 -7.33301 31.333 -22 46c-2 2 -3 3.66699 -3 5c0 3.33301 1.33301 5.83301 4 7.5s5.66699 2.83398 9 3.50098c6 1.33301 12.333 3 19 5c26.667 6.66699 50 12 70 16s37.667 6 53 6c6 0 9 0.666992 9 2z" />
    <glyph glyph-name="quotesingle" unicode="'" horiz-adv-x="191" 
d="M289 598c0 5.33301 -3.83301 9.66504 -11.5 12.998s-15.5 5 -23.5 5c-9.33301 0 -14.333 -2.33301 -15 -7c-0.666992 -5.33301 -4 -21.666 -10 -48.999c-4.66699 -19.333 -8.33398 -35.166 -11.001 -47.499s-5 -23.833 -7 -34.5c0 -8.66699 3 -13 9 -13
c2.66699 0 4.33398 1.33301 5.00098 4c2.66699 4.66699 7.66699 14.334 15 29.001c14 26.667 25.167 48.667 33.5 66s13.5 28.666 15.5 33.999z" />
    <glyph glyph-name="parenleft" unicode="(" horiz-adv-x="322" 
d="M566 667c0 10 -9.66602 14.999 -28.999 14.999c-48.667 -0.666992 -101.167 -19.667 -157.5 -57s-109 -87.833 -158 -151.5s-88.667 -135.167 -119 -214.5s-45.5 -159.666 -45.5 -240.999c0 -72 12.333 -139.667 37 -203c7.33301 -20.667 13.666 -31 18.999 -31
c2.66699 0 4 2.66699 4 8c0 4.66699 -1 10.667 -3 18c-19.333 66 -29 130.667 -29 194c0 88 16.5 170.167 49.5 246.5s73.667 142 122 197s95.833 98.667 142.5 131s82 50.5 106 54.5c40.667 6.66699 61 18 61 34z" />
    <glyph glyph-name="parenright" unicode=")" horiz-adv-x="361" 
d="M349 468c0 81.333 -16.3311 145.331 -48.998 191.998c-6.66699 10 -13.667 15 -21 15c-9.33301 0 -14 -7.33301 -14 -22c0 -13.333 4.66699 -29.333 14 -48c6 -12 11 -30.167 15 -54.5s6 -52.166 6 -83.499c0 -55.333 -6.83301 -114 -20.5 -176
s-36.834 -124.333 -69.501 -187s-78 -120.5 -136 -173.5s-129 -95.167 -213 -126.5c-13.333 -5.33301 -20 -10.666 -20 -15.999c0 -2 2.33301 -3 7 -3c2.66699 0 9.33398 1.33301 20.001 4c4.66699 1.33301 8 2.33301 10 3c74 20.667 140.667 55.5 200 104.5
s109.166 105.833 149.499 170.5s70.666 132 90.999 202s30.5 136.333 30.5 199z" />
    <glyph glyph-name="asterisk" unicode="*" horiz-adv-x="329" 
d="M364 538l-6 21l-85 -20l-8 87h-22l-8 -87l-86 19l-4 -21l79 -35l-45 -76l18 -12l57 67l57 -65l19 13l-45 74z" />
    <glyph glyph-name="plus" unicode="+" 
d="M352 181v33h-121v132h-36v-132h-120v-33h120v-132h36v132h121z" />
    <glyph glyph-name="comma" unicode="," horiz-adv-x="202" 
d="M120 7c0 16.667 -9.33301 31.999 -28 45.999c-1.33301 0 -3 -0.666992 -5 -2s-3 -2.66602 -3 -3.99902s0.666992 -2 2 -2c2 0 3 -2.33301 3 -7c0 -10.667 -8 -28.167 -24 -52.5s-35.667 -47.5 -59 -69.5c-3.33301 -3.33301 -5 -6.33301 -5 -9s1.33301 -4 4 -4
c0.666992 0 3 1 7 3l8 4c28 13.333 51.667 28.5 71 45.5s29 34.167 29 51.5z" />
    <glyph glyph-name="hyphen" unicode="-" horiz-adv-x="411" 
d="M362 222c0 5.33301 -2 10.5 -6 15.5s-9.33301 7.5 -16 7.5c-12 -0.666992 -24 -1 -36 -1c-32 -2 -59.167 -3.33301 -81.5 -4s-42.833 -1 -61.5 -1c-18 0 -31.333 0.5 -40 1.5s-13 2.5 -13 4.5s-1.33301 3 -4 3c-6 0 -9 -3.33301 -9 -10c0 -28 14.667 -42 44 -42
c14.667 0 32.167 1.16699 52.5 3.5s44.833 5.5 73.5 9.5c24.667 4 41.667 6.5 51 7.5s17.333 1.5 24 1.5c5.33301 0 8.33301 -0.333008 9 -1c1.33301 -1.33301 3 -2 5 -2c5.33301 0.666992 8 3 8 7z" />
    <glyph glyph-name="period" unicode="." horiz-adv-x="202" 
d="M126 52c0 8.66699 -0.999023 12.999 -2.99902 12.999c-0.666992 0 -1.66699 -0.666992 -3 -2c-8.66699 -7.33301 -23.334 -15 -44.001 -23l-3 -1c-8 -2.66699 -12 -8 -12 -16c0 -5.33301 2.33301 -11.666 7 -18.999c3.33301 -4.66699 7.5 -8.5 12.5 -11.5
s9.83301 -4.5 14.5 -4.5c6.66699 0 12.667 4 18 12c3.33301 5.33301 6.33301 13.5 9 24.5s4 20.167 4 27.5z" />
    <glyph glyph-name="slash" unicode="/" horiz-adv-x="386" 
d="M608 579c0 7.33301 -1.99902 13.999 -5.99902 19.999s-9 9.33301 -15 10c-12.667 0 -24.834 -3.33301 -36.501 -10s-17.5 -11.667 -17.5 -15c0 -1.33301 3.66699 -2 11 -2c4.66699 0 7 -2 7 -6c0 -6.66699 -8.5 -18.834 -25.5 -36.501l-87.5 -87.5l-127 -125.5
c-37.333 -37.667 -76.666 -80.167 -117.999 -127.5s-80 -96.666 -116 -147.999s-65.667 -101.666 -89 -150.999l-1 -3c-2 -4.66699 -3 -7.66699 -3 -9c0 -3.33301 1.33301 -5 4 -5c4 0 7.33301 2.66699 10 8c59.333 100 133.666 197.5 222.999 292.5s211 212.5 365 352.5
c14.667 14 22 28.333 22 43z" />
    <glyph glyph-name="zero" unicode="0" horiz-adv-x="428" 
d="M412 219c0 21.333 -5.33203 41.333 -15.999 60s-27.334 35 -50.001 49l-15.5 10.5c-4.33301 3 -6.5 5.5 -6.5 7.5c2.66699 7.33301 7.66699 13 15 17c6.66699 4 10 7.66699 10 11v2c-0.666992 1.33301 -1 2.33301 -1 3c-3.33301 6.66699 -8 13.5 -14 20.5
s-11.333 12.5 -16 16.5c-2 2 -6.66699 3 -14 3c-8.66699 0 -18.334 -3.33301 -29.001 -10c-39.333 -24.667 -74.666 -51 -105.999 -79s-58.166 -56.667 -80.499 -86s-39.333 -58 -51 -86s-17.5 -54 -17.5 -78c0 -23.333 5.33301 -43.666 16 -60.999
c4.66699 -8.66699 17.167 -17.334 37.5 -26.001s41.5 -13 63.5 -13c13.333 0 25.666 1.33301 36.999 4c30.667 6.66699 60.667 18 90 34s55 35 77 57s39.333 45.5 52 70.5s19 49.5 19 73.5zM381.001 235c0 -34.667 -17.5 -71.666 -52.5 -110.999
s-82.5 -71.666 -142.5 -96.999c-25.333 -10.667 -47 -16 -65 -16c-32.667 0 -49 17 -49 51l1 5v5c2.66699 23.333 13.167 49.166 31.5 77.499s40 55.833 65 82.5s49 48.667 72 66s40.167 26.666 51.5 27.999c4 0 10.667 -2.33301 20 -7s19 -10 29 -16l2 -2
c24.667 -14.667 37 -36.667 37 -66z" />
    <glyph glyph-name="one" unicode="1" horiz-adv-x="277" 
d="M285 395c0 5.33301 -1 9.33398 -3 12.001c-12 17.333 -21.667 26 -29 26c-8 0 -17 -6.66699 -27 -20c-3.33301 -3.33301 -5 -6.33301 -5 -9s2 -4 6 -4c0.666992 0 2 0.333008 4 1c2.66699 1.33301 5 2 7 2s3 -1 3 -3c0 -4.66699 -3.33301 -12.334 -10 -23.001l-34 -52
l-44 -67c-31.333 -48.667 -55.833 -92.5 -73.5 -131.5s-26.5 -75.167 -26.5 -108.5c0 -29.333 8 -53 24 -71c2 -3.33301 4.33301 -5 7 -5c4.66699 0 7 3.66699 7 11c0 21.333 8.16699 50 24.5 86s40.166 82.667 71.499 140l26 49c22.667 42 40.334 77.333 53.001 106
s19 49 19 61z" />
    <glyph glyph-name="two" unicode="2" horiz-adv-x="383" 
d="M374 365c0 10.667 -3.66602 21.334 -10.999 32.001c-9.33301 13.333 -22.333 23.166 -39 29.499s-35 9.5 -55 9.5c-22.667 0 -45.334 -3.5 -68.001 -10.5s-40.667 -15.5 -54 -25.5c-8 -6 -12 -15.667 -12 -29c0 -7.33301 1.5 -13.666 4.5 -18.999s7.16699 -8 12.5 -8
c29.333 10 44 19.333 44 28c0 1.33301 -0.333008 3 -1 5l-1 2c2 4 13.833 9.83301 35.5 17.5s41.834 11.5 60.501 11.5c17.333 0 30 -4 38 -12c4.66699 -4.66699 7 -10 7 -16c0 -12.667 -9.16699 -27.334 -27.5 -44.001s-47.5 -40.334 -87.5 -71.001
c-48 -36.667 -86.833 -68.334 -116.5 -95.001s-51.167 -53.667 -64.5 -81c-6 -12 -9 -25 -9 -39c0 -20.667 5.33301 -39.667 16 -57s25 -26 43 -26c12 0 28.5 3.83301 49.5 11.5s49.5 19.167 85.5 34.5c28.667 12.667 52.5 22.667 71.5 30s36.5 13.333 52.5 18
c9.33301 2 14 5 14 9c0 2.66699 -2.33301 4 -7 4c-23.333 -0.666992 -53 -5.16699 -89 -13.5s-78.667 -19.5 -128 -33.5l-34 -9h-3c-1.33301 -0.666992 -2.33301 -1 -3 -1c-9.33301 0 -14 5.33301 -14 16l1 3v3c2.66699 16.667 14.667 35.334 36 56.001s52.666 48 93.999 82
l64.5 55.5c15.667 13.667 31 28.334 46 44.001s26.833 31 35.5 46s13 29.167 13 42.5z" />
    <glyph glyph-name="three" unicode="3" horiz-adv-x="390" 
d="M382 392c0 12 -5.66602 24.6699 -16.999 38.0029c-10.667 12.667 -29.667 19 -57 19c-20 0 -40.833 -2.66699 -62.5 -8s-45.5 -12 -71.5 -20c-16.667 -5.33301 -26 -8 -28 -8c-4 0 -7.33301 -0.5 -10 -1.5s-4 -3.5 -4 -7.5c0 -8.66699 3.33301 -16.667 10 -24
s15.334 -11 26.001 -11c10 0 21.333 2.5 34 7.5s28.667 12.5 48 22.5c19.333 9.33301 34.166 16.166 44.499 20.499s19.5 6.5 27.5 6.5c6.66699 0 11.667 -1.33301 15 -4c6 -4 9 -9 9 -15c0 -9.33301 -5.66699 -20 -17 -32s-25.833 -24.333 -43.5 -37
s-35.5 -24.5 -53.5 -35.5s-35.667 -21.167 -53 -30.5c-16.667 -9.33301 -25 -19.666 -25 -30.999c0 -8 3.33301 -15.167 10 -21.5s13.667 -9.5 21 -9.5c6 0 10.667 1.66699 14 5c14.667 12.667 34.334 19 59.001 19c14 0 25.833 -3 35.5 -9s14.5 -16.333 14.5 -31
c0 -24 -12 -49.167 -36 -75.5s-54 -50.833 -90 -73.5s-71.333 -41 -106 -55s-61.334 -21 -80.001 -21c-12.667 0 -20 3.33301 -22 10c-2.66699 6.66699 -6.66699 10 -12 10c-6 0 -9 -5 -9 -15c0 -18 5.5 -31.167 16.5 -39.5s26.5 -12.5 46.5 -12.5
c24 0 52.667 5.66699 86 17s66.666 26.666 99.999 45.999s63.5 41.166 90.5 65.499s46.833 49.166 59.5 74.499c6 12 9 25 9 39c0 23.333 -8.5 43.333 -25.5 60s-42.5 25 -76.5 25c-5.33301 0 -8 1 -8 3s3.33301 5.33301 10 10c43.333 31.333 74.333 56.833 93 76.5
s28 37.5 28 53.5z" />
    <glyph glyph-name="four" unicode="4" horiz-adv-x="389" 
d="M388 108c0 2 -1.66797 2.99609 -5.00098 2.99609c-14 -3.33301 -34 -6.5 -60 -9.5s-48.333 -5.16699 -67 -6.5c-4 0 -6 1 -6 3c0 0.666992 0.666992 2.33398 2 5.00098c0.666992 1.33301 1 2.33301 1 3c11.333 27.333 35 74.333 71 141c22 39.333 37.667 68.333 47 87
c4.66699 9.33301 7 19 7 29c0 8.66699 -1.5 16.834 -4.5 24.501s-8.16699 18.834 -15.5 33.501l-1 1c-11.333 22 -20 33 -26 33c-2.66699 0 -4 -3.66699 -4 -11c0 -3.33301 -4.66699 -8.66602 -14 -15.999s-25.333 -19 -48 -35l-78.5 -57
c-23.667 -18 -46.667 -37.833 -69 -59.5s-40.666 -44.167 -54.999 -67.5s-21.5 -46 -21.5 -68c0 -28.667 10.333 -52.667 31 -72s46.667 -29 78 -29c12.667 0 24.334 1.33301 35.001 4c4.66699 0 7 -2.66699 7 -8v-3c-0.666992 -1.33301 -1 -2.33301 -1 -3
c-15.333 -41.333 -26 -77 -32 -107v-5c-0.666992 -0.666992 -1 -1.66699 -1 -3c0 -3.33301 1 -5 3 -5c3.33301 0 6.66602 4.33301 9.99902 13c4 8.66699 10.667 24 20 46c13.333 34 24.333 59 33 75c2 4 4.33301 6.33301 7 7c22 4.66699 47.5 11.167 76.5 19.5
s51.5 16.5 67.5 24.5c8.66699 4 13 8.33301 13 13zM327.999 347.996c0 -4.66699 -2.00098 -11.332 -6.00098 -19.999s-9.66699 -20 -17 -34c-5.33301 -10.667 -8.66602 -17.667 -9.99902 -21c-3.33301 -6.66699 -10.333 -22 -21 -46c-14 -29.333 -25 -53.166 -33 -71.499
s-15 -35.833 -21 -52.5c-2.66699 -7.33301 -6.66699 -11.666 -12 -12.999c-31.333 -3.33301 -54.333 -5 -69 -5c-16 0 -28.333 2 -37 6s-15 10.667 -19 20c-1.33301 2.66699 -2 6.66699 -2 12c0 13.333 7 29.166 21 47.499s32.5 37.666 55.5 57.999s48 40.666 75 60.999
s54.833 39.833 83.5 58.5c3.33301 2.66699 6.33301 4 9 4c2 0 3 -1.33301 3 -4z" />
    <glyph glyph-name="five" unicode="5" horiz-adv-x="354" 
d="M447 441c0 4 -4 6.00293 -12 6.00293c-10 0 -24.333 -1 -43 -3s-39 -4.33301 -61 -7c-39.333 -4.66699 -70.333 -8.16699 -93 -10.5s-41.667 -3.5 -57 -3.5c-20 0 -30 2.33301 -30 7c0 5.33301 -0.666992 8 -2 8c-2 0 -5 -3.33301 -9 -10c-1.33301 -2 -2 -4.33301 -2 -7
c0 -8 3.5 -16.667 10.5 -26s15.167 -16 24.5 -20l-6 -7l-31 -38l-34 -42c-4 -4.66699 -6 -11.667 -6 -21c0 -12 2.66699 -22.833 8 -32.5s12.333 -19.834 21 -30.501c2 -2 3.66699 -4 5 -6c21.333 12.667 42 22.667 62 30s37.333 11 52 11c26.667 0 40 -10.667 40 -32
c0 -8 -1.66699 -16.333 -5 -25c-9.33301 -24.667 -26.5 -50 -51.5 -76s-53 -49.833 -84 -71.5s-60.333 -39 -88 -52s-48.5 -19.5 -62.5 -19.5c-5.33301 0 -9 1 -11 3c-4 4 -7 6 -9 6c-2.66699 0 -4.33398 -2.33301 -5.00098 -7c-2 -7.33301 -3 -13.666 -3 -18.999
c0 -10.667 3.66699 -18.834 11 -24.501s16.333 -8.5 27 -8.5c16.667 0 36.834 4.66699 60.501 14s48.834 22.5 75.501 39.5s52.667 36.833 78 59.5s47.333 46.667 66 72c27.333 37.333 41 70.666 41 99.999c0 21.333 -7 37.833 -21 49.5s-35.333 17.5 -64 17.5
c-24 0 -49.333 -4 -76 -12h-3c-0.666992 -0.666992 -1.33398 -1 -2.00098 -1c-2 0 -3 1 -3 3c0 2.66699 3.66699 9.66699 11 21c3.33301 5.33301 9.16602 13 17.499 23l25.5 30c8.66699 10 14.334 16.333 17.001 19c2 3.33301 3 6.66602 3 9.99902
c0 1.33301 -0.333008 3.33301 -1 6v5c0 7.33301 3 12 9 14c4.66699 2 15.5 5.16699 32.5 9.5l63 15.5c25 6 46.167 10.833 63.5 14.5s28.333 5.5 33 5.5c12 0 18 4.33301 18 13z" />
    <glyph glyph-name="six" unicode="6" horiz-adv-x="426" 
d="M445 414c0 19.333 -3.99902 33.002 -11.999 41.002s-19.333 12 -34 12c-17.333 0 -38.5 -5.5 -63.5 -16.5s-51.667 -27.167 -80 -48.5s-57.166 -48 -86.499 -80s-57.333 -68 -84 -108c-37.333 -56.667 -56 -109.334 -56 -158.001c0 -38.667 12.333 -67 37 -85
c14 -10 32 -15 54 -15c26.667 0 56 7 88 21s62.333 32.667 91 56s52 49.166 70 77.499s27 56.5 27 84.5c0 5.33301 -0.666992 12.666 -2 21.999c-4.66699 28.667 -25.334 43 -62.001 43c-22.667 0 -48 -6.5 -76 -19.5s-53.667 -30.833 -77 -53.5
c-15.333 -14.667 -23 -24.667 -23 -30c0 -2 0.666992 -3 2 -3c2 0 5.33301 1.66699 10 5c11.333 8 24.333 16.333 39 25s30.167 17 46.5 25s31.5 14.333 45.5 19s26 7 36 7c19.333 0 29 -8.66699 29 -26c0 -9.33301 -2.33301 -20 -7 -32c-8 -22 -21.667 -44.167 -41 -66.5
s-41.166 -42.666 -65.499 -60.999s-48.833 -33 -73.5 -44s-45.667 -16.5 -63 -16.5c-13.333 0 -23.833 3.66699 -31.5 11s-11.5 18.333 -11.5 33c0 10 1.33301 20 4 30c8.66699 38 26.667 77.333 54 118c20 30.667 43.5 60 70.5 88s54.667 53.167 83 75.5
s54.166 39.833 77.499 52.5s41.666 19 54.999 19c9.33301 0 15.333 -3 18 -9c2 -2.66699 3.66699 -4 5 -4c4 0 6.33301 3.66699 7 11z" />
    <glyph glyph-name="seven" unicode="7" horiz-adv-x="329" 
d="M377 358c0 26 -10.9971 48.665 -32.9971 67.998c-15.333 13.333 -38.333 20 -69 20c-18 0 -36.167 -1.83301 -54.5 -5.5s-38.833 -8.5 -61.5 -14.5c-18.667 -4.66699 -30 -7 -34 -7c-1.33301 1.33301 -4 2 -8 2c-6 0 -9 -2.66699 -9 -8l1 -1v-1
c8.66699 -13.333 17.5 -22.666 26.5 -27.999s18.833 -8 29.5 -8c13.333 0 34 5.33301 62 16c29.333 12 51.666 18 66.999 18c4.66699 0 11 -0.666992 19 -2c19.333 -4 29 -12.667 29 -26s-7.83301 -30 -23.5 -50s-41.5 -49.333 -77.5 -88
c-40 -42.667 -69.667 -75.667 -89 -99c-35.333 -42.667 -61.833 -80 -79.5 -112s-26.5 -65.667 -26.5 -101c0 -6.66699 2 -10 6 -10c6.66699 0 12 6 16 18c2 6 5.16699 12.5 9.5 19.5s9.66602 14.5 15.999 22.5l24.5 29.5l46 51.5l49 52c26 26.667 47.667 49.834 65 69.501
s33.666 39.5 48.999 59.5s27.5 39.833 36.5 59.5s13.5 38.167 13.5 55.5z" />
    <glyph glyph-name="eight" unicode="8" horiz-adv-x="464" 
d="M519 444c0 12 -2.00195 26.001 -6.00195 42.001c-0.666992 2 -1 3.66699 -1 5c-2 10.667 -5 16 -9 16c-2.66699 0 -5.16699 -2 -7.5 -6s-3.5 -8.66699 -3.5 -14c0 -6 2 -11.667 6 -17c2.66699 -4 4 -10 4 -18c0 -10.667 -3.16699 -23 -9.5 -37s-17.833 -29.667 -34.5 -47
s-40.334 -35.833 -71.001 -55.5s-69 -39.167 -115 -58.5c-0.666992 0 -2 -0.666992 -4 -2c-6 -3.33301 -11.333 -5 -16 -5c-4 0 -8.33301 1.33301 -13 4c-26 15.333 -39 32 -39 50c0 19.333 13 38.333 39 57c24.667 18 54 32 88 42s63.333 15 88 15
c11.333 0 18.666 -0.666992 21.999 -2c3.33301 -0.666992 7.66602 -2.33398 12.999 -5.00098c2.66699 -1.33301 4.33398 -2 5.00098 -2c1.33301 0 2 1 2 3c0 2.66699 -2.5 7.5 -7.5 14.5s-10.167 13.167 -15.5 18.5c-9.33301 10 -26.666 15 -51.999 15
c-15.333 0 -32.166 -1.83301 -50.499 -5.5s-37 -8.5 -56 -14.5s-36.5 -13.167 -52.5 -21.5s-29.667 -16.833 -41 -25.5c-27.333 -21.333 -41 -43 -41 -65c0 -16 6.5 -31.333 19.5 -46s29.5 -28.334 49.5 -41.001c2 -0.666992 3 -2 3 -4c0 -4 -3.66699 -7.33301 -11 -10
c-63.333 -27.333 -110 -56.166 -140 -86.499s-45 -59.5 -45 -87.5c0 -26 12 -47.5 36 -64.5s54.333 -25.5 91 -25.5c13.333 0 29 1.66699 47 5c54.667 10.667 100.667 28 138 52s56 51.667 56 83c0 34 -22.667 68.333 -68 103c-8 6 -12 10.667 -12 14
c0 2.66699 2.33301 5 7 7c42 19.333 76.833 39.166 104.5 59.499s48.834 39.833 63.501 58.5s24.834 36.334 30.501 53.001s8.5 33 8.5 49zM336.998 119.001c0 -16 -6.5 -31.333 -19.5 -46s-30.333 -27.667 -52 -39s-45.667 -20.166 -72 -26.499s-52.5 -9.5 -78.5 -9.5
c-18 0 -31.167 2.66699 -39.5 8s-12.5 12.666 -12.5 21.999c0 12 6.16699 26 18.5 42s28.5 32.5 48.5 49.5s41.5 32.5 64.5 46.5s44.5 24 64.5 30c0.666992 0 1.66699 0.333008 3 1h4c4 0 8.5 -1 13.5 -3s9.16699 -4.33301 12.5 -7c30 -21.333 45 -44 45 -68z" />
    <glyph glyph-name="nine" unicode="9" horiz-adv-x="448" 
d="M484 343c0 41.333 -20.6641 75.6719 -61.9971 103.005c-14 9.33301 -32.333 14 -55 14c-27.333 0 -57.833 -6.16699 -91.5 -18.5s-65.667 -28.833 -96 -49.5s-55 -43.334 -74 -68.001s-28.5 -48.667 -28.5 -72c0 -18.667 5.66699 -35 17 -49
c7.33301 -9.33301 15.833 -17 25.5 -23s20.5 -9 32.5 -9c23.333 0 57.666 15.667 102.999 47l36.5 25.5c10.333 7 19.833 14 28.5 21s17.167 14.667 25.5 23l29.5 29.5c4 4 6 8.33301 6 13c0 2.66699 -1 4 -3 4c-1.33301 0 -3.66602 -1 -6.99902 -3
c-2.66699 -1.33301 -6.33398 -3.66602 -11.001 -6.99902c-38.667 -26.667 -71.834 -47.834 -99.501 -63.501s-57.834 -28.834 -90.501 -39.501c-12 -4 -21.333 -6 -28 -6c-10 0 -15 4.66699 -15 14c0 7.33301 2.33301 16.666 7 27.999c8 21.333 21.833 42.166 41.5 62.499
s42 38.333 67 54s50.167 27.834 75.5 36.501s47 13 65 13c21.333 0 35.333 -6 42 -18c6 -10.667 9 -22.334 9 -35.001c0 -18 -5.5 -37.333 -16.5 -58s-25.667 -41.667 -44 -63s-37 -41.333 -56 -60l-78.5 -74c-48.667 -44.667 -84.5 -79.667 -107.5 -105
s-35.167 -47.333 -36.5 -66c0 -9.33301 1 -14 3 -14s6 3 12 9l5 5l50 39l128 99c63.333 49.333 111 96.166 143 140.499s48 84.5 48 120.5z" />
    <glyph glyph-name="colon" unicode=":" horiz-adv-x="202" 
d="M177 237c0 8 -0.666992 12 -2 12s-3.66602 -1 -6.99902 -3c-4.66699 -4 -11.334 -8 -20.001 -12s-17 -7.33301 -25 -10c-8 -2 -12 -7 -12 -15c0 -5.33301 2.33301 -11.666 7 -18.999c3.33301 -4.66699 7.5 -8.5 12.5 -11.5s10.167 -4.5 15.5 -4.5
c7.33301 0 13.333 4 18 12c3.33301 5.33301 6.33301 13.166 9 23.499s4 19.5 4 27.5zM119 47c0 8.66699 -1 12.9971 -3 12.9971c-0.666992 0 -1.66699 -0.666992 -3 -2c-9.33301 -7.33301 -24.333 -15 -45 -23l-2 -1c-8 -2.66699 -12 -8 -12 -16
c0 -5.33301 2.33301 -11.666 7 -18.999c2.66699 -4 6.66699 -7.66699 12 -11s10.333 -5 15 -5c8 0 14 4 18 12c3.33301 6.66699 6.33301 15.334 9 26.001s4 19.334 4 26.001z" />
    <glyph glyph-name="semicolon" unicode=";" horiz-adv-x="202" 
d="M158 227c0 8.66699 -0.998047 12.999 -2.99805 12.999c-0.666992 0 -1.66699 -0.666992 -3 -2c-6 -5.33301 -13 -9.66602 -21 -12.999l-27 -11h-1c-7.33301 -2.66699 -11 -7.66699 -11 -15c0 -6.66699 2 -13 6 -19c7.33301 -10 16.666 -15 27.999 -15
c9.33301 0 15.666 3.66699 18.999 11c4 6.66699 7.16699 15 9.5 25s3.5 18.667 3.5 26zM118.002 6.99902c0 16.667 -9.33203 32.001 -27.999 46.001c-5.33301 0 -8 -2 -8 -6c0 -0.666992 0.333008 -1 1 -1l1 -1c2 -2 3 -4 3 -6c0 -10.667 -8.16699 -28.334 -24.5 -53.001
s-35.833 -48 -58.5 -70c-4 -3.33301 -6 -6.33301 -6 -9c0 -2 1.33301 -3 4 -3h2c1.33301 0.666992 2.33301 1 3 1c33.333 15.333 60.166 31.833 80.499 49.5s30.5 35.167 30.5 52.5z" />
    <glyph glyph-name="less" unicode="&#x3c;" 
d="M352 50v36l-240 110l240 109v36l-277 -125v-40z" />
    <glyph glyph-name="equal" unicode="=" 
d="M352 230v32h-277v-32h277zM352 128v32h-277v-32h277z" />
    <glyph glyph-name="greater" unicode="&#x3e;" 
d="M352 176v40l-277 125v-36l241 -109l-241 -110v-36z" />
    <glyph glyph-name="question" unicode="?" horiz-adv-x="306" 
d="M378 409c0 20 -7.83398 36.167 -23.501 48.5s-36.5 18.5 -62.5 18.5c-39.333 0 -82.333 -13.333 -129 -40c-10.667 -6 -16 -15.667 -16 -29c0 -12 3.33301 -18 10 -18c2.66699 0 6.5 1 11.5 3s8.5 3.66699 10.5 5c0.666992 0.666992 1.33398 2 2.00098 4l1 2
c10 12 27.5 22.167 52.5 30.5s48.167 12.5 69.5 12.5c14 0 24 -2 30 -6c7.33301 -4.66699 11 -11 11 -19c0 -11.333 -8 -25 -24 -41s-41 -37.667 -75 -65l-23 -19c-39.333 -32.667 -69.666 -61.167 -90.999 -85.5s-32 -48.5 -32 -72.5c0 -10 2.33301 -19.667 7 -29
c2 -5.33301 4.66699 -8 8 -8c4 0 6 2.66699 6 8c0 1.33301 -0.666992 4 -2 8v2c-0.666992 0.666992 -1 1.33398 -1 2.00098c0 6 3.66699 14 11 24s17.166 20.667 29.499 32s25.833 22.666 40.5 33.999s28.667 21.333 42 30c46 29.333 80.333 58.833 103 88.5
s34 56.167 34 79.5zM134.999 40c0 8 -1.33398 12.001 -4.00098 12.001c-0.666992 0 -1 -0.333008 -1 -1h-1c-9.33301 -7.33301 -24 -15 -44 -23c-1.33301 0 -2.66602 -0.333008 -3.99902 -1c-7.33301 -2.66699 -11 -8 -11 -16c0 -6.66699 2.33301 -13.334 7 -20.001
c6 -10 15 -15 27 -15c7.33301 0 13.333 4 18 12c3.33301 5.33301 6.33301 13.5 9 24.5s4 20.167 4 27.5z" />
    <glyph glyph-name="at" unicode="@" horiz-adv-x="657" 
d="M652 228c0 33.333 -5.83301 64.0029 -17.5 92.0029s-27.834 52 -48.501 72s-45.167 35.333 -73.5 46s-58.833 16 -91.5 16c-43.333 0 -86.666 -8.5 -129.999 -25.5s-82.666 -41 -117.999 -72s-63.333 -67.167 -84 -108.5s-31 -85.333 -31 -132
c0 -42 7.16699 -79.5 21.5 -112.5s34.166 -60.333 59.499 -82s54.333 -37.834 87 -48.501s67 -16 103 -16c38.667 0 77.167 4.16699 115.5 12.5s70.833 21.5 97.5 39.5l-7 17c-27.333 -18 -58.166 -30.667 -92.499 -38s-70.833 -11 -109.5 -11c-26 0 -51.833 5 -77.5 15
s-49.167 25 -70.5 45s-38.166 44.833 -50.499 74.5s-18.5 63.167 -18.5 100.5c0 43.333 8.33301 84.666 25 123.999s39.5 73.833 68.5 103.5s61.833 52.667 98.5 69s74 24.5 112 24.5c61.333 0 111.666 -18.833 150.999 -56.5s59 -87.167 59 -148.5
c0 -24 -4 -47.833 -12 -71.5s-18.833 -45.334 -32.5 -65.001s-29.334 -35.167 -47.001 -46.5s-35.5 -17 -53.5 -17c-9.33301 0 -16.833 1 -22.5 3s-8.5 5.33301 -8.5 10c4 16.667 11.5 36.5 22.5 59.5s23.167 44.833 36.5 65.5c4 6 6 12.667 6 20c0 8 -2.33301 15 -7 21
s-10.667 9 -18 9c-2.66699 0 -6.66699 -1 -12 -3c-8 -3.33301 -20.667 -12.5 -38 -27.5s-41 -36.833 -71 -65.5l-44 -41c-12.667 -11.333 -22.667 -20 -30 -26c-18 -14 -29.667 -21 -35 -21c-4 0 -6 2.33301 -6 7c0 6 1.66699 12.667 5 20c12.667 29.333 29 56.833 49 82.5
s41.167 48 63.5 67s43.666 33.667 63.999 44s36.833 15.5 49.5 15.5c8.66699 0 14.667 -3 18 -9c4.66699 -6.66699 9 -10 13 -10c6 0 9 3.33301 9 10v2c-0.666992 2 -1 3.33301 -1 4c-5.33301 19.333 -12.666 33.166 -21.999 41.499s-20 12.5 -32 12.5
c-10.667 0 -21.667 -2.33301 -33 -7c-20 -9.33301 -40.667 -22.333 -62 -39s-42.666 -36.167 -63.999 -58.5s-41.166 -46.333 -59.499 -72s-33.833 -51.5 -46.5 -77.5c-3.33301 -5.33301 -5 -11.333 -5 -18c0 -13.333 5.16699 -25.666 15.5 -36.999s21.833 -17 34.5 -17
c9.33301 0 17.666 2.66699 24.999 8c15.333 10 31.666 23.333 48.999 40s38.333 38.667 63 66c24.667 26.667 41.334 43.667 50.001 51l2 1l2 1c2.66699 0 4 -1.33301 4 -4c0 -1.33301 -0.666992 -3.33301 -2 -6c-23.333 -42.667 -35 -79 -35 -109
c0 -13.333 5.66699 -23.333 17 -30s23.666 -10 36.999 -10c24 0 47.333 6 70 18s42.667 28.5 60 49.5s31 45.333 41 73s15 56.5 15 86.5z" />
    <glyph glyph-name="A" unicode="A" horiz-adv-x="695" 
d="M769 508c0 11.333 -2.33398 22.5 -7.00098 33.5s-11.667 19.5 -21 25.5c-20 13.333 -45.667 20 -77 20c-50 0 -108.5 -16.5 -175.5 -49.5s-131.833 -75.833 -194.5 -128.5s-114 -107.834 -154 -165.501s-60 -109.167 -60 -154.5c0 -16.667 3.66699 -33.334 11 -50.001
c8.66699 -18 20.5 -32.667 35.5 -44s31.833 -17 50.5 -17c28.667 1.33301 60.834 10.5 96.501 27.5s71.334 38 107.001 63s68.667 50.167 99 75.5l101.5 86c20 18 32 28.667 36 32c5.33301 4 9 6 11 6c1.33301 0 2 -1 2 -3c0 -2.66699 -1 -6 -3 -10
c-24.667 -48.667 -44.167 -93.167 -58.5 -133.5s-21.5 -72.5 -21.5 -96.5c0 -30.667 11.667 -46 35 -46c17.333 0 40.666 8.33301 69.999 25c6.66699 4 10 6.66699 10 8s-2 2 -6 2c-3.33301 0 -7 -0.666992 -11 -2c-0.666992 0 -2.33398 -0.333008 -5.00098 -1h-3
c-5.33301 0 -9.16602 1.83301 -11.499 5.5s-3.5 8.83398 -3.5 15.501c0 19.333 8.5 51.5 25.5 96.5s42.833 106.5 77.5 184.5c2.66699 6 4 12.333 4 19c0 10.667 -3.33301 19.834 -10 27.501s-14.334 11.5 -23.001 11.5c-6.66699 0 -12 -1.66699 -16 -5l-67 -53
l-107.5 -86.5l-98 -75c-33.667 -25 -65.5 -47.5 -95.5 -67.5s-56.333 -35.333 -79 -46c-26 -12.667 -47.333 -19 -64 -19c-17.333 0 -26 9.66699 -26 29c0 7.33301 1.66699 18.333 5 33c10.667 40.667 34.667 87 72 139s82.5 102 135.5 150s108.333 87.5 166 118.5
s111.167 47.167 160.5 48.5c20.667 0 34.834 -2.66699 42.501 -8s11.5 -12.666 11.5 -21.999c0 -8 -3.33301 -20 -10 -36c-3.33301 -8.66699 -5 -14.334 -5 -17.001c0 -3.33301 1.66699 -5 5 -5c2 0 7 1.66699 15 5c9.33301 4 16.333 11 21 21s7 21 7 33z" />
    <glyph glyph-name="B" unicode="B" horiz-adv-x="657" 
d="M142 22c-7.33301 0 -11.0029 -2.66797 -11.0029 -8.00098c0 -9.33301 7.66699 -16 23 -20c19.333 -5.33301 41 -9.83301 65 -13.5s49.333 -5.5 76 -5.5c28.667 0 57 2.33301 85 7c40 6 76.333 16.5 109 31.5s60.667 32.667 84 53s41 42 53 65s18 45.167 18 66.5
c0 34.667 -16.333 63.334 -49 86.001s-81.667 34 -147 34c-3.33301 0 -5 1.66699 -5 5c0 4 1.66699 7 5 9c52 26.667 94.333 51.667 127 75c35.333 24.667 60.666 46.667 75.999 66s23 37.666 23 54.999c0 15.333 -5.16699 29 -15.5 41s-24.166 23.667 -41.499 35
c-15.333 10 -42 15 -80 15c-25.333 0 -53 -1.83301 -83 -5.5s-65 -8.5 -105 -14.5c-29.333 -4.66699 -49.166 -7.66699 -59.499 -9s-19.5 -2 -27.5 -2c-8.66699 0 -13 1.33301 -13 4c0 1.33301 1 3 3 5l2 1c2 1.33301 3 2.33301 3 3c0 1.33301 -2.66699 2 -8 2
c-8.66699 0 -16.667 -1.66699 -24 -5s-11 -8.66602 -11 -15.999c0 -5.33301 3.33301 -12.333 10 -21c6 -8 19.333 -12 40 -12c14.667 0 32.167 1.83301 52.5 5.5s46.833 9.16699 79.5 16.5c37.333 8 66.833 13.833 88.5 17.5s41.167 5.5 58.5 5.5c22 0 38 -3.66699 48 -11
c12.667 -10 19 -20.333 19 -31c0 -12.667 -7.5 -26.5 -22.5 -41.5s-36.5 -32.167 -64.5 -51.5c-14 -10 -36.333 -24.667 -67 -44c-54.667 -34 -95.667 -62 -123 -84s-41 -43 -41 -63c0 -10 0.5 -17 1.5 -21s2.16699 -6 3.5 -6c0.666992 0 1.66699 0.666992 3 2
c10 8 22.667 15.167 38 21.5s31.333 11.5 48 15.5s32.334 7 47.001 9s26 3 34 3c38.667 0 67.334 -6.5 86.001 -19.5s28 -30.5 28 -52.5c0 -20.667 -9 -42.5 -27 -65.5s-44.5 -44.5 -79.5 -64.5s-78.167 -36.333 -129.5 -49s-109.333 -19 -174 -19h-29zM94.9971 -16.001
c-4 2 -6.00195 6.33301 -6.00195 13c0 9.33301 4.33301 23 13 41s20.167 38.667 34.5 62s29.833 47 46.5 71l65 93l63.5 92l46.5 71c14.667 23.333 26.334 44 35.001 62s13 31.667 13 41c0 6.66699 -2 11 -6 13c-1.33301 0 -2.66602 -1.33301 -3.99902 -4
c-0.666992 -1.33301 -1.33398 -2.33301 -2.00098 -3l-117.5 -134c-39.667 -47.333 -76.5 -94.5 -110.5 -141.5s-61.5 -91.167 -82.5 -132.5s-31.5 -75.333 -31.5 -102c0 -26 10.333 -43.333 31 -52l2 -1c2.66699 -0.666992 4.33398 -1 5.00098 -1c5.33301 0 8 2.33301 8 7
c0 2 -1 3.66699 -3 5z" />
    <glyph glyph-name="C" unicode="C" horiz-adv-x="537" 
d="M679 538c0 18 -5.66504 33.334 -16.998 46.001s-27 19 -47 19c-47.333 0 -100.5 -14.667 -159.5 -44s-115.5 -68.333 -169.5 -117s-98 -101.167 -132 -157.5s-51 -109.833 -51 -160.5c0 -42 12.667 -79.667 38 -113c10.667 -14 25.334 -24.5 44.001 -31.5
s40 -10.5 64 -10.5c22 0 45.5 2.83301 70.5 8.5s50 14 75 25s48.167 23.667 69.5 38s39.333 29.833 54 46.5c6 7.33301 9 13.333 9 18c0 4 -1.66699 6 -5 6c-2.66699 0 -5.66699 -1.66699 -9 -5c-14 -12 -31.5 -23.833 -52.5 -35.5s-43.5 -21.834 -67.5 -30.501
s-48 -15.667 -72 -21s-46 -8 -66 -8c-24.667 0 -44.334 4.33301 -59.001 13s-22 22.667 -22 42c0 54 14.167 108 42.5 162s64.833 103.667 109.5 149s91.667 83.333 141 114s93.666 50.667 132.999 60c8 2 14.667 3 20 3c13.333 0 20 -5.33301 20 -16
c0 -10 -6.33301 -23 -19 -39c-5.33301 -6.66699 -8 -12 -8 -16c0 -3.33301 1.66699 -6 5 -8s6.66602 -3 9.99902 -3c14.667 0 27.667 8.66699 39 26c8 12 12 25.333 12 40z" />
    <glyph glyph-name="D" unicode="D" horiz-adv-x="667" 
d="M748 402c0 28 -4.50098 54.1689 -13.501 78.502s-23.833 46.333 -44.5 66s-48.167 35.167 -82.5 46.5s-75.5 17 -123.5 17c-71.333 0 -158.666 -14.667 -261.999 -44l-9 -3c-16 -4 -25.333 -6 -28 -6c-2 0 -3 0.666992 -3 2s2 3.66602 6 6.99902
c4.66699 5.33301 7 9 7 11s-1.83301 3.33301 -5.5 4s-10.834 1 -21.501 1c-5.33301 0 -11.5 -2.33301 -18.5 -7s-10.5 -10.667 -10.5 -18s3 -14 9 -20c11.333 -12 31 -18 59 -18c16.667 0 35.334 1.5 56.001 4.5s46.667 7.5 78 13.5c44 8 80 14 108 18s55.333 6 82 6
c25.333 0 48.833 -2.33301 70.5 -7s40.834 -12.334 57.501 -23.001c31.333 -20 47 -47.333 47 -82c0 -60.667 -44.167 -132.334 -132.5 -215.001s-212.833 -162 -373.5 -238c-2.66699 -1.33301 -6.33398 -2 -11.001 -2c-6 0 -13.333 2.33301 -22 7
c-4.66699 2.66699 -7.66699 4 -9 4s-2.66602 -1.16699 -3.99902 -3.5s-2 -4.16602 -2 -5.49902c0 -11.333 6 -20 18 -26s27.333 -9 46 -9c39.333 0 89.166 12.5 149.499 37.5s120 58.833 179 101.5s107.667 90.5 146 143.5s57.5 105.833 57.5 158.5zM356.999 431.002
c0 29.333 -14 50.667 -42 64h-1l-1 1c-2.66699 0 -5 -1.66699 -7 -5s-3 -6.33301 -3 -9c0 -2 1.33301 -4 4 -6s4 -5.33301 4 -10c0 -11.333 -6.66699 -29 -20 -53s-34.666 -59.333 -63.999 -106l-59 -96c-15.333 -26 -30.333 -53 -45 -81s-26.334 -54.667 -35.001 -80
s-13 -47.666 -13 -66.999c0 -9.33301 0.666992 -16.333 2 -21c2 -7.33301 4 -11 6 -11c2.66699 0 4.66699 2.66699 6 8c4.66699 23.333 17 50.833 37 82.5s49.333 74.167 88 127.5l59.5 82c13.667 19.333 27 40.166 40 62.499s23.5 43.5 31.5 63.5s12 38 12 54z" />
    <glyph glyph-name="E" unicode="E" horiz-adv-x="522" 
d="M740 487c0 22 -6.33594 47.6689 -19.0029 77.002c-12.667 28 -36 42 -70 42c-33.333 0 -79.666 -5.66699 -138.999 -17s-119.166 -27.5 -179.499 -48.5s-110.666 -46.5 -150.999 -76.5s-60.5 -62.667 -60.5 -98c0 -19.333 6.66699 -39 20 -59
c10.667 -16.667 26 -28.834 46 -36.501s42.333 -11.5 67 -11.5c27.333 0 55 4.33301 83 13c9.33301 2.66699 14 4.66699 14 6s-3.5 2.33301 -10.5 3s-20.5 1.33398 -40.5 2.00098c-22 0.666992 -41.333 1.66699 -58 3s-29.667 3.66602 -39 6.99902
c-29.333 10.667 -44 24.334 -44 41.001c0 18.667 17 39 51 61s77.667 42.833 131 62.5s107 35.5 161 47.5s99.333 18 136 18c23.333 0 41.5 -2.83301 54.5 -8.5s19.5 -13.834 19.5 -24.501c0 -14 -12 -33.667 -36 -59c-6.66699 -6.66699 -10 -12.334 -10 -17.001
c0 -4 2 -6 6 -6c6.66699 0 15 3.66699 25 11c28.667 20 43 42.667 43 68zM487.997 225.002c0 16.667 -3.66504 30.665 -10.998 41.998s-18.666 17 -33.999 17c-2 0 -3.66699 -0.333008 -5 -1h-5c-18.667 -2.66699 -46.167 -10.167 -82.5 -22.5s-73 -28.333 -110 -48
s-68.333 -42.334 -94 -68.001s-38.5 -52.5 -38.5 -80.5c0 -13.333 3.66699 -27.333 11 -42c14.667 -28.667 34.5 -49.667 59.5 -63s53.833 -20 86.5 -20c31.333 0 65.166 5.33301 101.499 16s73.5 25 111.5 43c5.33301 2 8 4.66699 8 8c0 2.66699 -2 4 -6 4
c-0.666992 0 -1.33398 -0.333008 -2.00098 -1h-3c-89.333 -24.667 -161 -37 -215 -37c-34.667 0 -60.834 5 -78.501 15s-26.5 23 -26.5 39s8 33.833 24 53.5s38.5 38.834 67.5 57.501s62.833 34.834 101.5 48.501s79.667 23.167 123 28.5
c11.333 0.666992 17 4.33398 17 11.001z" />
    <glyph glyph-name="F" unicode="F" horiz-adv-x="546" 
d="M822 574c0 8.66699 -3.33301 17.334 -10 26.001c-12 16 -38.667 24 -80 24c-37.333 0 -84.166 -5.66699 -140.499 -17s-136.5 -29.333 -240.5 -54l-11 -3c-22 -5.33301 -43 -9.5 -63 -12.5s-36.667 -4.5 -50 -4.5c-19.333 0 -29 4 -29 12c0 4 5.33301 12.667 16 26
c-2 0 -6 -1.5 -12 -4.5s-12.333 -7 -19 -12s-12.5 -10.5 -17.5 -16.5s-7.83301 -12.333 -8.5 -19c0 -12.667 5.33301 -21.834 16 -27.501s24.667 -8.5 42 -8.5c14 0 30.333 1.5 49 4.5s40.334 7.5 65.001 13.5c16.667 4 38.167 8.66699 64.5 14s55 10.5 86 15.5
s62.167 9.16699 93.5 12.5s58.666 5 81.999 5c24.667 0 44 -2.16699 58 -6.5s21 -11.166 21 -20.499c0 -6.66699 -5.66699 -16.334 -17 -29.001l-1 -1l-9 -12.5c-2.66699 -3.66699 -4 -6.5 -4 -8.5c0 -1.33301 0.666992 -2 2 -2c2 0 4.33301 1 7 3l19 12
c18.667 12 31.667 20.667 39 26s15.666 12.333 24.999 21c18 16 27 30.667 27 44zM603 239c0 2 -0.331055 4.66211 -0.998047 7.99512l-1 2c-4.66699 14 -14.834 24.167 -30.501 30.5s-35.167 9.5 -58.5 9.5c-21.333 0 -44 -2 -68 -6s-50.333 -9 -79 -15
c-27.333 -6 -43.666 -9 -48.999 -9c-3.33301 0 -5 0.666992 -5 2s1.33301 4 4 8l1 2c3.33301 6 8 13.667 14 23c21.333 35.333 37.666 64.833 48.999 88.5s17 44.834 17 63.501c0 10.667 -2.66699 20.667 -8 30c-1.33301 3.33301 -3.33301 5 -6 5
c-3.33301 0 -5.5 -1.5 -6.5 -4.5s-1.5 -5.83301 -1.5 -8.5c0 -4.66699 -4.66699 -15.167 -14 -31.5s-21.333 -35.833 -36 -58.5s-30.167 -45.334 -46.5 -68.001s-30.166 -41 -41.499 -55c-1.33301 -1.33301 -2 -2.33301 -2 -3
c-6.66699 -7.33301 -11.334 -11.666 -14.001 -12.999c-10.667 -3.33301 -20.667 -5.5 -30 -6.5s-20.333 -1.83301 -33 -2.5c-10.667 0 -16 -0.666992 -16 -2c0 -4.66699 4.33301 -8.66699 13 -12s20.334 -6.66602 35.001 -9.99902c0.666992 0 2 -0.333008 4 -1
c1.33301 0 2 -0.666992 2 -2c0 -0.666992 -1 -2.33398 -3 -5.00098v-1c-53.333 -82 -80 -144.667 -80 -188c0 -25.333 9.33301 -42 28 -50c11.333 -5.33301 19.666 -8 24.999 -8c4 0 6 2 6 6c0 0.666992 -0.333008 2.33398 -1 5.00098c-0.666992 4 -1 7.66699 -1 11
c0 7.33301 3.16699 19.833 9.5 37.5s14.666 37.834 24.999 60.501s21.333 44.5 33 65.5s22.5 39.167 32.5 54.5c6 10 10.667 15.333 14 16c18 4 38.833 8 62.5 12s49.334 7.83301 77.001 11.5s53.5 6.83398 77.5 9.50098s46 4.33398 66 5.00098
c9.33301 0 15.5 -0.666992 18.5 -2s4.83301 -3.33301 5.5 -6c1.33301 -2 2.33301 -3.66699 3 -5c1.33301 -1.33301 2.66602 -2 3.99902 -2c4 0 6 3 6 9z" />
    <glyph glyph-name="G" unicode="G" horiz-adv-x="733" 
d="M809 502c0 25.333 -7.6709 44.998 -23.0039 58.998c-17.333 15.333 -42 23 -74 23c-49.333 0 -110 -16.667 -182 -50s-143 -76.333 -213 -129s-127.5 -107 -172.5 -163s-67.5 -105.333 -67.5 -148c0 -15.333 3 -29 9 -41c10.667 -20.667 22.334 -36.834 35.001 -48.501
s25 -18.834 37 -21.501c6.66699 -1.33301 11.667 -2 15 -2c17.333 0 37.333 5.16699 60 15.5s47.5 24.5 74.5 42.5s53.833 37.167 80.5 57.5l106 83.5c63.333 50.667 110.333 87.334 141 110.001c7.33301 5.33301 13.333 8 18 8c8.66699 0 13 -7 13 -21
c0 -27.333 -14.333 -68.333 -43 -123c-20.667 -38 -35.667 -63.667 -45 -77l-11 -9l-81.5 -66c-24.333 -20.667 -48.666 -43.167 -72.999 -67.5s-44.333 -48 -60 -71s-23.5 -43.5 -23.5 -61.5c0 -10.667 3.83301 -21 11.5 -31s14.834 -15 21.501 -15
c12 0 30.667 11.333 56 34s52.833 51.667 82.5 87s57.5 71.833 83.5 109.5s45.667 70.5 59 98.5c1.33301 2.66699 3.83301 5.66699 7.5 9s9.5 8 17.5 14c4.66699 4 11.834 9.33301 21.501 16l38.5 26l36.5 24.5c8.33301 5.66699 15.5 10.167 21.5 13.5
c9.33301 6.66699 14 12 14 16c0 2.66699 -1.66699 4 -5 4s-7.33301 -1.33301 -12 -4c-16.667 -8 -40 -22.333 -70 -43c-17.333 -12 -29.666 -20 -36.999 -24c-0.666992 0 -1.33398 -0.333008 -2.00098 -1h-2c-2.66699 0 -4 1 -4 3c0 1.33301 0.666992 2.66602 2 3.99902
c10 19.333 18.167 41 24.5 65s9.5 46 9.5 66c0 18.667 -3 33.334 -9 44.001s-15.333 16 -28 16c-8.66699 0 -18 -2.33301 -28 -7c-25.333 -12 -53.5 -28.5 -84.5 -49.5l-120.5 -84.5c-53.333 -39.333 -96.666 -70.166 -129.999 -92.499s-63 -38.5 -89 -48.5
c-24 -9.33301 -42 -14 -54 -14c-16 0 -24 7.33301 -24 22c0 10 3.66699 23.333 11 40c18.667 40 50.167 84.667 94.5 134s95.5 96.5 153.5 141.5s117.167 81.833 177.5 110.5s115.166 44 164.499 46c15.333 0 25.833 -2.33301 31.5 -7s8.5 -11 8.5 -19
c0 -6 -1.16699 -12.5 -3.5 -19.5s-5.5 -14.833 -9.5 -23.5c-4.66699 -11.333 -7 -18.666 -7 -21.999s1.33301 -5 4 -5s8 2 16 6c10.667 6 18.5 14.333 23.5 25s7.5 22.334 7.5 35.001z" />
    <glyph glyph-name="H" unicode="H" horiz-adv-x="717" 
d="M96 297c-5.33301 0 -8.00488 -0.661133 -8.00488 -1.99414c0 -3.33301 2.66699 -8 8 -14c4 -5.33301 11.333 -9 22 -11s23.667 -3.33301 39 -4c7.33301 -0.666992 11.666 -1 12.999 -1h2c4 -0.666992 6 -2 6 -4c0 -1.33301 -1.66699 -4.33301 -5 -9
c-2.66699 -3.33301 -5.33398 -7 -8.00098 -11c-5.33301 -7.33301 -11.833 -18.166 -19.5 -32.499l-24.5 -46.5c-8.66699 -16.667 -16.667 -32.834 -24 -48.501s-13.333 -29.167 -18 -40.5c-6 -14 -9 -28.333 -9 -43c0 -15.333 4 -27 12 -35s21.667 -12 41 -12
c6 0 10.667 5.33301 14 16c0.666992 3.33301 1.33398 6 2.00098 8l1 3c4.66699 14 9.16699 26.667 13.5 38s10.833 26.333 19.5 45s20.167 41.834 34.5 69.501s31.5 58.834 51.5 93.501l5 10c2.66699 5.33301 5.66699 8.33301 9 9c8.66699 1.33301 25.834 3 51.501 5
s53.834 3.83301 84.501 5.5s61.5 3 92.5 4s56.167 1.5 75.5 1.5c4 0 9 -0.333008 15 -1h9c4 0 6 -1.33301 6 -4s-0.666992 -5.33398 -2 -8.00098c-33.333 -60 -57.833 -111.667 -73.5 -155s-23.5 -78 -23.5 -104c0 -40 16 -60 48 -60c10 0 22.333 2.66699 37 8
c15.333 5.33301 23 11 23 17c0 4 -3 6 -9 6c-3.33301 0 -7.66602 -1 -12.999 -3c-0.666992 0 -1.33398 -0.333008 -2.00098 -1h-2c-5.33301 0 -8 4.33301 -8 13c0 11.333 3.83301 29.166 11.5 53.499s17.5 51.666 29.5 81.999s24.167 59.166 36.5 86.499
s23.166 49.333 32.499 66c3.33301 6 6.33301 9 9 9c48.667 0 79.334 8 92.001 24c2 2.66699 11.667 7.33398 29 14.001l20.5 9.5c5 2.33301 7.5 4.5 7.5 6.5s-4.16699 3.66699 -12.5 5s-21.5 2 -39.5 2h-15c-8.66699 -0.666992 -16 -1 -22 -1h-10
c-8.66699 -0.666992 -16 -1 -22 -1c-3.33301 0 -5 0.666992 -5 2s1 4.33301 3 9l2 3c18.667 43.333 39.667 83.166 63 119.499s46 69.5 68 99.5c1.33301 1.33301 2.33301 2.66602 3 3.99902c24 32 43.333 48 58 48c4.66699 0 8.5 -1.83301 11.5 -5.5
s4.83301 -7.16699 5.5 -10.5c2 -6.66699 4.66699 -10 8 -10c7.33301 0 11 6 11 18c0 9.33301 -4 17.666 -12 24.999c-7.33301 7.33301 -16.333 11 -27 11c-14.667 0 -32.167 -7.5 -52.5 -22.5s-42.5 -36.5 -66.5 -64.5s-49.167 -60.833 -75.5 -98.5
s-53.166 -79.834 -80.499 -126.501v-1c-1.33301 -2.66699 -2.66602 -4.33398 -3.99902 -5.00098s-3.66602 -1.33398 -6.99902 -2.00098c-21.333 -2 -48.5 -4.33301 -81.5 -7s-70.167 -5.33398 -111.5 -8.00098c-32 -2 -61 -4 -87 -6s-43.333 -3.66699 -52 -5
c-2 1.33301 -3 3.33301 -3 6c0 1.33301 0.333008 2.66602 1 3.99902c9.33301 12.667 18.5 27.167 27.5 43.5s17.333 33.5 25 51.5s13.834 35.333 18.501 52s7 31.667 7 45c0 12.667 -2.33301 23 -7 31c-2 3.33301 -4 5 -6 5c-5.33301 0 -8 -4.33301 -8 -13
c0 -2 0.666992 -5.66699 2 -11c0 -5.33301 -4.5 -16.666 -13.5 -33.999s-20.167 -36.5 -33.5 -57.5s-28 -42.667 -44 -65s-29.667 -40.166 -41 -53.499l-4 -4c-4 -4.66699 -8 -7.66699 -12 -9c-8.66699 -3.33301 -20 -6.16602 -34 -8.49902s-31 -4.5 -51 -6.5
c-5.33301 -0.666992 -12 -1 -20 -1h-8z" />
    <glyph glyph-name="I" unicode="I" horiz-adv-x="530" 
d="M719 607c0 5.33301 -0.99707 11.334 -2.99707 18.001v1c-0.666992 2.66699 -1.66699 4 -3 4s-3.66602 -1.66699 -6.99902 -5c-2 -2 -3.66699 -3.33301 -5 -4c-13.333 -10.667 -30.333 -21.334 -51 -32.001s-50 -24.667 -88 -42l-89 -43
c-24 -12 -46.667 -25.167 -68 -39.5s-38.5 -29.666 -51.5 -45.999s-19.5 -33.166 -19.5 -50.499c2 -19.333 8 -34.833 18 -46.5s19 -17.5 27 -17.5c9.33301 0 17.333 1.16699 24 3.5s10 4.83301 10 7.5c0 3.33301 -3.33301 5.33301 -10 6c-1.33301 0 -3.33301 0.333008 -6 1
c-8.66699 0.666992 -15.667 2 -21 4s-9.66602 5.66699 -12.999 11c-1.33301 2.66699 -2 4.66699 -2 6c0 7.33301 5.5 16.166 16.5 26.499s25 21 42 32s34 21.333 51 31l66.5 37.5c24 12.667 39.333 21 46 25c2 1.33301 4 2 6 2c2.66699 0 4 -1.66699 4 -5v-2
c-0.666992 -1.33301 -1 -2.33301 -1 -3c-34.667 -78.667 -66.834 -146.167 -96.501 -202.5s-57.334 -102.833 -83.001 -139.5s-50.334 -65.167 -74.001 -85.5s-47.834 -34.833 -72.501 -43.5c-18 -6.66699 -36.333 -10 -55 -10c-20 0 -38.833 4 -56.5 12
s-32.834 18.5 -45.501 31.5s-22.5 27.833 -29.5 44.5s-10.5 33.667 -10.5 51c0 10 1 19.333 3 28c1.33301 5.33301 2 9.33301 2 12c0 10 -2.33301 15 -7 15c-5.33301 0 -10.333 -6.66699 -15 -20c-5.33301 -14.667 -8 -30 -8 -46c0 -21.333 4.33301 -43.333 13 -66
s20.667 -43.667 36 -63s33.5 -35 54.5 -47s43.5 -18.667 67.5 -20c46 0 88 13.667 126 41s72.5 64.666 103.5 111.999s58.833 98.333 83.5 153s55 127 91 217l24 58c3.33301 8 8.5 14.667 15.5 20s16.5 11 28.5 17l6 3c9.33301 4.66699 16 11.5 20 20.5s6 18.167 6 27.5z
" />
    <glyph glyph-name="J" unicode="J" horiz-adv-x="741" 
d="M807 458c0 40.667 -12.8271 71.4971 -38.4941 92.4971s-60.167 31.5 -103.5 31.5c-31.333 0 -65.333 -5.5 -102 -16.5s-72.667 -26.833 -108 -47.5c-116.667 -67.333 -204.5 -136.666 -263.5 -207.999s-88.5 -134.666 -88.5 -189.999c0 -23.333 6 -45 18 -65
c16.667 -26.667 43 -40 79 -40c23.333 0 49.666 5.5 78.999 16.5s59.166 25.5 89.499 43.5s60.166 37.667 89.499 59s57.666 43.333 84.999 66c20.667 16.667 31 28.667 31 36c0 2 -1.33301 3 -4 3c-5.33301 0 -12 -2.66699 -20 -8c-93.333 -60.667 -169 -104.667 -227 -132
s-101 -41 -129 -41c-14 0 -24.167 3.16699 -30.5 9.5s-9.5 15.166 -9.5 26.499c0 14.667 5.33301 33.334 16 56.001s24.667 46 42 70c28 38.667 63 77.334 105 116.001s86.333 73.334 133 104.001s91.834 55 135.501 73s80.5 27 110.5 27
c21.333 0 37.833 -5.16699 49.5 -15.5s17.5 -25.833 17.5 -46.5c0 -8 -0.333008 -14.333 -1 -19c-4.66699 -33.333 -24.334 -83.666 -59.001 -150.999s-85.334 -142.333 -152.001 -225c-2 -2.66699 -14 -12.334 -36 -29.001l-45.5 -34.5c-15 -11.667 -29.833 -24 -44.5 -37
s-28 -26 -40 -39s-21 -25.5 -27 -37.5c-11.333 -22 -17 -40 -17 -54c0 -12 3.16699 -21.5 9.5 -28.5s14.166 -10.5 23.499 -10.5s18 2.66699 26 8c12 8 25.5 19.667 40.5 35s31 33.333 48 54l51 64l56.5 73c0 0.666992 5.66699 8.33398 17 23.001l5 6
c2 2 3.33301 3.66699 4 5c16.667 18 34.5 33.167 53.5 45.5s42.5 26.166 70.5 41.499c21.333 11.333 36 19.666 44 24.999c10.667 6.66699 16 12.667 16 18c0 2.66699 -1.33301 4 -4 4c-1.33301 0 -4 -0.666992 -8 -2c-14.667 -6.66699 -30.667 -14.667 -48 -24l-40 -22
l-30 -17.5l-21 -12.5c52 69.333 90.333 130.833 115 184.5s37 99.167 37 136.5z" />
    <glyph glyph-name="K" unicode="K" horiz-adv-x="654" 
d="M906 541c0 14.667 -3.32715 30.668 -9.99414 48.001c-5.33301 13.333 -10.333 20 -15 20c-4 0 -6 -2.66699 -6 -8c0 -0.666992 0.333008 -1.66699 1 -3c1.33301 -3.33301 2 -6.33301 2 -9c0 -11.333 -15.333 -29 -46 -53s-71 -50 -121 -78s-102.833 -54.167 -158.5 -78.5
s-107.5 -42.833 -155.5 -55.5c-0.666992 0 -2.33398 -0.333008 -5.00098 -1c-1.33301 -0.666992 -2.33301 -1 -3 -1s-1.33398 0.666992 -2.00098 2c0 4 3.33301 11.333 10 22c41.333 61.333 62 112.666 62 153.999c0 51.333 -30.667 77 -92 77c-54 0 -123 -21 -207 -63
c-6 -2.66699 -9 -7.66699 -9 -15s3 -14.5 9 -21.5s12.667 -10.5 20 -10.5c2 0 4 0.333008 6 1l2 1c13.333 6.66699 20 12 20 16c0 2 -1.66699 3.66699 -5 5c-2 1.33301 -3 2.33301 -3 3c0 1.33301 1 2.66602 3 3.99902c24 16 49.833 28.833 77.5 38.5s52.5 14.5 74.5 14.5
c19.333 0 34.666 -4 45.999 -12s17 -20.333 17 -37c0 -20 -8.5 -45.5 -25.5 -76.5s-44.167 -68.167 -81.5 -111.5c-8 0 -17.333 -1 -28 -3c-11.333 -2.66699 -17 -6.33398 -17 -11.001c0 -2.66699 2 -5.66699 6 -9c8 -5.33301 12 -10 12 -14
c0 -1.33301 -0.666992 -2.66602 -2 -3.99902c-39.333 -53.333 -69.166 -100.166 -89.499 -140.499s-30.5 -73.5 -30.5 -99.5c0 -36 21 -56 63 -60c1.33301 0 2 0.666992 2 2l-2 5c-2 6 -3 11 -3 15c1.33301 23.333 10.666 54 27.999 92s39 79 65 123
c1.33301 2 2.66602 3 3.99902 3c0.666992 0 1.33398 -1 2.00098 -3l3 -6c21.333 -38 41.166 -71.5 59.499 -100.5s37.666 -55.5 57.999 -79.5s41.5 -43.167 63.5 -57.5s44.333 -21.5 67 -21.5c22 0 44.333 7 67 21c6 4 9 7 9 9c0 2.66699 -2.33301 4 -7 4
s-10.667 -1.66699 -18 -5c-6.66699 -3.33301 -13.334 -5 -20.001 -5c-15.333 0 -32.666 7.66699 -51.999 23s-39.333 36.5 -60 63.5s-41.334 58.167 -62.001 93.5s-40.667 72.333 -60 111c0 2 5.5 5.33301 16.5 10s22.5 8.66699 34.5 12
c27.333 7.33301 59.5 17.166 96.5 29.499s75 26 114 41s76.167 30.667 111.5 47s64.333 31.833 87 46.5c29.333 18.667 49.5 34.834 60.5 48.501s16.5 29.5 16.5 47.5z" />
    <glyph glyph-name="L" unicode="L" horiz-adv-x="473" 
d="M491 551c0 20.667 -5.49805 38.501 -16.498 53.501s-22.5 22.5 -34.5 22.5c-6 0 -11 -2 -15 -6c-13.333 -12.667 -20 -20.334 -20 -23.001c0 -0.666992 0.666992 -1 2 -1c2 0 5 0.333008 9 1c5.33301 1.33301 9.33301 2 12 2c6.66699 0 10 -1.66699 10 -5
c0 -4 -3 -11 -9 -21c-2.66699 -4.66699 -8.66699 -12.334 -18 -23.001l-45 -50l-100.5 -112c-29 -33.333 -58.333 -70.166 -88 -110.499s-54 -79.666 -73 -117.999s-28.5 -72.166 -28.5 -101.499c0 -8.66699 1 -17 3 -25c6.66699 -28.667 20.334 -49 41.001 -61
s46.334 -18 77.001 -18c22.667 0 46.5 2.5 71.5 7.5s53.167 11.833 84.5 20.5c34 9.33301 55 14 63 14c5.33301 0 8.66602 -1.33301 9.99902 -4c0.666992 -2.66699 3 -4 7 -4c6 0 9 3.33301 9 10c0 4 -2 9.33301 -6 16c-6 9.33301 -14.667 16.166 -26 20.499
s-25.333 6.5 -42 6.5c-14.667 0 -30.334 -1.33301 -47.001 -4s-38 -6.33398 -64 -11.001c-24 -5.33301 -42.833 -9 -56.5 -11s-25.834 -3 -36.501 -3c-8.66699 0 -16 1 -22 3c-10 3.33301 -16.833 7.5 -20.5 12.5s-5.5 11.833 -5.5 20.5c0 17.333 8.66699 40 26 68
s39.666 58.167 66.999 90.5s54 62.333 80 90l100 103.5l67 70c13.333 14 22.5 27.5 27.5 40.5s7.5 26.167 7.5 39.5z" />
    <glyph glyph-name="M" unicode="M" horiz-adv-x="1032" 
d="M1057 400c0 28 -5.49805 50.835 -16.498 68.502s-28.167 26.5 -51.5 26.5c-30 0 -69.333 -17 -118 -51s-107.667 -89.333 -177 -166c-4 -4 -6.66699 -6 -8 -6c-2.66699 0 -4 1.66699 -4 5c0 1.33301 0.666992 3.33301 2 6c5.33301 10.667 10.333 20 15 28
c15.333 27.333 26.666 48.166 33.999 62.499l23.5 48c8.33301 17.667 15 34.5 20 50.5s7.5 30 7.5 42c0 10 -1.66699 17.333 -5 22c-8.66699 13.333 -21.667 20 -39 20c-18 0 -39.5 -6.83301 -64.5 -20.5s-50.833 -30.834 -77.5 -51.501s-52 -41.834 -76 -63.501l-77 -71.5
l-9 -9c-6.66699 -6 -10.667 -9.33301 -12 -10c1.33301 3.33301 3.33301 7 6 11c1.33301 2.66699 3 5.66699 5 9c31.333 50.667 54 94.667 68 132s21 69.333 21 96c0 30 -7.83301 52.167 -23.5 66.5s-35.167 21.5 -58.5 21.5c-16.667 0 -32 -3 -46 -9
c-30 -11.333 -63.167 -26 -99.5 -44s-67.833 -36.333 -94.5 -55c-11.333 -8 -18.666 -12 -21.999 -12c-0.666992 0 -1 0.333008 -1 1c0 2 2 6 6 12c3.33301 5.33301 5 9 5 11c0 0.666992 -0.333008 1 -1 1c-2 0 -5.33301 -1.33301 -10 -4c-16 -8.66699 -24 -21 -24 -37l1 -4
v-5c2 -16 10 -24 24 -24c12.667 0 28.334 7 47.001 21c54.667 40.667 100 70.667 136 90s62.333 29 79 29c18 0 27 -10 27 -30c0 -16 -5.5 -37.667 -16.5 -65s-25.833 -57.666 -44.5 -90.999s-39.5 -68 -62.5 -104s-47.167 -72 -72.5 -108
c-35.333 -50.667 -61.333 -96 -78 -136s-25 -71.667 -25 -95c0 -16 3.66699 -26.333 11 -31c4.66699 -2.66699 8 -4 10 -4c6.66699 0 12.334 5 17.001 15c27.333 51.333 66.166 107.833 116.499 169.5s103.166 120 158.499 175s105 99.833 149 134.5s73.333 52 88 52
c5.33301 0 8 -3 8 -9s-2.33301 -13.667 -7 -23c-10 -20.667 -22.667 -44.334 -38 -71.001l-62 -103l-58 -96.5c-14.667 -25 -28.667 -50.333 -42 -76s-24 -49.167 -32 -70.5s-12 -39.333 -12 -54c0 -15.333 5 -27 15 -35c5.33301 -4 9.66602 -6 12.999 -6
c4 0 7.33301 1.83301 10 5.5s5.66699 9.5 9 17.5c5.33301 12 9.66602 20.667 12.999 26c46.667 70 93.167 132.667 139.5 188s89.666 101.5 129.999 138.5s75.833 65 106.5 84s54.667 28.5 72 28.5s26 -9 26 -27c0 -6.66699 -1.66699 -16 -5 -28
c-2.66699 -8.66699 -7.16699 -19.667 -13.5 -33l-29.5 -61c-16 -32 -29.5 -60 -40.5 -84s-21.667 -49 -32 -75s-18.833 -51.333 -25.5 -76s-10 -46.667 -10 -66c0 -18.667 3.5 -34.167 10.5 -46.5s17.5 -21.166 31.5 -26.499c3.33301 -1.33301 7.33301 -2 12 -2
c8.66699 0 13 5.33301 13 16c0 1.33301 -0.333008 4 -1 8s-1 6.66699 -1 8c0 6.66699 3.83301 22 11.5 46s17.334 52.333 29.001 85l37.5 100.5l37 92.5c6.66699 16 12 33.333 16 52s6 36.667 6 54z" />
    <glyph glyph-name="N" unicode="N" horiz-adv-x="779" 
d="M839 424c0 26 -6.83203 46.3271 -20.499 60.9941s-33.167 22 -58.5 22c-41.333 0 -94 -20.5 -158 -61.5s-136 -104.167 -216 -189.5c-4 -4 -8.5 -7.83301 -13.5 -11.5s-8.83301 -5.5 -11.5 -5.5c-2 0 -3 1 -3 3s1.33301 5.33301 4 10l29 44
c35.333 54 63.833 99.167 85.5 135.5s38.167 69.833 49.5 100.5c8 22 12 41 12 57c0 22.667 -6.66699 39.834 -20 51.501s-32 17.5 -56 17.5c-8 0 -14.333 -0.333008 -19 -1c-30.667 -2.66699 -62.667 -9.16699 -96 -19.5s-64.5 -22.666 -93.5 -36.999
s-52.167 -30 -69.5 -47s-26 -33.5 -26 -49.5c0 -10 3.33301 -19.333 10 -28c3.33301 -4 8 -6 14 -6c4.66699 0 10.334 1.5 17.001 4.5s10 5.16699 10 6.5s-2.33301 2 -7 2c-4 0.666992 -7.16699 1.5 -9.5 2.5s-3.5 2.83301 -3.5 5.5c0 2 0.666992 4 2 6
c8 14 21.667 27.833 41 41.5s41.333 26.334 66 38.001s49 21.5 73 29.5s45 14.333 63 19c11.333 2.66699 22.666 4 33.999 4c22.667 0 34 -8.66699 34 -26c0 -19.333 -14.667 -51.333 -44 -96c-12 -19.333 -24.833 -38.333 -38.5 -57l-61.5 -84l-89.5 -125
c-23 -32.667 -43.167 -64 -60.5 -94c-24 -42 -36 -79.333 -36 -112c0 -19.333 4.33301 -34.333 13 -45c5.33301 -6 9.33301 -9 12 -9c2 0 4.66699 3 8 9c2 4 3.66699 7 5 9c46 66 96.167 128.333 150.5 187s108 109.667 161 153s100.667 77 143 101s74.5 36 96.5 36
c19.333 0 29 -9.66699 29 -29c0 -8 -2 -18 -6 -30c-5.33301 -15.333 -13 -33.166 -23 -53.499l-43 -83.5l-42.5 -83c-11 -22 -21.5 -44.667 -31.5 -68s-18.167 -45.666 -24.5 -66.999s-9.5 -39.666 -9.5 -54.999c0 -13.333 2.16699 -23.833 6.5 -31.5
s12.166 -14.5 23.499 -20.5c9.33301 -4 17.333 -6 24 -6c10.667 0 17 5.33301 19 16v10c-0.666992 5.33301 -1 8.33301 -1 9c0 8 3.5 22.833 10.5 44.5s16.167 47.167 27.5 76.5s24.833 62.166 40.5 98.499l52.5 119.5c17.333 38.667 26 72.334 26 101.001z" />
    <glyph glyph-name="O" unicode="O" horiz-adv-x="701" 
d="M790 423c0 52.667 -19.165 94.0039 -57.498 124.004s-94.166 45 -167.499 45c-2 0 -5.66699 -0.333008 -11 -1h-12c1.33301 5.33301 2 9 2 11c0 10 -4.33301 20.333 -13 31c-4 6 -9.33301 9 -16 9c-5.33301 0 -15.666 -6.66699 -30.999 -20v0
c-10.667 -8.66699 -22.667 -19.667 -36 -33c-10 -9.33301 -17.5 -16 -22.5 -20s-10.833 -7 -17.5 -9c-42.667 -12.667 -83 -28.834 -121 -48.501s-71.333 -40.834 -100 -63.501s-51 -45.5 -67 -68.5s-24 -44.5 -24 -64.5c0 -32.667 21 -57 63 -73
c2 -0.666992 3 -2.33398 3 -5.00098s-1 -6 -3 -10c-9.33301 -17.333 -16.5 -36.833 -21.5 -58.5s-7.5 -43.5 -7.5 -65.5c0 -14 0.666992 -24 2 -30c6 -36.667 20.167 -63.667 42.5 -81s51.166 -26 86.499 -26c44.667 0 95.667 12.833 153 38.5s113.166 59.5 167.499 101.5
s100.166 87.333 137.499 136s59.666 94.667 66.999 138v3c2.66699 17.333 4 30.666 4 39.999zM747.002 449.004c0 -40.667 -25.001 -91.3301 -75.001 -151.997s-118.333 -123.667 -205 -189c-40.667 -30 -80 -53 -118 -69s-71.667 -24 -101 -24
c-24 0 -42.833 5.83301 -56.5 17.5s-20.5 29.5 -20.5 53.5c0 32.667 14 75 42 127c2.66699 4.66699 6.33398 7 11.001 7c2.66699 0 6.66699 -0.666992 12 -2l6 -2c5.33301 -1.33301 15 -2 29 -2c16.667 0 33.167 1.33301 49.5 4s28.5 6 36.5 10c7.33301 4 11 8.33301 11 13
c0 2.66699 -2 4 -6 4c-0.666992 0 -1.33398 -0.333008 -2.00098 -1h-3c-10 -2.66699 -21.333 -5.16699 -34 -7.5s-25 -3.5 -37 -3.5c-6 0 -15.333 1.33301 -28 4h-3c-10.667 2 -16 4.66699 -16 8c0 2 2 6 6 12c0.666992 1.33301 1.66699 3 3 5
c29.333 47.333 62.5 92.166 99.5 134.499s77.167 79.5 120.5 111.5l21 15c6.66699 5.33301 11.334 8.66602 14.001 9.99902c33.333 4 63 6 89 6c52 0 90.833 -7.83301 116.5 -23.5s38.5 -37.834 38.5 -66.501zM136.001 298.008c0 13.333 5.99902 28.668 17.999 46.001
s27.667 34.666 47 51.999s39.333 32.5 60 45.5s39 21.833 55 26.5h2l2 1c0.666992 0 1.33398 -0.333008 2.00098 -1c0 -1.33301 -1.33301 -3.33301 -4 -6c-26 -28.667 -51.167 -60 -75.5 -94s-46.833 -68.667 -67.5 -104l-1 -1c0 -1.33301 -0.333008 -2 -1 -2
c-2 0 -4.33301 0.333008 -7 1c-20 6.66699 -30 18.667 -30 36z" />
    <glyph glyph-name="P" unicode="P" horiz-adv-x="676" 
d="M814 453c0 21.333 -4.66992 41.834 -14.0029 61.501s-22 36.167 -38 49.5c-18.667 16 -43.167 27.5 -73.5 34.5s-65.166 10.5 -104.499 10.5c-27.333 0 -56.5 -1.5 -87.5 -4.5s-60 -6.66699 -87 -11s-53.167 -9 -78.5 -14l-81 -16.5c-40.667 -8.66699 -64 -13 -70 -13
c-2 0 -3 0.666992 -3 2c0 0.666992 1.66699 2.33398 5 5.00098c3.33301 2 5 3.33301 5 4c-5.33301 0 -13.5 -3.16699 -24.5 -9.5s-16.5 -13.166 -16.5 -20.499c0 -8 7.66699 -15.667 23 -23c4 -1.33301 8 -2 12 -2c10 0 24.833 2 44.5 6s45.167 10 76.5 18
c62 15.333 116.167 27.333 162.5 36s89.833 13 130.5 13c35.333 0 65.333 -4.16699 90 -12.5s43.667 -21.833 57 -40.5c12 -16.667 18 -34.334 18 -53.001c0 -24.667 -10.333 -50.167 -31 -76.5s-48.167 -51.333 -82.5 -75s-72.166 -45 -113.499 -64s-82 -34.5 -122 -46.5
c-21.333 -6.66699 -32 -12.667 -32 -18c0 -3.33301 5 -8 15 -14c8 -4.66699 20 -7 36 -7c10.667 0 24.5 1.33301 41.5 4s33.833 6.66699 50.5 12c50.667 16 94.834 34.5 132.501 55.5s68.167 43.167 91.5 66.5s40.5 47.166 51.5 71.499s16.5 48.166 16.5 71.499z
M482.997 494.001c0 14.667 -5 29.3291 -15 43.9961c-2 3.33301 -3.66699 5 -5 5c-2 0 -3 -2 -3 -6c0 -3.33301 1 -6 3 -8c1.33301 -1.33301 2 -4 2 -8c0 -10.667 -8 -27.667 -24 -51s-41.333 -57.666 -76 -102.999l-44 -58c-22 -28.667 -41 -54.667 -57 -78
s-30.667 -46.666 -44 -69.999s-24 -45.666 -32 -66.999s-12 -40.333 -12 -57c0 -32.667 15.333 -55 46 -67c2.66699 -1.33301 6.33398 -2 11.001 -2c5.33301 0 8 2 8 6c0 4.66699 -4.33301 8 -13 10c-5.33301 1.33301 -8 5 -8 11c0 17.333 13.667 50.833 41 100.5
s64.666 109.834 111.999 180.501c38 56 65.833 100.333 83.5 133s26.5 61 26.5 85z" />
    <glyph glyph-name="Q" unicode="Q" horiz-adv-x="727" 
d="M817 -107c0 10.667 -6.16406 19.8379 -18.4971 27.5049s-28.833 15.5 -49.5 23.5l-2 1c-56.667 21.333 -142.334 43 -257.001 65c30.667 16 63 37.167 97 63.5s66 56 96 89s54.167 67.5 72.5 103.5s27.5 71 27.5 105c0 12 -1 23.333 -3 34
c-4 18.667 -12.667 36.834 -26 54.501s-29.833 33.167 -49.5 46.5s-40.667 23.666 -63 30.999s-44.166 11 -65.499 11c-14.667 0 -29 -2 -43 -6c-0.666992 9.33301 -4.33398 17.5 -11.001 24.5s-14.667 12.5 -24 16.5c-0.666992 0 -1.66699 0.333008 -3 1h-4
c-8.66699 0 -21 -4 -37 -12s-31.667 -17.333 -47 -28c-44 -29.333 -85.333 -63.666 -124 -102.999s-72.334 -80.5 -101.001 -123.5s-51 -84.833 -67 -125.5s-24 -77.334 -24 -110.001c0 -16.667 1.66699 -30.334 5 -41.001c-19.333 -2.66699 -35 -6.33398 -47 -11.001
s-19.667 -11.334 -23 -20.001c-1.33301 -4 -2 -6.66699 -2 -8c0 -8 5 -12 15 -12c9.33301 0 15.333 3.33301 18 10c2 4.66699 7 8 15 10s19.667 4 35 6c11.333 -24 30.5 -43.167 57.5 -57.5s55.5 -21.5 85.5 -21.5c24 0 51.5 3.66699 82.5 11s59.5 16.666 85.5 27.999
c39.333 -8.66699 78.166 -18.334 116.499 -29.001s73.5 -21.667 105.5 -33s57.5 -22.333 76.5 -33s28.5 -20.334 28.5 -29.001c0 -7.33301 -9.33301 -14 -28 -20c-4.66699 -1.33301 -7 -3.66602 -7 -6.99902s4 -5 12 -5c17.333 0 32 4 44 12s25.667 20.667 41 38
c6.66699 7.33301 10 15 10 23zM716.003 399.004c0 -44.667 -21.6699 -97.668 -65.0029 -159.001s-107.666 -123.666 -192.999 -186.999c-6.66699 -5.33301 -13.167 -9.83301 -19.5 -13.5l-22.5 -13.5l-7 -4c-36.667 6.66699 -78.667 12.334 -126 17.001
c-38.667 4 -82.667 6 -132 6c0 17.333 1.5 32.666 4.5 45.999s7.5 28.333 13.5 45c27.333 70.667 62 131.834 104 183.501s93 100.834 153 147.501c4.66699 3.33301 10.334 6.16602 17.001 8.49902s17.334 5.5 32.001 9.5c12 2.66699 20 4.66699 24 6
c32.667 8.66699 62.667 13 90 13c40 0 71.167 -9.33301 93.5 -28s33.5 -44.334 33.5 -77.001zM338 -8.99707c-30.667 -12 -67.334 -18 -110.001 -18c-12 0 -25.167 4 -39.5 12s-24.5 18 -30.5 30c27.333 -2 56 -5 86 -9c4.66699 -0.666992 13.334 -2 26.001 -4
c28 -4 50.667 -7.66699 68 -11z" />
    <glyph glyph-name="R" unicode="R" horiz-adv-x="651" 
d="M838 467c0 22 -9.66504 45.668 -28.998 71.001c-16 21.333 -50.833 38.166 -104.5 50.499s-114.834 18.5 -183.501 18.5c-47.333 0 -94 -3.16699 -140 -9.5s-87.5 -16.166 -124.5 -29.499s-66.667 -30.166 -89 -50.499s-33.5 -44.166 -33.5 -71.499
c0 -4.66699 3.66699 -7 11 -7c1.33301 0 2.66602 0.666992 3.99902 2c21.333 22.667 47 42.167 77 58.5s62 29.666 96 39.999s69 17.833 105 22.5s72 7 108 7c61.333 0 114 -5.66699 158 -17c52.667 -14 79 -31.667 79 -53c0 -12 -7.83301 -25 -23.5 -39
s-36.167 -28 -61.5 -42s-52.5 -27.667 -81.5 -41l-107.5 -48c-44.667 -19.333 -79 -34.666 -103 -45.999s-43 -21.666 -57 -30.999c-25.333 -16.667 -47 -37.834 -65 -63.501s-27 -51.167 -27 -76.5c0 -28 13 -52.167 39 -72.5s68.333 -34.833 127 -43.5
c62.667 -9.33301 113.667 -14 153 -14c34 0 51 5.33301 51 16c0 1.33301 -9 2.66602 -27 3.99902l-74.5 9c-27 3.33301 -57.833 7.66602 -92.5 12.999c-92.667 14.667 -139 39 -139 73c0 24.667 26.333 53.167 79 85.5s128 66.166 226 101.499
c84.667 30.667 147.5 60.5 188.5 89.5s61.5 60.167 61.5 93.5zM375.002 482.001c0 13.333 -3 24.334 -9 33.001c-0.666992 2 -2 3 -4 3c-3.33301 0 -5 -2.66699 -5 -8c0 -0.666992 0.666992 -2 2 -4c0.666992 -2.66699 1 -4.33398 1 -5.00098
c0 -9.33301 -6.83301 -23.5 -20.5 -42.5s-36.834 -48.5 -69.501 -88.5l-56 -70c-37.333 -48 -67.166 -92.333 -89.499 -133s-33.5 -77.334 -33.5 -110.001c0 -31.333 11.667 -56.666 35 -75.999c1.33301 -1.33301 2.33301 -2 3 -2c5.33301 0 8 2.33301 8 7
c0 3.33301 -2.33301 5 -7 5c-4 0 -6 3.33301 -6 10c0 16.667 13.167 49 39.5 97s61.833 104.333 106.5 169c34 50 60 92.667 78 128s27 64.333 27 87z" />
    <glyph glyph-name="S" unicode="S" horiz-adv-x="526" 
d="M632 526c0 24.667 -4.00488 45.3311 -12.0049 61.998c-4 8 -8.16699 13.833 -12.5 17.5s-10.833 5.5 -19.5 5.5c-52 -4 -106.5 -15 -163.5 -33s-109.5 -40.333 -157.5 -67s-86.667 -55.5 -116 -86.5s-44 -60.5 -44 -88.5c0 -10 2 -19.667 6 -29
c12 -30 49.333 -45 112 -45c18.667 0 33.334 0.666992 44.001 2c21.333 2 40.666 3 57.999 3c44.667 0 78 -5.66699 100 -17s33 -26 33 -44c0 -17.333 -8.66699 -36.333 -26 -57s-41 -41.167 -71 -61.5s-64 -38.166 -102 -53.499s-77.333 -26.333 -118 -33
c-2.66699 -0.666992 -8 -1 -16 -1c-12.667 -0.666992 -19 -4 -19 -10c0 -4.66699 3 -13 9 -25c3.33301 -8 9.5 -15.167 18.5 -21.5s22.5 -9.5 40.5 -9.5c22.667 0 50.334 6.33301 83.001 19c80.667 31.333 142.834 67.5 186.501 108.5s65.5 82.167 65.5 123.5
c0 8.66699 -1 17.334 -3 26.001c-4 18 -12.5 32.833 -25.5 44.5s-28.667 20.5 -47 26.5s-37.666 10 -57.999 12s-42.166 3 -65.499 3h-35c-16.667 -0.666992 -26 -1 -28 -1c-16 0 -28 1 -36 3c-29.333 7.33301 -44 19 -44 35s14.333 34.333 43 55s65 40.667 109 60
s87.833 35.166 131.5 47.499s78.834 18.5 105.501 18.5c29.333 0 44 -7.66699 44 -23c0 -9.33301 -5.33301 -21.333 -16 -36c-4 -4.66699 -6 -8.66699 -6 -12c0 -4.66699 3.33301 -7 10 -7s12 1.66699 16 5c8 6.66699 14.333 17.834 19 33.501s7 32.5 7 50.5z" />
    <glyph glyph-name="T" unicode="T" horiz-adv-x="461" 
d="M858 606c0 3.33301 -0.664062 4.99805 -1.99707 4.99805c-2 0 -6 -3.33301 -12 -10c-6 -7.33301 -16.833 -13.5 -32.5 -18.5s-35.334 -8.83301 -59.001 -11.5s-46.667 -4.5 -69 -5.5s-58.5 -2.5 -108.5 -4.5l-57 -2c-56.667 -2.66699 -106.834 -6.16699 -150.501 -10.5
s-84 -11.166 -121 -20.499s-67 -22.666 -90 -39.999s-35.5 -39.333 -37.5 -66c0 -21.333 4.83301 -36.666 14.5 -45.999s22.167 -16 37.5 -20c0 0.666992 -1 2 -3 4c-4.66699 4.66699 -8.83398 10.167 -12.501 16.5s-5.5 14.833 -5.5 25.5c0 8 0.666992 14.667 2 20
c6.66699 29.333 36.667 50.333 90 63c23.333 5.33301 51 9.33301 83 12s68 4 108 4c36 0 74.833 -1 116.5 -3s91.834 -4.66699 150.501 -8c12 -0.666992 21 -1.33398 27 -2.00098c20 0 38.167 4.66699 54.5 14s30.166 21 41.499 35s20 27.5 26 40.5s9 22.5 9 28.5z
M488.003 422.998c-0.666992 12 -2 20.501 -4 25.501s-4.33301 7.5 -7 7.5c-4 0 -6 -5 -6 -15c0 -2.66699 -5.33301 -11.5 -16 -26.5l-47 -64.5l-73.5 -99.5c-20.333 -28.333 -36.5 -53.166 -48.5 -74.499c-16.667 -28.667 -28.5 -54.834 -35.5 -78.501
s-10.5 -44.834 -10.5 -63.501s3 -34.334 9 -47.001s14.333 -26.334 25 -41.001l1 -1c3.33301 -3.33301 6 -5 8 -5c3.33301 0 5 6.66699 5 20c0 18 5.5 41.333 16.5 70s25.833 62 44.5 100l57 109c28 50.667 48.667 90.334 62 119.001s20 50.334 20 65.001z" />
    <glyph glyph-name="U" unicode="U" horiz-adv-x="706" 
d="M802 456c0 12 -3.1709 21.0049 -9.50391 27.0049s-13.833 9 -22.5 9c-13.333 0 -21 -4 -23 -12c-6 -20 -20.667 -45.5 -44 -76.5s-53.166 -64.833 -89.499 -101.5s-78 -73.834 -125 -111.501s-95.5 -72.5 -145.5 -104.5c-11.333 -6.66699 -22.666 -12.667 -33.999 -18
s-20.333 -8 -27 -8c-8.66699 0 -13 4.66699 -13 14c0 10.667 5.83301 28 17.5 52s31.5 57.667 59.5 101c49.333 76 85.333 139.333 108 190s34 90.667 34 120c0 22 -5.83301 38.667 -17.5 50s-28.5 18.666 -50.5 21.999c-12 1.33301 -21.667 2 -29 2
c-24 0 -49.833 -3 -77.5 -9s-53.667 -14.167 -78 -24.5s-44 -21.5 -59 -33.5s-22.5 -23.333 -22.5 -34c0 -2 0.666992 -5 2 -9c6.66699 -14.667 16.667 -22 30 -22c7.33301 0 16.333 3 27 9c-1.33301 2 -4 3 -8 3c-6 0 -9 1.33301 -9 4s1.33301 5.66699 4 9
c17.333 24 42.5 43.333 75.5 58s65.5 22 97.5 22c11.333 0 22 -1 32 -3c19.333 -4.66699 29 -17.334 29 -38.001c0 -14.667 -4.66699 -33.334 -14 -56.001s-22.166 -48.167 -38.499 -76.5s-33.833 -57.166 -52.5 -86.499l-80 -122c-2.66699 -4.66699 -12.667 -20 -30 -46
c-33.333 -50.667 -50 -94.334 -50 -131.001c0 -28 10.333 -46 31 -54c6 -2 12 -3 18 -3c16 0 33.5 5.5 52.5 16.5s45.833 29.5 80.5 55.5c33.333 24.667 66.166 50.667 98.499 78l107.5 94c30.667 27.333 52.667 46.333 66 57s22 16 26 16c2 0 3 -1 3 -3
c0 -2.66699 -2.66699 -9.33398 -8 -20.001c-30.667 -60 -54.667 -111.667 -72 -155s-26 -78 -26 -104c0 -16.667 4 -29 12 -37c6.66699 -6.66699 15.334 -10 26.001 -10c12.667 0 26.334 4.83301 41.001 14.5s29 24.834 43 45.501l2 3c2.66699 3.33301 4 6 4 8
c-0.666992 0 -4.33398 -2.33301 -11.001 -7c-7.33301 -6 -13.666 -10.667 -18.999 -14s-10 -5 -14 -5c-4.66699 0 -7 3.66699 -7 11v2v3c2 17.333 7.16699 38.166 15.5 62.499s19 51.333 32 81l40 87.5l49.5 103l31 62c7.33301 14.667 11 29 11 43z" />
    <glyph glyph-name="V" unicode="V" horiz-adv-x="615" 
d="M460 474c0 23.333 -5.66699 41.999 -17 55.999c-18.667 23.333 -49.667 35 -93 35c-20 0 -41.5 -2.33301 -64.5 -7s-45 -10.5 -66 -17.5s-40.667 -14.5 -59 -22.5s-32.833 -15.667 -43.5 -23c-7.33301 -4.66699 -11 -10.667 -11 -18c0 -6.66699 3.33301 -12.667 10 -18
s15.334 -8 26.001 -8c8.66699 0 17.334 2 26.001 6c4.66699 2 7 3.66699 7 5c0 0.666992 -4.33301 1 -13 1c-5.33301 0 -8 0.666992 -8 2s3 4 9 8c13.333 8 28.5 15.833 45.5 23.5s34.667 14.667 53 21s35.666 11.333 51.999 15s31.166 5.5 44.499 5.5
c12 0 22.333 -1.66699 31 -5c12 -4.66699 18 -16.334 18 -35.001c0 -22.667 -7.5 -52.834 -22.5 -90.501s-36.833 -86.834 -65.5 -147.501c-22.667 -48.667 -39.834 -86.834 -51.501 -114.501s-19.834 -51.834 -24.501 -72.501c-1.33301 -4.66699 -2 -11 -2 -19
c0 -25.333 9.33301 -46.666 28 -63.999s38.667 -26 60 -26c14.667 0 26.667 4.33301 36 13c19.333 18 43 44.333 71 79l110 142l123 158c27.333 34.667 54 66.334 80 95.001s50.833 54 74.5 76s45.834 39.167 66.501 51.5s38.667 18.5 54 18.5
c11.333 0 21.333 -3.33301 30 -10c6 -4.66699 9 -12 9 -22c0 -6 0.666992 -10.333 2 -13c4.66699 -6.66699 10.334 -10 17.001 -10c8 0 12 4 12 12c0 2 -0.666992 5 -2 9c-8.66699 22.667 -20 39.5 -34 50.5s-29.667 16.5 -47 16.5c-20 0 -42.167 -6.16699 -66.5 -18.5
s-49.666 -29.166 -75.999 -50.499s-53.166 -45.666 -80.499 -72.999s-56.666 -58.333 -87.999 -93l-70 -81l-84 -101c-48.667 -58 -84.334 -99.5 -107.001 -124.5s-38.334 -37.5 -47.001 -37.5c-2 0 -3.66699 0.666992 -5 2c-2.66699 2.66699 -4 7 -4 13
c0 12.667 4.66699 29.834 14 51.501s24.666 52.834 45.999 93.501l38 76.5c9.33301 19.667 18.833 41 28.5 64s17.167 44.833 22.5 65.5s8 39.667 8 57z" />
    <glyph glyph-name="W" unicode="W" horiz-adv-x="894" 
d="M1323 585c0 10 -5.00098 19.165 -15.001 27.498s-26 12.5 -48 12.5c-69.333 -3.33301 -150.5 -44.833 -243.5 -124.5s-194.167 -199.5 -303.5 -359.5c-5.33301 -8 -11 -15.667 -17 -23s-10.333 -11 -13 -11s-4 3.33301 -4 10c0 18.667 4.16699 41.5 12.5 68.5
s21.166 63.167 38.499 108.5c16.667 46 29.334 82.833 38.001 110.5s13 51.167 13 70.5c0 14 -3 24.833 -9 32.5s-15.333 11.5 -28 11.5c-6 0 -13.667 -1 -23 -3c-13.333 -2.66699 -30.666 -10.667 -51.999 -24s-44.333 -29.833 -69 -49.5l-72.5 -60.5l-75.5 -66l-62 -55.5
c-12 -10.333 -19.667 -15.5 -23 -15.5c-0.666992 0 -1 0.333008 -1 1c0 1.33301 1 4 3 8l38 64c24.667 40 42.834 72.667 54.501 98s17.5 49.333 17.5 72c0 10.667 -1.33301 20 -4 28c-5.33301 18.667 -16.833 32.334 -34.5 41.001s-39.834 13 -66.501 13
c-24 0 -49.667 -3.16699 -77 -9.5s-52.833 -14.833 -76.5 -25.5s-42.834 -22.167 -57.501 -34.5s-22 -24.166 -22 -35.499c0 -4.66699 2 -9.66699 6 -15c4 -4.66699 9.66699 -7 17 -7c5.33301 0 10.333 1 15 3s7 4.33301 7 7c0 8 6.33301 17 19 27s29.334 19.667 50.001 29
s42.334 17 65.001 23s43 9 61 9c27.333 0 45 -6.33301 53 -19c4 -6 6 -12.667 6 -20c0 -18.667 -9 -42.5 -27 -71.5s-45.333 -69.167 -82 -120.5c-26 -34.667 -46.5 -62.834 -61.5 -84.501s-29.5 -44.667 -43.5 -69s-25.167 -47.666 -33.5 -69.999
s-12.5 -42.833 -12.5 -61.5c0 -18 4 -33.333 12 -46c2.66699 -4.66699 6.33398 -7 11.001 -7c5.33301 0 10.666 2.5 15.999 7.5s10.666 11.5 15.999 19.5c44.667 65.333 93 126.666 145 183.999s101.5 107 148.5 149s87.667 75 122 99s56.5 36 66.5 36
c3.33301 0 5 -1.33301 5 -4v-2c-0.666992 -0.666992 -1 -1.33398 -1 -2.00098c-12.667 -30.667 -30.667 -72 -54 -124c-27.333 -62.667 -47 -111.167 -59 -145.5s-18 -68.166 -18 -101.499c0 -18.667 1.66699 -34.667 5 -48c3.33301 -15.333 10.833 -31 22.5 -47
s25.167 -24 40.5 -24c12 0 25.5 6.33301 40.5 19s30.167 32.334 45.5 59.001c62 106 120.667 195 176 267s104.833 127.667 148.5 167s81.5 66.833 113.5 82.5s59.333 23.5 82 23.5c20.667 0 34 -5 40 -15c3.33301 -4 6 -6 8 -6c7.33301 0 11 6.33301 11 19z" />
    <glyph glyph-name="X" unicode="X" horiz-adv-x="507" 
d="M738 551c0 9.33301 -1.83301 18.335 -5.5 27.002s-8.16699 15.667 -13.5 21c-2.66699 2.66699 -7.33398 4 -14.001 4c-16.667 0 -32.667 -9 -48 -27c-2.66699 -2.66699 -4 -4.66699 -4 -6s1 -2 3 -2c0.666992 0 2.33398 0.333008 5.00098 1h5c3.33301 0 5 -1 5 -3
s-2 -5.66699 -6 -11s-12.667 -13.166 -26 -23.499s-28.5 -21.5 -45.5 -33.5l-127.5 -86l-63 -43c-16.667 -11.333 -29 -20 -37 -26c-4.66699 -3.33301 -7.66699 -5 -9 -5s-2.33301 2.66699 -3 8l-4 28c-3.33301 25.333 -6.83301 48.166 -10.5 68.499
s-8.16699 39.666 -13.5 57.999s-11.833 33.5 -19.5 45.5s-16.834 18 -27.501 18c-20.667 -2 -38.834 -9.33301 -54.501 -22s-33.5 -30.334 -53.5 -53.001c-3.33301 -4 -6 -7 -8 -9c-2.66699 -2.66699 -4 -6.66699 -4 -12c0 -10 2.66699 -15 8 -15
c4.66699 0 9.66699 4.66699 15 14c8.66699 13.333 17.334 20 26.001 20c14.667 0 28.167 -16.5 40.5 -49.5s21.833 -78.833 28.5 -137.5v-6l1 -5c0 -8 -2.33301 -13.667 -7 -17l-114.5 -96.5c-30.333 -26.333 -58.333 -53.333 -84 -81s-46 -54.667 -61 -81
s-22.833 -51.833 -23.5 -76.5c0 -21.333 3.66699 -32 11 -32c4 0 6.66699 2.66699 8 8s2 15.666 2 30.999c0 10 9.66699 26.5 29 49.5s43.833 48.5 73.5 76.5s59.834 54.5 90.501 79.5s56.334 44.167 77.001 57.5l2 1h1c4.66699 0 8 -4.66699 10 -14
c13.333 -80 29.833 -139.333 49.5 -178s44.5 -58 74.5 -58c10 0 22 2.66699 36 8c9.33301 3.33301 17.333 11.833 24 25.5s10 24.5 10 32.5c0 3.33301 -0.666992 5 -2 5c-3.33301 0 -8.66602 -5.66699 -15.999 -17c-8 -12.667 -16.333 -19 -25 -19
c-16.667 0 -32.5 22.833 -47.5 68.5s-24.833 106.167 -29.5 181.5c0 10.667 1 18.834 3 24.501s5 10.834 9 15.501c5.33301 5.33301 14.166 12.666 26.499 21.999s27.666 20 45.999 32l44 28.5l78.5 49.5l115.5 73.5c23.667 15.667 37.5 26.5 41.5 32.5c5.33301 8 8 18 8 30
z" />
    <glyph glyph-name="Y" unicode="Y" horiz-adv-x="752" 
d="M803 174c0 2.66699 -1.66699 4.00098 -5 4.00098c-2.66699 0 -5 -0.666992 -7 -2c-4 -2.66699 -14 -8 -30 -16l-71 -40c-0.666992 0 -1.33398 -0.333008 -2.00098 -1h-2c-2 0 -3 1.33301 -3 4s0.666992 5.33398 2 8.00098c23.333 43.333 41 83.5 53 120.5
s18 68.5 18 94.5c0 24 -4.66699 42 -14 54c-6 6.66699 -13.667 10 -23 10c-12 0 -27 -4.83301 -45 -14.5s-37.667 -22.834 -59 -39.501s-42.666 -34.334 -63.999 -53.001l-85 -76l-121 -106.5c-32 -27 -61 -48.5 -87 -64.5c-12.667 -8.66699 -23.667 -13 -33 -13
s-14 4.66699 -14 14c0 12 8 31 24 57c16 26.667 34.333 53.334 55 80.001l80 99c49.333 60 86 107.833 110 143.5s36 66.834 36 93.501c0 14 -4 26.333 -12 37c-11.333 15.333 -32.333 23 -63 23c-17.333 0 -37.166 -2.33301 -59.499 -7s-45.166 -10.834 -68.499 -18.501
s-45.833 -15.834 -67.5 -24.501s-41.834 -17.334 -60.501 -26.001c-2.66699 -1.33301 -4.33398 -2 -5.00098 -2c-2 0 -3 1.33301 -3 4c0 1.33301 0.666992 3 2 5c0.666992 2 1 3.66699 1 5c0 2 -1 3 -3 3s-8 -3.66699 -18 -11c-6 -4.66699 -9 -11.667 -9 -21
c0 -8.66699 2.66699 -16.5 8 -23.5s13 -10.5 23 -10.5c6.66699 0 16.667 2.83301 30 8.5s32.666 14.834 57.999 27.501c42 21.333 76.833 37.5 104.5 48.5s51.5 16.5 71.5 16.5c18 -0.666992 27 -7.33398 27 -20.001c0 -13.333 -9.83301 -32.333 -29.5 -57
s-50.5 -59.667 -92.5 -105l-79.5 -87.5c-20.333 -23 -40.166 -47.5 -59.499 -73.5s-34.833 -51.167 -46.5 -75.5s-17.5 -46.166 -17.5 -65.499c0 -10 2 -19.667 6 -29c8 -18.667 17.833 -33.834 29.5 -45.501s26.834 -17.5 45.501 -17.5c6 0 13 1 21 3
c15.333 4 33.5 13.167 54.5 27.5s44 32.333 69 54s49.667 44.167 74 67.5l85.5 84l83.5 81c22.333 21.333 41.833 38.666 58.5 51.999c7.33301 5.33301 13.333 8 18 8c9.33301 0 14 -9.33301 14 -28c0 -28 -9.83301 -66.333 -29.5 -115s-45.167 -93 -76.5 -133
c-6.66699 -8.66699 -12.5 -15.167 -17.5 -19.5s-11.167 -9.16602 -18.5 -14.499l-11 -8c-22 -16 -47.167 -37 -75.5 -63s-56 -53.167 -83 -81.5s-48.833 -54.333 -65.5 -78s-25 -41.834 -25 -54.501c0 -15.333 3 -26.333 9 -33s14 -10 24 -10c15.333 0 29.333 4.33301 42 13
c13.333 8.66699 29.666 22.334 48.999 41.001s40.333 41.5 63 68.5s46 57 70 90s47.333 68.5 70 106.5c4.66699 8.66699 13.334 17.334 26.001 26.001l78 54c25.333 16.667 44.666 28.667 57.999 36c6.66699 4 10 8 10 12z" />
    <glyph glyph-name="Z" unicode="Z" horiz-adv-x="621" 
d="M706 544c0 22.667 -9.00293 37.667 -27.0029 45c-13.333 5.33301 -35 8 -65 8c-25.333 0 -53.833 -1.66699 -85.5 -5s-71.5 -8 -119.5 -14c-34.667 -4.66699 -62.167 -8 -82.5 -10s-36.5 -3 -48.5 -3c-17.333 0 -26 2.33301 -26 7c0 2 1 4 3 6l2 2
c4.66699 4 7 6.66699 7 8c0 2 -2 3 -6 3c-6 0 -15 -1.66699 -27 -5c-12.667 -4 -19 -14 -19 -30c0 -17.333 6.16699 -35.333 18.5 -54s26.5 -28 42.5 -28c22 0 48.833 2.83301 80.5 8.5s70.834 13.834 117.501 24.501l76 16.5c20 4.33301 37.333 7.16602 52 8.49902
c10.667 0 17.834 -0.833008 21.501 -2.5s5.5 -4.16699 5.5 -7.5c0 -10 -8.66699 -20.667 -26 -32l-151 -107l-160.5 -119.5c-52.333 -40.333 -98.166 -77.166 -137.499 -110.499s-65 -58.333 -77 -75c-10 -14 -15 -30 -15 -48c0 -21.333 5.83301 -40.833 17.5 -58.5
s25.167 -26.5 40.5 -26.5c2 0 5.66699 0.666992 11 2c28 9.33301 59 18.5 93 27.5s69 17.5 105 25.5s70 14.333 102 19s59 7 81 7c9.33301 0 19 -0.666992 29 -2h1c14.667 -2.66699 22 -5.66699 22 -9c0 -1.33301 -0.666992 -2.66602 -2 -3.99902
c-1.33301 -2 -2 -3.66699 -2 -5c0 -3.33301 4 -5 12 -5c9.33301 0 16.333 5.5 21 16.5s7 22.833 7 35.5c0 8 -1 13.333 -3 16c-4 6.66699 -14.833 11.667 -32.5 15s-39.5 5 -65.5 5c-24 0 -49.833 -1.16699 -77.5 -3.5s-55.334 -5.33301 -83.001 -9
s-55.667 -8.33398 -84 -14.001s-53.166 -11.5 -74.499 -17.5c-19.333 -5.33301 -33 -8 -41 -8c-10 0 -15 3 -15 9c0 10.667 13.667 27.667 41 51c26.667 23.333 56.334 47.833 89.001 73.5l97 73.5l89.5 63.5l100.5 68.5l97.5 68c20.333 14.667 34.833 26 43.5 34
c7.33301 7.33301 13.666 17.166 18.999 29.499s8 24.5 8 36.5z" />
    <glyph glyph-name="bracketleft" unicode="[" horiz-adv-x="269" 
d="M375 655h-150l-198 -775h152l9 40h-110l181 695h106z" />
    <glyph glyph-name="backslash" unicode="\" horiz-adv-x="533" 
d="M490 -108l-333 742l-27 -11l333 -742z" />
    <glyph glyph-name="bracketright" unicode="]" horiz-adv-x="269" 
d="M345 656h-153l-10 -40h111l-182 -696h-106l-11 -40h151z" />
    <glyph glyph-name="asciicircum" unicode="^" 
d="M313 426c-23.333 0 -50.002 -12 -80.002 -36s-70.333 -61.333 -121 -112c-4 -4 -6 -7.66699 -6 -11c0 -6 2.33301 -9 7 -9c6.66699 0 12.334 2 17.001 6l29 23c42.667 34.667 73.834 58.5 93.501 71.5s36.834 19.5 51.501 19.5c15.333 0 30.666 -8.33301 45.999 -25
s33.333 -44 54 -82c4.66699 -8.66699 10 -13 16 -13c5.33301 0 8 3.66699 8 11c0 2.66699 -0.666992 5.66699 -2 9l-1 2c-23.333 57.333 -41.833 96 -55.5 116s-32.5 30 -56.5 30z" />
    <glyph glyph-name="underscore" unicode="_" horiz-adv-x="500" 
d="M500 -120v40h-500v-40h500z" />
    <glyph glyph-name="grave" unicode="`" horiz-adv-x="241" 
d="M321 370c0 2 -1.33203 4.00098 -3.99902 6.00098c-6 5.33301 -14.333 12.166 -25 20.499l-37.5 28.5l-38 27.5l-22.5 15.5c-2 1.33301 -4.66699 2 -8 2c-4.66699 0 -8.83398 -2.66699 -12.501 -8s-5.5 -10.333 -5.5 -15c0 -6 3 -10.667 9 -14
c11.333 -4.66699 28.833 -12.667 52.5 -24l81.5 -40l3 -1l3 -1c2.66699 0 4 1 4 3z" />
    <glyph glyph-name="a" unicode="a" horiz-adv-x="365" 
d="M458 156c0 3.33301 -1.66797 5.00195 -5.00098 5.00195c-4 0 -8.66699 -2.66699 -14 -8c-40 -43.333 -74.5 -77 -103.5 -101s-48.833 -36 -59.5 -36c-5.33301 0 -8 2.66699 -8 8l1 2v4c4 18 12 39.333 24 64s25 48 39 70c4 7.33301 6 14.666 6 21.999
c0 8.66699 -2.33301 16.167 -7 22.5s-11 9.5 -19 9.5c-3.33301 0 -7.66602 -1 -12.999 -3c-8.66699 -3.33301 -22 -13 -40 -29l-78 -71l-49.5 -46.5c-11 -10.333 -20.833 -18.833 -29.5 -25.5c-19.333 -15.333 -32 -23 -38 -23c-4 0 -6 2.66699 -6 8
c0 6.66699 1.66699 13.667 5 21c13.333 31.333 30.833 60.833 52.5 88.5s44.5 51.667 68.5 72s46.833 36.166 68.5 47.499s39.5 17 53.5 17c8.66699 0 15.334 -3.33301 20.001 -10c4.66699 -7.33301 9 -11 13 -11c6.66699 0 10 3.66699 10 11v3c-0.666992 2 -1 3.33301 -1 4
c-5.33301 20.667 -13 35.5 -23 44.5s-21.667 13.5 -35 13.5c-10.667 0 -22.334 -2.66699 -35.001 -8c-21.333 -9.33301 -43.666 -23.166 -66.999 -41.499s-46.333 -39.333 -69 -63s-43.834 -49.334 -63.501 -77.001s-36.5 -55.5 -50.5 -83.5
c-3.33301 -6.66699 -5 -13.334 -5 -20.001c0 -14 5.5 -27.167 16.5 -39.5s23.5 -18.5 37.5 -18.5c9.33301 0 18.333 3 27 9c16.667 11.333 34.667 26.333 54 45s41.666 41.667 66.999 69c25.333 28 43 46.333 53 55l2 1l2 1c2.66699 0 4 -1.66699 4 -5
c0 -1.33301 -0.666992 -3.33301 -2 -6c-25.333 -45.333 -38 -83 -38 -113c0 -31.333 12.333 -47 37 -47c10 0 20 2.33301 30 7c9.33301 4 21.833 12.167 37.5 24.5s32.334 26.833 50.001 43.5s33.667 32.834 48 48.501s24.5 28.5 30.5 38.5c1.33301 2 2 4.33301 2 7z" />
    <glyph glyph-name="b" unicode="b" horiz-adv-x="374" 
d="M377 243c0 20.667 -8.66602 39.3369 -25.999 56.0039c-10.667 10 -25 15 -43 15c-18.667 0 -40.5 -5.5 -65.5 -16.5s-51.5 -26.167 -79.5 -45.5l-2 -1h-1c-0.666992 0 -1 0.666992 -1 2v2c0.666992 1.33301 1 2.33301 1 3l53 68l73 94
c17.333 23.333 30.666 44.666 39.999 63.999c6 13.333 9 25 9 35c0 12 -3 22.333 -9 31s-13.667 15 -23 19h-2l-1 1c-3.33301 0 -5 -1.66699 -5 -5c0 -2 1 -4.33301 3 -7c1.33301 -2 2 -3.33301 2 -4c0 -6.66699 -6 -19 -18 -37l-58 -83l-72.5 -102.5
c-20.333 -29.667 -40.166 -60.834 -59.499 -93.501s-35 -64.167 -47 -94.5s-18 -57.5 -18 -81.5c0 -26 7.33301 -46 22 -60l2 -1c6.66699 -4 10 -8 10 -12c0.666992 -7.33301 2.66699 -12 6 -14s8.66602 -3 15.999 -3c11.333 0 33.333 9 66 27s66.5 40.667 101.5 68
s64.833 56.666 89.5 87.999s37 60.666 37 87.999zM345.001 259.003c0 -6 -1.66504 -12.998 -4.99805 -20.998c-10.667 -22.667 -29.5 -45.334 -56.5 -68.001s-63.5 -50.334 -109.5 -83.001c-29.333 -20 -51.5 -36 -66.5 -48s-26.167 -22.667 -33.5 -32c-2 0 -4.66699 2 -8 6
s-5 8.33301 -5 13c1.33301 22 7.66602 45.5 18.999 70.5s26.833 49.833 46.5 74.5s42.667 46.667 69 66s55.166 34.333 86.499 45c10 3.33301 20 5 30 5c22 0 33 -9.33301 33 -28z" />
    <glyph glyph-name="c" unicode="c" horiz-adv-x="288" 
d="M385 151c0 5.33301 -3.33203 7.99805 -9.99902 7.99805c-2.66699 0 -4.66699 -0.666992 -6 -2c-21.333 -20 -45.333 -39.333 -72 -58s-53.167 -35.167 -79.5 -49.5s-50.666 -25.666 -72.999 -33.999s-40.5 -12.5 -54.5 -12.5c-8.66699 0 -15.5 1.83301 -20.5 5.5
s-7.5 9.5 -7.5 17.5c0 28.667 14.5 64.167 43.5 106.5s68.833 83.166 119.5 122.499c7.33301 6.66699 14.666 10 21.999 10c10 0 15 -6.33301 15 -19c0 -3.33301 -1 -8.33301 -3 -15c0 -1.33301 -0.333008 -3 -1 -5v-3c-0.666992 -1.33301 -1 -2.33301 -1 -3
c0 -8 3.66699 -12 11 -12c2.66699 0 5.33398 1 8.00098 3c16.667 12.667 25 26.334 25 41.001c0 8.66699 -2.33301 17.334 -7 26.001s-11.334 19 -20.001 31c-0.666992 0.666992 -1.33398 1.66699 -2.00098 3c-8 11.333 -17.667 17 -29 17c-13.333 0 -28 -6.33301 -44 -19
c-24.667 -19.333 -47.834 -40 -69.501 -62s-40.834 -44.5 -57.501 -67.5s-30 -45.833 -40 -68.5s-15 -43.667 -15 -63c0 -21.333 6.33301 -39.666 19 -54.999c12.667 -16 31.667 -24 57 -24c22.667 0 48.167 6.33301 76.5 19s56.333 28.667 84 48
s52.834 38.666 75.501 57.999s40.334 36 53.001 50c2 2 3 4 3 6z" />
    <glyph glyph-name="d" unicode="d" horiz-adv-x="371" 
d="M553 498c0 6.66699 -5.83496 14.166 -17.502 22.499s-23.167 12.5 -34.5 12.5c-6 0 -11.333 -1.33301 -16 -4c-8 -5.33301 -18.5 -16.5 -31.5 -33.5s-27.667 -38.167 -44 -63.5l-49 -78.5l-50.5 -86.5c-11.333 -19.333 -34.166 -50.5 -68.499 -93.5
s-75.166 -88.167 -122.499 -135.5c-8.66699 -8.66699 -18 -16.5 -28 -23.5s-17.333 -10.5 -22 -10.5c-6.66699 0 -10 5.33301 -10 16c0 11.333 5 31 15 59c7.33301 20.667 18.833 42.667 34.5 66s32.834 45.166 51.501 65.499s36.5 36.666 53.5 48.999
s30.167 18.5 39.5 18.5c4 0 7.66699 -1.66699 11 -5c6.66699 -6.66699 13.334 -10 20.001 -10c8 0 12 3 12 9c0 2.66699 -1 5 -3 7c-10 12 -21.667 22.167 -35 30.5s-26.333 12.5 -39 12.5c-8 0 -15.667 -2 -23 -6c-16 -9.33301 -34.333 -24.166 -55 -44.499
s-40.834 -43.666 -60.501 -69.999s-36.667 -54 -51 -83s-23.5 -56.5 -27.5 -82.5v-4c-0.666992 -0.666992 -1 -1.66699 -1 -3c0 -16.667 7.5 -31.167 22.5 -43.5s29.833 -18.5 44.5 -18.5c6.66699 0 11.667 1.33301 15 4c8 5.33301 19.5 15.333 34.5 30s31.333 31.667 49 51
l50.5 57.5c16 19 28.667 35.167 38 48.5c-24.667 -53.333 -37 -94.333 -37 -123c0 -26 10.667 -43.667 32 -53c4 -2 8 -3 12 -3c13.333 0 29.333 6.66699 48 20s37.167 29.166 55.5 47.499s34.833 36.333 49.5 54s24 29.5 28 35.5c6.66699 9.33301 10 16.666 10 21.999
c0 2.66699 -1 4 -3 4c-4.66699 0 -10.334 -4.33301 -17.001 -13c-12.667 -15.333 -26.834 -31.166 -42.501 -47.499s-31.5 -31.666 -47.5 -45.999s-30.167 -25.666 -42.5 -33.999s-22.166 -12.5 -29.499 -12.5c-4 0 -7 1.33301 -9 4c-1.33301 2 -2 5.66699 -2 11
c0 16.667 7.83301 43 23.5 79s36.167 76.667 61.5 122c27.333 48.667 56.833 96 88.5 142s60.5 83.333 86.5 112c6 6 11.333 9 16 9c0.666992 0 2.33398 -0.333008 5.00098 -1c1.33301 -0.666992 2.33301 -1 3 -1c1.33301 0 3.16602 1.5 5.49902 4.5s3.5 5.5 3.5 7.5z" />
    <glyph glyph-name="e" unicode="e" horiz-adv-x="299" 
d="M359 146c0 3.33301 -1.6709 4.99609 -5.00391 4.99609s-6.66602 -1.33301 -9.99902 -4c-12.667 -12 -30.834 -26.667 -54.501 -44s-49.167 -34.166 -76.5 -50.499s-53 -29.666 -77 -39.999s-43.333 -15.5 -58 -15.5c-8 0 -14.333 1.83301 -19 5.5s-7 9.83398 -7 18.501
l1 4v6c4.66699 24.667 13 48.334 25 71.001s26.333 43.834 43 63.501s34.334 37.167 53.001 52.5s37.334 28.333 56.001 39c11.333 6.66699 21 10 29 10c10 0 15 -5 15 -15c0 -11.333 -7.33301 -25 -22 -41c-7.33301 -8 -20.833 -19.333 -40.5 -34s-39.167 -28 -58.5 -40
c-6.66699 -4 -10 -8.66699 -10 -14c0 -3.33301 2 -5 6 -5h1h2c32.667 8 64 22 94 42s48.333 41 55 63c1.33301 6.66699 2 12 2 16c0 20 -6.66699 39.667 -20 59s-28.333 29 -45 29c-12 0 -31.167 -9.5 -57.5 -28.5s-53.166 -43.333 -80.499 -73s-50.333 -60.5 -69 -92.5
s-28 -60.667 -28 -86c0 -7.33301 1 -14.666 3 -21.999c6 -20.667 15.333 -35.834 28 -45.501s28 -14.5 46 -14.5c20.667 0 43.5 5.16699 68.5 15.5s50.333 24.166 76 41.499s49.834 36 72.501 56s42 39.667 58 59c2.66699 2.66699 4 5.66699 4 9z" />
    <glyph glyph-name="f" unicode="f" horiz-adv-x="317" 
d="M412 305c0 4 -2.33594 6.00391 -7.00293 6.00391c-16.667 -0.666992 -45 -1 -85 -1c-37.333 0 -61 0.333008 -71 1c-3.33301 0 -5 1 -5 3c0 2.66699 2.66699 7.66699 8 15c26 33.333 44.833 60.333 56.5 81s17.5 38 17.5 52c0 18.667 -11.333 36.334 -34 53.001l-1 1
c-1.33301 0.666992 -2.66602 1 -3.99902 1c-6 0 -9 -2.66699 -9 -8l1 -1c1.33301 -0.666992 2.33301 -1.33398 3 -2.00098c1.33301 -1.33301 2 -3.66602 2 -6.99902c0 -6.66699 -3.5 -16.834 -10.5 -30.501s-15.833 -28.667 -26.5 -45s-22.667 -33.5 -36 -51.5l-40 -52
c-5.33301 -6.66699 -21.333 -10 -48 -10c-0.666992 0 -4.33398 0.333008 -11.001 1h-12c-4.66699 0 -8.66699 -0.166992 -12 -0.5s-5 -1.5 -5 -3.5c0 -5.33301 2 -9 6 -11s11.667 -4 23 -6c2.66699 -0.666992 4.66699 -1 6 -1c14.667 -2.66699 22 -7 22 -13v-2
c-0.666992 -0.666992 -1 -1.33398 -1 -2.00098c-65.333 -102.667 -112.666 -189.5 -141.999 -260.5s-44 -126.833 -44 -167.5c0 -24.667 4.83301 -43.167 14.5 -55.5s22.167 -18.5 37.5 -18.5c14 0 29.667 5.33301 47 16c26.667 16.667 53.834 39.834 81.501 69.501
s53.167 62.5 76.5 98.5s42 72.167 56 108.5s21 69.5 21 99.5c0 25.333 -5.33301 47.166 -16 65.499s-27.667 32.166 -51 41.499c-2 1.33301 -3 2.66602 -3 3.99902c0 2.66699 1.33301 5.5 4 8.5s5.66699 4.5 9 4.5c6.66699 0.666992 22.667 1.66699 48 3
c34.667 1.33301 62.334 2.66602 83.001 3.99902s34.667 3 42 5c6 2 9 4.33301 9 7zM251.997 162.004c0 -28.667 -6.33203 -60.333 -18.999 -95s-29.667 -69 -51 -103s-44.833 -64.833 -70.5 -92.5s-51.167 -49.5 -76.5 -65.5c-13.333 -8.66699 -25 -13 -35 -13
c-14 0 -21 10.333 -21 31c0 18 5 41.667 15 71s24.167 63 42.5 101s40.666 78.167 66.999 120.5s55.5 84.833 87.5 127.5c0.666992 0.666992 1.66699 2 3 4c3.33301 4 6 6.66699 8 8c18 -9.33301 30.833 -21.833 38.5 -37.5s11.5 -34.5 11.5 -56.5z" />
    <glyph glyph-name="g" unicode="g" horiz-adv-x="382" 
d="M491 176c0 4 -2.33203 6.00098 -6.99902 6.00098c-2 0 -4 -1 -6 -3c-21.333 -22 -46 -44.167 -74 -66.5s-59 -45.5 -93 -69.5c-0.666992 0 -1.33398 -0.333008 -2.00098 -1h-1c-0.666992 0 -1 0.333008 -1 1c0 3.33301 1.33301 9 4 17c6 16.667 10.833 33 14.5 49
s5.5 30.333 5.5 43c0 12 -1.83301 22.333 -5.5 31s-9.16699 13 -16.5 13c-8.66699 0 -21.334 -6 -38.001 -18s-39.334 -30.667 -68.001 -56c-30 -25.333 -53.667 -44.666 -71 -57.999s-33 -22.666 -47 -27.999c-4.66699 -2 -9.66699 -3 -15 -3
c-9.33301 0 -14 4.66699 -14 14c0 6 2.33301 13.667 7 23c12 23.333 27.667 47 47 71s40.333 46 63 66s44.667 36 66 48s39.333 18 54 18c18 0 29.333 -9.66699 34 -29c0.666992 -4.66699 4 -7 10 -7c7.33301 0 11 2.33301 11 7c-1.33301 17.333 -5.33301 33.833 -12 49.5
s-15.667 27.167 -27 34.5c-3.33301 2.66699 -9 4 -17 4c-16 0 -37 -7.16699 -63 -21.5s-53 -33 -81 -56s-53.5 -47.833 -76.5 -74.5s-39.833 -52 -50.5 -76c-6.66699 -14 -10 -27.333 -10 -40c0 -14.667 4.16699 -27.334 12.5 -38.001s18.833 -20 31.5 -28
c3.33301 -2.66699 8.33301 -4 15 -4c14 0 30.667 7.66699 50 23s46.333 39.666 81 72.999c22.667 22 41 39 55 51c2.66699 2.66699 5.33398 4 8.00098 4c5.33301 0 8 -6.33301 8 -19c0 -17.333 -4.5 -39 -13.5 -65s-21.167 -50 -36.5 -72
c-8.66699 -6.66699 -21.334 -15 -38.001 -25l-8 -5c-30.667 -19.333 -60.167 -39.833 -88.5 -61.5s-53.166 -43 -74.499 -64s-38 -41.333 -50 -61s-18 -37.5 -18 -53.5c0 -4 0.666992 -8.66699 2 -14c3.33301 -16 12 -25 26 -27h5c2 -0.666992 3.66699 -1 5 -1
c22 0 47 9 75 27s56.333 42 85 72s55.334 63.333 80.001 100s44.667 73 60 109c5.33301 12 11.333 20 18 24c15.333 10 32 21.833 50 35.5s35.5 27.667 52.5 42s32.667 28.166 47 41.499s25.833 25.333 34.5 36c4 5.33301 6 9.33301 6 12zM207.001 -57.999
c0 -2 -5.99609 -12.667 -17.9961 -32l-1 -1c-12.667 -20.667 -27.834 -43 -45.501 -67s-36.334 -46.667 -56.001 -68s-38.334 -39 -56.001 -53s-32.834 -22 -45.501 -24c-8 0 -13.5 1.33301 -16.5 4s-4.5 6.66699 -4.5 12c0.666992 18 8.83398 37.5 24.501 58.5
s35 41.333 58 61s45.167 37 66.5 52l73 49.5c9.33301 6.66699 15.666 10 18.999 10c1.33301 0 2 -0.666992 2 -2z" />
    <glyph glyph-name="h" unicode="h" horiz-adv-x="391" 
d="M491 180c0 4 -1.33496 5.99707 -4.00195 5.99707c-2 0 -4.33301 -1.33301 -7 -4l-35 -26l-54 -39l-54 -37.5c-18 -12.333 -30 -20.166 -36 -23.499l-2 -1c-4 -2.66699 -6.66699 -4.33398 -8 -5.00098c0 2.66699 1.33301 6 4 10c32.667 48.667 57 88.834 73 120.501
s24 58.167 24 79.5c0 18 -6.66699 33 -20 45c-8.66699 7.33301 -18.667 11 -30 11c-23.333 0 -52.666 -13 -87.999 -39s-73.333 -61.333 -114 -106c-6 -6 -10.667 -9 -14 -9c-2 0 -3 1.33301 -3 4c0 1.33301 0.666992 4 2 8c4.66699 10 11.5 22.333 20.5 37s21.5 34 37.5 58
c25.333 38.667 43.333 67 54 85c20 32 35.833 61.167 47.5 87.5s17.5 49.166 17.5 68.499s-7 33.666 -21 42.999c-2 1.33301 -4 2 -6 2c-4.66699 0 -7 -3 -7 -9c0 -4 1 -7 3 -9s3 -4.33301 3 -7c0 -9.33301 -7 -25.666 -21 -48.999s-36.333 -57.333 -67 -102l-8 -11
l-64 -98.5c-17.333 -27 -34.166 -55.167 -50.499 -84.5s-29.333 -57 -39 -83s-14.5 -48.333 -14.5 -67c0 -17.333 4.33301 -31.333 13 -42c2 -2 4 -3 6 -3c4 0 7.33301 2 10 6c57.333 92 117 166.333 179 223c25.333 23.333 48.333 41 69 53s37 18 49 18s18 -5.33301 18 -16
c0 -7.33301 -3.5 -17.666 -10.5 -30.999s-16.5 -27.666 -28.5 -42.999c-34 -42.667 -62.167 -81.667 -84.5 -117s-33.5 -58.666 -33.5 -69.999c0 -14.667 3 -26.667 9 -36s13.333 -14 22 -14c11.333 0 21.333 8 30 24c3.33301 7.33301 11.833 16.333 25.5 27
s34.167 25.667 61.5 45c59.333 42.667 104.333 77 135 103c7.33301 6.66699 11 12.667 11 18z" />
    <glyph glyph-name="i" unicode="i" horiz-adv-x="190" 
d="M270 428c0 1.33301 0.332031 3 0.999023 5v4c0 3.33301 -1.33301 5 -4 5c-7.33301 -6 -15 -10.333 -23 -13s-17.333 -4.66699 -28 -6c-9.33301 -2 -15.666 -3.66699 -18.999 -5c-5.33301 -3.33301 -8 -8 -8 -14v-3c0.666992 -2 1 -3.33301 1 -4
c4.66699 -12.667 13.667 -19 27 -19c10.667 0 21.167 4.5 31.5 13.5s17.5 21.167 21.5 36.5zM236.999 141c0 3.33301 -1.33203 5.00391 -3.99902 5.00391c-3.33301 0 -7 -2 -11 -6l-53.5 -50l-49.5 -43c-15.333 -12.667 -29 -22.834 -41 -30.501s-21.333 -11.5 -28 -11.5
c-5.33301 0 -8 3.33301 -8 10c0 2 0.666992 6.33301 2 13c4 16 12.667 34.333 26 55s31.333 46.667 54 78s39.334 55.666 50.001 72.999s16 31.333 16 42c0 10 -4.83301 18.667 -14.5 26s-17.834 11 -24.501 11c-2.66699 0 -4.33398 -0.666992 -5.00098 -2
c-2.66699 -3.33301 -4 -6.33301 -4 -9c0 -1.33301 0.666992 -2.33301 2 -3c0.666992 -1.33301 1 -2.66602 1 -3.99902c0 -2.66699 -2.33301 -7.33398 -7 -14.001l-51.5 -77c-15 -23.333 -28.5 -46.333 -40.5 -69s-21.5 -43.834 -28.5 -63.501s-10.5 -36.5 -10.5 -50.5
c0 -16 5 -28.333 15 -37c5.33301 -4 11.333 -6 18 -6c11.333 0 24.833 4.66699 40.5 14s32 21.166 49 35.499s33.833 29.833 50.5 46.5l48 50c6 6 9 11.667 9 17z" />
    <glyph glyph-name="j" unicode="j" horiz-adv-x="241" 
d="M289 429c0 2 0.333984 4.33203 1.00098 6.99902v3c0 3.33301 -0.666992 5 -2 5c-0.666992 0 -2 -0.666992 -4 -2c-6 -5.33301 -13.333 -9.33301 -22 -12c-7.33301 -2.66699 -17 -5 -29 -7c-8.66699 -1.33301 -14 -2.66602 -16 -3.99902c-5.33301 -2.66699 -8 -7 -8 -13
c0 -2 0.666992 -4.33301 2 -7c6 -12.667 15.667 -19 29 -19c10.667 0 20.667 4.33301 30 13s15.666 20.667 18.999 36zM348.001 204.999c0 4 -1.99805 5.99707 -5.99805 5.99707c-2.66699 0 -5 -1 -7 -3c-16 -15.333 -39.5 -34.666 -70.5 -57.999l-107.5 -78h-1h-1l1 1v1
l2 3l5 10l22 46.5l21 45.5c6.66699 14.667 12.334 28.5 17.001 41.5s8 23.833 10 32.5l1 3c0.666992 4.66699 1 8 1 10c0 14.667 -8.33301 25.334 -25 32.001c-7.33301 3.33301 -15 5 -23 5c-11.333 0 -18.666 -2.66699 -21.999 -8c-3.33301 -6.66699 -5 -10.667 -5 -12
s0.666992 -2 2 -2s4 1 8 3c4 1.33301 6.66699 2 8 2c2 0 3 -1.66699 3 -5c-8.66699 -30.667 -23.334 -71.667 -44.001 -123s-43.334 -99.666 -68.001 -144.999c-0.666992 -2 -2.5 -4.33301 -5.5 -7s-5.83301 -5 -8.5 -7c-12.667 -9.33301 -32.334 -22.666 -59.001 -39.999
c-50.667 -32.667 -90 -60.5 -118 -83.5s-46 -46.833 -54 -71.5c-4.66699 -14.667 -7 -27.667 -7 -39c0 -22.667 14.333 -36.334 43 -41.001h3c1.33301 -0.666992 2.66602 -1 3.99902 -1c16 0 35 8.16699 57 24.5s44.833 38.666 68.5 66.999s46.667 59.833 69 94.5
s42.5 70 60.5 106c2.66699 5.33301 7 10.333 13 15l7 5l127 99c29.333 23.333 53.333 43.333 72 60c4.66699 4.66699 7 8.33398 7 11.001zM39.0029 -41.0039c-32.667 -64.667 -67.668 -116.166 -105.001 -154.499s-65.666 -57.5 -84.999 -57.5c-10 0 -15 5.66699 -15 17
c0 6.66699 2 15.667 6 27c5.33301 14 13.833 28 25.5 42s25.5 28 41.5 42c20.667 16.667 52 38.667 94 66c16 10.667 26.333 17.667 31 21c1.33301 1.33301 3 2 5 2s3 -0.666992 3 -2v-1c-0.666992 -0.666992 -1 -1.33398 -1 -2.00098z" />
    <glyph glyph-name="k" unicode="k" horiz-adv-x="412" 
d="M438 266c0 10.667 -3.99805 22.0029 -11.998 34.0029c-11.333 16.667 -29 25 -53 25c-20 0 -42 -4.16699 -66 -12.5s-53 -20.5 -87 -36.5l-11 -5c-4 -1.33301 -6.33301 -2 -7 -2c-1.33301 0 -2 0.333008 -2 1c0 1.33301 2 5.33301 6 12
c1.33301 1.33301 2.66602 3 3.99902 5c50 66.667 85.5 120 106.5 160s31.5 69.667 31.5 89c0 10.667 -3 18.334 -9 23.001c-2.66699 1.33301 -4.33398 2 -5.00098 2c-2 0 -4.33301 -1.16699 -7 -3.5s-4 -4.83301 -4 -7.5c0 -0.666992 0.333008 -1.66699 1 -3
c1.33301 -2 2 -3.66699 2 -5c0 -8 -7.33301 -22.167 -22 -42.5s-38 -50.5 -70 -90.5l-81 -105c-23.333 -30.667 -45.833 -62.834 -67.5 -96.501s-39.167 -66.334 -52.5 -98.001s-20 -59.5 -20 -83.5c0 -23.333 7 -43 21 -59c1.33301 -1.33301 2.66602 -2 3.99902 -2
c5.33301 0 8 2.66699 8 8c0 2 -1 4 -3 6s-3 4 -3 6c0 8 4.66699 21.667 14 41s21 41.166 35 65.499l43.5 72.5l38.5 60c1.33301 0 2.66602 -2 3.99902 -6c2 -3.33301 3.33301 -5 4 -5c8.66699 8.66699 21.667 18.167 39 28.5s35.833 20.166 55.5 29.499s38.834 17 57.501 23
s34 9 46 9c4 0 8 -1.66699 12 -5s6 -7.33301 6 -12c0 -8.66699 -7 -19.5 -21 -32.5s-35.667 -26.5 -65 -40.5c-54.667 -26 -97.667 -55.333 -129 -88s-47 -62.334 -47 -89.001c0 -18 7.83301 -32.333 23.5 -43s38.834 -16 69.501 -16c38 0 83 8 135 24
c12.667 4 19 8.33301 19 13c0 3.33301 -5 5 -15 5c-2 0 -7.66699 -0.666992 -17 -2h-3c-46 -8 -83 -12 -111 -12c-48.667 0 -73 9.66699 -73 29c0 25.333 40.333 58.666 121 99.999c4.66699 2.66699 9.66699 5.33398 15 8.00098l53 28c14.667 8 28.667 17 42 27
s24.333 20.833 33 32.5s13 23.834 13 36.501z" />
    <glyph glyph-name="l" unicode="l" horiz-adv-x="188" 
d="M328 518c0 14.667 -3.33496 25.8379 -10.002 33.5049s-13.334 11.5 -20.001 11.5c-2.66699 0 -5.66699 -1 -9 -3s-5 -4 -5 -6c0 -2.66699 3.33301 -5.33398 10 -8.00098c2 -0.666992 3 -2.66699 3 -6c0 -8.66699 -6.83301 -24 -20.5 -46s-36.5 -56 -68.5 -102l-71 -104.5
c-19.333 -29.667 -38.166 -60.334 -56.499 -92.001s-33.166 -61.834 -44.499 -90.501s-17 -53.334 -17 -74.001c0 -10.667 1.66699 -20.334 5 -29.001c9.33301 -22 23.666 -33 42.999 -33c15.333 0 32.666 5.83301 51.999 17.5s39 26.834 59 45.501s38 37.167 54 55.5
s29 34.5 39 48.5c6.66699 9.33301 10 16.666 10 21.999c0 2.66699 -1 4 -3 4c-3.33301 0 -7 -2.66699 -11 -8c-17.333 -19.333 -35.166 -38.166 -53.499 -56.499s-36.333 -35.333 -54 -51s-33.667 -28.5 -48 -38.5s-25.166 -15 -32.499 -15c-6.66699 0 -10 4.33301 -10 13
c0 4 1 10 3 18c10.667 38 28.334 79.5 53.001 124.5s57.667 99.833 99 164.5c35.333 56.667 61.5 100.667 78.5 132s25.5 55.666 25.5 72.999z" />
    <glyph glyph-name="m" unicode="m" horiz-adv-x="608" 
d="M672 127c0 2 -0.998047 3 -2.99805 3c-4.66699 0 -13.667 -7 -27 -21c-66 -72 -109 -108 -129 -108c-7.33301 0 -11 5 -11 15c0 24 20.333 73.667 61 149c18.667 34 28 65 28 93c0 17.333 -4 31 -12 41s-20 15 -36 15c-20.667 0 -47 -9.66699 -79 -29
s-69.667 -49.666 -113 -90.999c-5.33301 -4.66699 -9.33301 -7 -12 -7c-2 0 -3 1.33301 -3 4c0 4 1 8.33301 3 13c7.33301 20 11 38 11 54c0 30.667 -13.333 46 -40 46c-14 0 -30.167 -4.66699 -48.5 -14s-36.5 -22.666 -54.5 -39.999
c-2.66699 -2.66699 -7 -6.66699 -13 -12l-17.5 -15c-5.66699 -4.66699 -11 -8.83398 -16 -12.501s-8.16699 -5.83398 -9.5 -6.50098c0.666992 3.33301 3 8.66602 7 15.999l5 8c24.667 45.333 37 78 37 98c0 16.667 -7 28.667 -21 36c-2.66699 1.33301 -4.66699 2 -6 2
c-4.66699 0 -7 -2.33301 -7 -7c0 -2 1 -4 3 -6c1.33301 -1.33301 2 -2.66602 2 -3.99902c0 -5.33301 -3.83301 -14.5 -11.5 -27.5s-20.167 -32.167 -37.5 -57.5c-18.667 -27.333 -33.5 -49.833 -44.5 -67.5s-22 -36.667 -33 -57s-20 -40 -27 -59s-10.5 -35.833 -10.5 -50.5
c0 -17.333 5.33301 -31 16 -41c4 -4 6.66699 -6 8 -6s3 2.33301 5 7c10.667 23.333 25.667 49.5 45 78.5s40.333 57.167 63 84.5s44.667 51.333 66 72s38.666 35.334 51.999 44.001c13.333 8 23.333 12 30 12c6 0 9 -3.66699 9 -11c0 -13.333 -8 -34.666 -24 -63.999
c-47.333 -87.333 -71 -146 -71 -176c0 -14.667 4.66699 -25.667 14 -33s16.666 -11 21.999 -11c4 0 6.33301 2 7 6c14 38 33.667 75 59 111s53 68 83 96s57.833 50 83.5 66s44.834 24 57.501 24c8 0 12 -3.66699 12 -11c0 -5.33301 -2.66699 -13.333 -8 -24
c-3.33301 -6.66699 -10 -19 -20 -37c-22.667 -40.667 -40.667 -75.834 -54 -105.501s-20 -55.834 -20 -78.501c0 -14.667 3.5 -27 10.5 -37s17.833 -17 32.5 -21c5.33301 -1.33301 9.33301 -2 12 -2c18.667 0 40.667 10.5 66 31.5s55.666 51.833 90.999 92.5
c12 14 18 24.667 18 32z" />
    <glyph glyph-name="n" unicode="n" horiz-adv-x="418" 
d="M466 122c0 2.66699 -1.33594 4.00293 -4.00293 4.00293c-6 0 -13.333 -4.66699 -22 -14c-33.333 -34 -60.166 -58.833 -80.499 -74.5s-34.5 -23.5 -42.5 -23.5c-5.33301 0 -8 3.66699 -8 11c0 8 2.33301 18 7 30s13 28.667 25 50c7.33301 13.333 11.333 20.666 12 21.999
c19.333 34 32.333 58.667 39 74s10 30 10 44c0 9.33301 -1.66699 16.333 -5 21c-8 11.333 -15.5 19.5 -22.5 24.5s-15.833 7.5 -26.5 7.5c-21.333 0 -48.666 -11.333 -81.999 -34s-75.333 -59 -126 -109c-6.66699 -6.66699 -11.334 -10 -14.001 -10
c-0.666992 0 -1 0.666992 -1 2c0 4 3 10.333 9 19c26.667 40 46.167 71.333 58.5 94s18.5 42 18.5 58c0 20.667 -12 36.667 -36 48c-3.33301 0 -5 -2.66699 -5 -8c0 -3.33301 1.33301 -5.33301 4 -6c2 -0.666992 3 -2.33398 3 -5.00098
c0 -6.66699 -4.66699 -17.834 -14 -33.501s-24 -38.5 -44 -68.5l-41 -64.5c-12 -19 -23.667 -38.833 -35 -59.5s-20.333 -40 -27 -58s-10 -33.667 -10 -47c0 -15.333 5.33301 -27 16 -35l1 -1h2c2 0 4 1.16699 6 3.5s3.66699 4.83301 5 7.5
c7.33301 19.333 24.333 44.666 51 75.999s57 62.5 91 93.5s65.833 56.833 95.5 77.5s50.834 31 63.501 31c7.33301 0 11 -4 11 -12c0 -14 -14 -43.333 -42 -88l-2 -3c-19.333 -30 -34.333 -55.667 -45 -77s-16 -40.666 -16 -57.999c0 -20 8.66699 -35 26 -45
c7.33301 -4 15.333 -6 24 -6c20.667 0 44.334 10.5 71.001 31.5s56.667 50.833 90 89.5c8 8.66699 12 15.667 12 21z" />
    <glyph glyph-name="o" unicode="o" horiz-adv-x="335" 
d="M332 192c0 13.333 -3.66406 26.3359 -10.9971 39.0029c-12.667 22.667 -30.667 39.667 -54 51l2 2c7.33301 8.66699 11 15 11 19c0 5.33301 -7.33301 15.666 -22 30.999c-4.66699 4.66699 -9.33398 7 -14.001 7s-10.667 -2.66699 -18 -8
c-22.667 -16.667 -46.334 -36.334 -71.001 -59.001s-47.667 -47.167 -69 -73.5s-38.5 -52.333 -51.5 -78s-19.5 -49.5 -19.5 -71.5c0 -28 12 -50.333 36 -67c9.33301 -6.66699 21.666 -10 36.999 -10c22 0 47 6.83301 75 20.5s55 31.667 81 54s47.167 46.166 63.5 71.499
s24.5 49.333 24.5 72zM297.003 198.003c0 -16 -4 -32.8301 -12 -50.4971s-19.167 -34.667 -33.5 -51s-31 -31.5 -50 -45.5s-38.833 -25.667 -59.5 -35c-20.667 -8.66699 -36.667 -13 -48 -13c-18 0 -28.333 8.33301 -31 25v3c-0.666992 1.33301 -1 2.66602 -1 3.99902
c0 14.667 5.83301 32.167 17.5 52.5s26.5 41.5 44.5 63.5s37.667 42.833 59 62.5s41 35.5 59 47.5c15.333 -2.66699 26.833 -6.83398 34.5 -12.501s13.167 -13.834 16.5 -24.501c2.66699 -7.33301 4 -16 4 -26z" />
    <glyph glyph-name="p" unicode="p" horiz-adv-x="402" 
d="M409 227c0 16.667 -4.99414 33.3359 -14.9941 50.0029c-8 14 -23.333 21 -46 21c-21.333 0 -47 -7.16699 -77 -21.5s-62 -35.5 -96 -63.5c-3.33301 -3.33301 -6.33301 -5 -9 -5c-1.33301 0 -2 0.666992 -2 2c0 0.666992 0.666992 2.33398 2 5.00098
c20.667 27.333 31 53 31 77c0 10 -2 18.333 -6 25c-3.33301 6 -8.33301 11.167 -15 15.5s-12.334 6.5 -17.001 6.5c-2.66699 0 -4 -1 -4 -3c0 -1.33301 0.666992 -3.33301 2 -6c1.33301 -2 2 -4.33301 2 -7c0 -6 -3.66699 -15.667 -11 -29v0
c-12.667 -23.333 -36.334 -63 -71.001 -119l-57.5 -94c-17 -28 -32.667 -55.833 -47 -83.5s-26 -54.167 -35 -79.5s-14.5 -48.333 -16.5 -69c0 -18.667 2.5 -33.334 7.5 -44.001s12.5 -16.334 22.5 -17.001c2.66699 0 5.66699 1 9 3s5 3.66699 5 5
c0 2.66699 -3.66699 6 -11 10c-4.66699 2 -7 7.33301 -7 16c0 21.333 14.167 58.666 42.5 111.999s69.5 115 123.5 185c11.333 14.667 23 28 35 40c14.667 14.667 31 28.667 49 42s36.333 25.333 55 36s36.167 19.167 52.5 25.5s30.166 9.5 41.499 9.5
c9.33301 0 16.333 -2 21 -6c6 -4.66699 9 -11 9 -19c0 -11.333 -6.83301 -24.666 -20.5 -39.999s-31.334 -31.5 -53.001 -48.5s-43.334 -32.5 -65.001 -46.5l-78.5 -50l-54.5 -35c-11 -7.33301 -16.833 -12.333 -17.5 -15c0 -1.33301 -0.333008 -3 -1 -5v-4
c0 -0.666992 0.333008 -1.66699 1 -3v-1h1c3.33301 -0.666992 8.66602 -1 15.999 -1c10 0 31.833 6.5 65.5 19.5s69 30.167 106 51.5s68.5 45.666 94.5 72.999s39 55.666 39 84.999z" />
    <glyph glyph-name="q" unicode="q" horiz-adv-x="315" 
d="M627 -112c0 4 -2.33789 6.00195 -7.00488 6.00195c-2 0 -4.66699 -1 -8 -3c-32.667 -21.333 -72.334 -32 -119.001 -32c-25.333 0 -51.333 3 -78 9s-53 13.667 -79 23s-50.5 19 -73.5 29s-47.5 21.333 -73.5 34c-39.333 18.667 -64.666 29.667 -75.999 33
c-8.66699 2 -13 4 -13 6s2.66699 3 8 3c17.333 0 36.333 6 57 18s40.5 28.167 59.5 48.5s35 42.666 48 66.999s21.5 47.833 25.5 70.5c2 9.33301 3 18 3 26c0 2 -0.333008 4.33301 -1 7v8c-1.33301 5.33301 -3.33301 8 -6 8c-4 0 -6.66699 -4 -8 -12
c-3.33301 -22 -12.666 -46 -27.999 -72s-33.5 -50.333 -54.5 -73s-41.333 -41 -61 -55s-35.5 -21 -47.5 -21c-8.66699 0 -14 4 -16 12c0 0.666992 -0.333008 2.33398 -1 5.00098v6c0 17.333 7.33301 40.333 22 69s33.5 57.5 56.5 86.5s46.5 52.833 70.5 71.5s45 28 63 28
c9.33301 0 18.333 -3.66699 27 -11c7.33301 -6 12.333 -9 15 -9c3.33301 0 5 1.66699 5 5c0 4 -1 7.33301 -3 10c-7.33301 10.667 -17.166 20 -29.499 28s-25.166 15 -38.499 21c-4.66699 2 -10 3 -16 3c-12 0 -26.333 -4.66699 -43 -14
c-21.333 -12.667 -42.666 -30.334 -63.999 -53.001s-40.666 -47.5 -57.999 -74.5s-31.333 -53.667 -42 -80s-16 -49.166 -16 -68.499c0 -8 1 -15 3 -21c3.33301 -10.667 11 -18.334 23 -23.001c3.33301 -1.33301 5 -2.66602 5 -3.99902c0 -2.66699 -3.66699 -4 -11 -4
c-11.333 -0.666992 -21.666 -2.5 -30.999 -5.5s-17.666 -8.16699 -24.999 -15.5c-4.66699 -4.66699 -7 -9.33398 -7 -14.001c0 -7.33301 4.33301 -11 13 -11c8 0 14.667 3.66699 20 11c8.66699 10.667 19.667 16 33 16c14.667 0 31.5 -4.83301 50.5 -14.5
s46.167 -25.834 81.5 -48.501c55.333 -34.667 103.666 -61.5 144.999 -80.5s83.666 -28.5 126.999 -28.5c28.667 0 57 5.5 85 16.5s55.333 28.833 82 53.5c4 4 6 7.33301 6 10z" />
    <glyph glyph-name="r" unicode="r" horiz-adv-x="330" 
d="M403 169c0 4.66699 -2 7 -6 7s-8.33301 -2.66699 -13 -8l-76.5 -77c-23 -22 -43.167 -39.667 -60.5 -53c-8 -6 -14.333 -9 -19 -9c-3.33301 0 -5 2 -5 6c0 4.66699 2.66699 13 8 25l18 37c16.667 32 29 58 37 78s12 38.333 12 55c0 8.66699 -1.66699 17 -5 25
c-10 21.333 -26.333 32 -49 32c-12 0 -28 -2.66699 -48 -8h-3c-0.666992 -0.666992 -1.33398 -1 -2.00098 -1c-4.66699 0 -7 1 -7 3c0 1.33301 1.33301 4 4 8c11.333 14.667 17 27.667 17 39c0 15.333 -8.66699 29 -26 41c-4.66699 3.33301 -10 5 -16 5
s-10.667 -1.66699 -14 -5c-22.667 -22.667 -34 -44.334 -34 -65.001c0 -14.667 5 -29 15 -43c0 -1.33301 -4.16699 -7.66602 -12.5 -18.999s-18.5 -24.333 -30.5 -39l-36.5 -43c-12.333 -14 -23.166 -25.667 -32.499 -35c-4.66699 -4.66699 -7 -8.66699 -7 -12s2 -5 6 -5
c6 0 13 4 21 12c14 13.333 28.333 28.333 43 45l49 57c9.33301 11.333 15.666 18.666 18.999 21.999c2.66699 2.66699 8 4.33398 16 5.00098h5c6.66699 1.33301 16.334 4 29.001 8c18 5.33301 31 8 39 8c13.333 0 20 -6 20 -18s-5.5 -28.333 -16.5 -49
s-26.167 -46.667 -45.5 -78c-12.667 -20 -21.334 -34.333 -26.001 -43c-10 -18 -15 -34.333 -15 -49c0 -10 2.5 -18.833 7.5 -26.5s12.5 -15.167 22.5 -22.5c6 -4 11.667 -6 17 -6c6 0 11.667 1.66699 17 5s14 10.333 26 21c22.667 21.333 46.834 45.333 72.501 72l81.5 88
c2.66699 2.66699 4 6 4 10z" />
    <glyph glyph-name="s" unicode="s" horiz-adv-x="237" 
d="M308 161c0 4 -2.33594 5.99609 -7.00293 5.99609c-2.66699 0 -5.66699 -1.66699 -9 -5c-18 -18.667 -35.667 -36 -53 -52s-32.666 -28.333 -45.999 -37c-1.33301 -1.33301 -2.66602 -2 -3.99902 -2s-2 0.666992 -2 2c2.66699 6 4 12.667 4 20
c0 12 -3.66699 23.167 -11 33.5s-19 23.166 -35 38.499l-9 9c-8.66699 8.66699 -13 18 -13 28c0 22 21.333 41.333 64 58c16.667 6.66699 28.167 12.334 34.5 17.001s9.5 9 9.5 13c0 2.66699 -1.33301 6.33398 -4 11.001c-1.33301 2.66699 -2.33301 4.33398 -3 5.00098
c-8 14.667 -17.333 22 -28 22c-5.33301 0 -9.66602 -0.666992 -12.999 -2c-72.667 -23.333 -109 -55.666 -109 -96.999c0 -24.667 14.667 -50 44 -76c18 -16 27 -32 27 -48c0 -30 -38.333 -64.333 -115 -103c-19.333 -9.33301 -29 -18.333 -29 -27
c0 -4.66699 3.33301 -9.66699 10 -15c6 -4.66699 15.667 -7 29 -7c20.667 0 43.667 6.33301 69 19s45 28 59 46c2 2 4.33301 5.33301 7 10l6 9c20.667 14.667 41.167 31.834 61.5 51.501s40.5 40.5 60.5 62.5c3.33301 4.66699 5 8 5 10z" />
    <glyph glyph-name="t" unicode="t" horiz-adv-x="242" 
d="M226 311c22 35.333 37.832 63.3369 47.499 84.0039s14.5 38 14.5 52c0 16 -8 25.333 -24 28c-4.66699 0 -7 -1.66699 -7 -5c0 -2.66699 1.33301 -5 4 -7c0 -2.66699 -3.5 -9.83398 -10.5 -21.501s-16.167 -26 -27.5 -43l-33.5 -48l-29.5 -40.5h-9
c-12 0.666992 -23.333 1 -34 1c-16.667 0 -29.334 -0.333008 -38.001 -1c-11.333 -0.666992 -17 -4.33398 -17 -11.001c0 -3.33301 3 -6 9 -8s17 -3 33 -3h14c8.66699 0.666992 16 1 22 1l1 -1c0 -2 -0.666992 -4 -2 -6c-9.33301 -14 -15 -23 -17 -27
c-40 -62 -69 -110.333 -87 -145s-27 -64.334 -27 -89.001c0 -22.667 8.66699 -40.667 26 -54c5.33301 -4.66699 13.333 -7 24 -7c12 0 26.167 3.83301 42.5 11.5s33.833 18.167 52.5 31.5s37.5 28.333 56.5 45s37.833 34.667 56.5 54c6.66699 6.66699 10 12.334 10 17.001
c0 2.66699 -1.33301 4 -4 4c-4.66699 0 -10.667 -3 -18 -9l-53 -43.5c-17.333 -13.667 -33.666 -25.834 -48.999 -36.501s-29.166 -19.167 -41.499 -25.5s-21.833 -9.5 -28.5 -9.5c-8.66699 0 -13 4.66699 -13 14c0 3.33301 1.66699 10.666 5 21.999
c10 30 23.667 60.667 41 92s39.666 68 66.999 110c11.333 17.333 21 32.666 29 45.999c2 2.66699 6.33301 4 13 4l34 1c20.667 0.666992 38.334 1.33398 53.001 2.00098c20 1.33301 30 5.33301 30 12c0 6 -10 9 -30 9h-85z" />
    <glyph glyph-name="u" unicode="u" horiz-adv-x="373" 
d="M436 124c0 2.66699 -0.999023 3.99902 -2.99902 3.99902c-4.66699 0 -11.334 -4.66699 -20.001 -14c-28.667 -31.333 -53.834 -55.833 -75.501 -73.5s-37.167 -26.5 -46.5 -26.5c-6.66699 0 -10 5 -10 15c0 18.667 8.5 45.834 25.5 81.501s37.167 70.167 60.5 103.5
c4.66699 6.66699 9 13.834 13 21.501s6 14.5 6 20.5c0 10 -7 19.333 -21 28c-3.33301 2.66699 -7 4 -11 4c-8 0 -17.333 -8 -28 -24c-6.66699 -10 -19.167 -25.167 -37.5 -45.5l-62 -65.5c-23 -23.333 -46.333 -45.666 -70 -66.999s-43.834 -38.333 -60.501 -51
c-12 -8.66699 -21 -13 -27 -13c-4.66699 0 -7 3.33301 -7 10c0 2 0.333008 5.33301 1 10l1 4c3.33301 16 11 34.167 23 54.5s29.667 48.166 53 83.499l35 55c4.66699 7.33301 8.5 16 11.5 26s4.5 18 4.5 24c0 13.333 -4.16699 23 -12.5 29s-15.166 9 -20.499 9
c-2.66699 0 -4 -3.33301 -4 -10s-3.83301 -16.334 -11.5 -29.001s-20.167 -30.667 -37.5 -54c-27.333 -38.667 -49.666 -72.667 -66.999 -102s-28.333 -57.666 -33 -84.999c0 -1.33301 -0.333008 -3.33301 -1 -6v-6c0 -16 5.5 -28.333 16.5 -37s22.833 -13 35.5 -13
c3.33301 0 7.66602 0.666992 12.999 2c0.666992 0 2 0.333008 4 1c10 2.66699 22.333 9.33398 37 20.001s31 24.167 49 40.5s35.833 34.166 53.5 53.499s33.834 38.666 48.501 57.999c2.66699 3.33301 5 5 7 5c0.666992 0 1 -0.666992 1 -2c0 -2 -1 -5.66699 -3 -11
c-9.33301 -20 -17.333 -40 -24 -60s-10 -39 -10 -57c0 -19.333 5 -33 15 -41s20.333 -12 31 -12c17.333 0 37.333 9.5 60 28.5s49.667 46.833 81 83.5c11.333 13.333 17 23.333 17 30z" />
    <glyph glyph-name="v" unicode="v" horiz-adv-x="323" 
d="M344 265c0 31.333 -14.3369 55.665 -43.0039 72.998v0c-0.666992 -1.33301 -1 -2.33301 -1 -3c0 -1.33301 0.333008 -4.66602 1 -9.99902c2 -14 3 -25 3 -33c0 -8.66699 -0.333008 -15.334 -1 -20.001c-4 -24 -12.5 -49 -25.5 -75s-29.167 -50.667 -48.5 -74
s-40.666 -44.333 -63.999 -63s-47.666 -33.667 -72.999 -45c-6.66699 -2.66699 -11.667 -4 -15 -4c-4 0 -7.16699 1.33301 -9.5 4s-3.5 7.33398 -3.5 14.001c0.666992 12.667 6 28.834 16 48.501s24.333 44.834 43 75.501c16 26.667 28 47.5 36 62.5s12.667 27.167 14 36.5
c0 14 -4.16699 26.167 -12.5 36.5s-17.166 15.5 -26.499 15.5c-4.66699 0 -8.66699 -1.66699 -12 -5c-4.66699 -4.66699 -7 -7.66699 -7 -9s1.66699 -2.33301 5 -3c4 -2 6 -3.66699 6 -5c0 -0.666992 -0.333008 -1 -1 -1v-2
c-1.33301 -2.66699 -6.66602 -12.334 -15.999 -29.001l-30.5 -55c-9.66699 -18 -19.167 -37 -28.5 -57s-16.833 -38.833 -22.5 -56.5s-8.5 -33.167 -8.5 -46.5c0 -10 1.66699 -17.667 5 -23c12.667 -18.667 27.667 -28 45 -28c12 0 26 4 42 12
c30.667 15.333 60.167 33.833 88.5 55.5s53.333 45 75 70s38.667 49.833 51 74.5s18.5 47.667 18.5 69z" />
    <glyph glyph-name="w" unicode="w" horiz-adv-x="553" 
d="M587 320c0 9.33301 -0.328125 16.3311 -0.995117 20.998c-2.66699 25.333 -8.66699 38 -18 38c-4 0 -6 -4.33301 -6 -13c0 -1.33301 0.333008 -3 1 -5v-6c0 -2 0.333008 -4.33301 1 -7v-8c0 -13.333 -2.16699 -27.5 -6.5 -42.5s-10.5 -30.5 -18.5 -46.5
c-12 -26.667 -27.667 -52.667 -47 -78c-37.333 -48.667 -74.166 -88 -110.499 -118s-64.5 -45 -84.5 -45c-7.33301 0 -12.833 2.16699 -16.5 6.5s-5.5 12.833 -5.5 25.5v5v6c0.666992 10 3.66699 21.667 9 35s11.833 27.166 19.5 41.499s15.334 27.666 23.001 39.999
s15.167 23.5 22.5 33.5c16.667 23.333 25 41.333 25 54s-7.66699 24.334 -23 35.001c-4.66699 2.66699 -8.66699 4 -12 4c-4 0 -8 -2 -12 -6c-4.66699 -4 -11.334 -12.667 -20.001 -26c-4.66699 -6 -7.66699 -10 -9 -12c-20.667 -26.667 -43.167 -54 -67.5 -82
s-47.833 -53.5 -70.5 -76.5s-42.334 -41.167 -59.001 -54.5s-29 -20 -37 -20c-6 0 -9 4 -9 12c0 8.66699 2.66699 19.334 8 32.001c4.66699 12 12 26.5 22 43.5l30.5 50c10.333 16.333 20.666 31.833 30.999 46.5s18.166 25.334 23.499 32.001c9.33301 12 14 22.667 14 32
c0 13.333 -11 24.666 -33 33.999c-4 1.33301 -6.66699 2 -8 2c-2.66699 0 -4.66699 -2 -6 -6s-3 -7.33301 -5 -10c-36 -50 -64.833 -95.833 -86.5 -137.5s-32.5 -77.5 -32.5 -107.5c0 -12.667 2.16699 -24 6.5 -34s11.166 -18 20.499 -24
c5.33301 -3.33301 10.666 -5 15.999 -5c12.667 0 28.5 6.83301 47.5 20.5s38.833 31.5 59.5 53.5s40.334 45 59.001 69s34.334 46 47.001 66c-10 -22.667 -18.167 -45 -24.5 -67s-9.5 -42.667 -9.5 -62c0 -24 5.66699 -43.333 17 -58s26.666 -22 45.999 -22
c28.667 0 62.167 13.5 100.5 40.5s73.166 60.833 104.499 101.5c25.333 32.667 45.666 66.334 60.999 101.001s23 67.334 23 98.001z" />
    <glyph glyph-name="x" unicode="x" horiz-adv-x="311" 
d="M411 360c0 1.33301 -1 5.00488 -3 11.0049c-2 5.33301 -6 8 -12 8c-10.667 0 -26.667 -9.33301 -48 -28s-53 -49 -95 -91l-65 -64l-4 -3c-4 -4 -6.66699 -6 -8 -6s-2 3.66699 -2 11c0.666992 8 1.66699 18 3 30c2 20 3 34.667 3 44c0 14.667 -2 26.167 -6 34.5
s-11.333 13.166 -22 14.499c-7.33301 1.33301 -16.666 2 -27.999 2c-18.667 0 -29.667 -4 -33 -12c-1.33301 -2.66699 -2 -5.33398 -2 -8.00098c0 -2 1 -3 3 -3c2.66699 0 5.33398 1 8.00098 3l1 1c6 0 10 -4.83301 12 -14.5s3 -24.167 3 -43.5
c0 -15.333 -0.666992 -32.833 -2 -52.5s-3.33301 -43.167 -6 -70.5c-0.666992 -4.66699 -1.16699 -7.83398 -1.5 -9.50098s-1.5 -3.83398 -3.5 -6.50098v0l-43.5 -45.5l-51 -55l-52.5 -57l-39 -43.5c-4.66699 -5.33301 -7 -10.666 -7 -15.999c0 -4.66699 1.66699 -7 5 -7
c1.33301 0 3.33301 1.33301 6 4l39 41c1.33301 1.33301 10.666 11.166 27.999 29.499l46.5 48.5l36 37c10.333 10.667 19.5 19.334 27.5 26.001c2 0.666992 5 1 9 1c0 -28.667 5.16699 -50 15.5 -64s24.833 -21 43.5 -21c24.667 0 55.167 12 91.5 36
s74.166 56.667 113.499 98c2 3.33301 3 5.66602 3 6.99902c0 5.33301 -2.66699 8 -8 8c-2.66699 0 -5.33398 -1.33301 -8.00098 -4c-42.667 -36.667 -76 -63.834 -100 -81.501s-43.667 -26.5 -59 -26.5c-10 0 -17.833 5 -23.5 15s-8.5 26 -8.5 48
c0 8.66699 1 22.334 3 41.001c0 1.33301 0.333008 4.66602 1 9.99902s4.66699 12 12 20c1.33301 2 2.33301 3.33301 3 4c13.333 14.667 29.833 31.667 49.5 51l63.5 59.5l58.5 51.5c16.333 14 28.833 24 37.5 30c2.66699 2 6.33398 3.33301 11.001 4
c3.33301 0.666992 5 2 5 4z" />
    <glyph glyph-name="y" unicode="y" horiz-adv-x="380" 
d="M454 134c0 2.66699 -2.00195 4.00195 -6.00195 4.00195s-9.66699 -2 -17 -6l-55.5 -33l-65.5 -37h-1l-1 -1c-2.66699 0 -4 1.33301 -4 4l1 1v1c52.667 97.333 79 162.666 79 195.999c0 22 -7.66699 33 -23 33c-3.33301 0 -9.66602 -3.33301 -18.999 -10
s-20.333 -16 -33 -28l-88 -84l-56.5 -53.5l-47 -43.5c-14.333 -12.667 -26.666 -22.834 -36.999 -30.501s-17.833 -11.5 -22.5 -11.5c-3.33301 0 -5 2.33301 -5 7c0 6 3 15.333 9 28c5.33301 12 14.666 27.667 27.999 47s30.333 42.666 51 69.999l41.5 57
c8.33301 12 15.5 23 21.5 33c4 8 6 15.333 6 22c0 12.667 -5.33301 23.334 -16 32.001s-21 13 -31 13c-6 0 -9 -1.33301 -9 -4c0 -5.33301 2.33301 -9 7 -11c0 -2.66699 -3.66699 -9.66699 -11 -21s-18 -27 -32 -47l-40 -59.5c-11.333 -17 -22.333 -34.333 -33 -52
s-19.667 -34.5 -27 -50.5s-11.333 -29.333 -12 -40c0 -5.33301 1.33301 -11.833 4 -19.5s5.66699 -15.167 9 -22.5c7.33301 -14 18 -21 32 -21c17.333 0 37.666 10.333 60.999 31s54.666 52.334 93.999 95.001l65 68.5c16.667 17 33.667 32.167 51 45.5
c2.66699 2.66699 5.33398 4 8.00098 4c2 0 3 -1.66699 3 -5c0 -5.33301 -2.5 -14.5 -7.5 -27.5s-11.5 -28 -19.5 -45s-17.167 -35.167 -27.5 -54.5s-20.166 -36.666 -29.499 -51.999c-7.33301 -12.667 -12.833 -21.167 -16.5 -25.5s-7.16699 -7.5 -10.5 -9.5
c-78.667 -49.333 -138.167 -88.333 -178.5 -117s-69.166 -56.334 -86.499 -83.001c-10.667 -18 -16 -34.333 -16 -49c0 -27.333 14 -42 42 -44c14.667 0 32.834 5.33301 54.501 16s45.334 27 71.001 49s52.5 50.333 80.5 85s55.333 75 82 121
c5.33301 8.66699 9.66602 14.667 12.999 18s8.66602 7.66602 15.999 12.999h1l42.5 28.5l57.5 35.5l39 25c9.33301 6.66699 14 11.667 14 15zM-32.002 -216.998c0 7.33301 3.66699 16.334 11 27.001c18.667 26 46.167 52.167 82.5 78.5s78.5 54.166 126.5 83.499
c6 4 10.333 6 13 6c2 0 3 -0.666992 3 -2c0 -2.66699 -2.66699 -7.66699 -8 -15c-33.333 -46 -67.333 -86 -102 -120s-61 -55.667 -79 -65c-12 -6 -22 -9 -30 -9c-11.333 0 -17 5.33301 -17 16z" />
    <glyph glyph-name="z" unicode="z" horiz-adv-x="294" 
d="M369 128c0 2.66699 -1.3291 4.00098 -3.99609 4.00098c-4 0 -8.33301 -2.33301 -13 -7c-12.667 -10.667 -27.834 -22.167 -45.501 -34.5l-57.5 -38.5h-2c-1.33301 -0.666992 -2.66602 -1 -3.99902 -1c2.66699 7.33301 4 15 4 23c0 16.667 -5.33301 30.667 -16 42
s-26.667 17 -48 17c-16.667 0 -36 -4.33301 -58 -13c-4 -2 -7.33301 -3 -10 -3s-4 1 -4 3c0 4 4.33301 9.33301 13 16l4 3c53.333 46 90.666 80.333 111.999 103s32 44 32 64c0 0.666992 -0.333008 2 -1 4v5c-2.66699 13.333 -9.33398 23.166 -20.001 29.499
s-24 9.5 -40 9.5c-20 0 -42 -4.16699 -66 -12.5s-45.667 -19.166 -65 -32.499c-12 -8.66699 -18 -19.667 -18 -33c0 -6 1.5 -11.167 4.5 -15.5s7.16699 -6.5 12.5 -6.5c20.667 5.33301 31 13 31 23v3c-0.666992 1.33301 -1 2.33301 -1 3c12 10.667 29.667 20.834 53 30.501
s42.666 14.5 57.999 14.5c7.33301 0 13.833 -1.83301 19.5 -5.5s8.5 -8.83398 8.5 -15.501c0 -8 -4.16699 -17.167 -12.5 -27.5s-19.5 -21.166 -33.5 -32.499s-29 -22.5 -45 -33.5l-57 -39.5c-30.667 -20.667 -52.334 -35.667 -65.001 -45c-12.667 -10 -19 -23.667 -19 -41
c0 -10.667 2.33301 -20.5 7 -29.5s9.66699 -13.5 15 -13.5c1.33301 0 6 3 14 9c10.667 7.33301 19.667 13 27 17c16 10 34 19 54 27s37.667 12 53 12c20.667 0 31 -9.33301 31 -28c0 -13.333 -8.33301 -34.333 -25 -63c-5.33301 -5.33301 -12.666 -11.666 -21.999 -18.999
c-0.666992 -0.666992 -13 -10 -37 -28c-44 -33.333 -79.333 -61.5 -106 -84.5s-46.667 -45.167 -60 -66.5c-7.33301 -11.333 -11 -21 -11 -29c0 -6 2 -11.167 6 -15.5s8.33301 -6.5 13 -6.5c3.33301 0 8 1 14 3c9.33301 3.33301 24.666 12.666 45.999 27.999
s44.666 34.166 69.999 56.499s49 45.666 71 69.999s38 46.833 48 67.5c4.66699 8.66699 8.33398 15 11.001 19s5.66699 7.33301 9 10l13 9l63 46.5c16 12.333 29.333 23.5 40 33.5c6 6 9 11 9 15z" />
    <glyph glyph-name="braceleft" unicode="{" horiz-adv-x="269" 
d="M369 654c-20 0 -36.998 -2.49805 -50.998 -7.49805s-27.333 -14.167 -40 -27.5s-25.167 -33.333 -37.5 -60s-24.833 -61.667 -37.5 -105l-5 -17c-10 -34.667 -18 -60.834 -24 -78.501s-12.333 -32.167 -19 -43.5s-14.667 -20.333 -24 -27
s-21.666 -12.334 -36.999 -17.001c12 -6 20.667 -12.667 26 -20s8 -17.333 8 -30s-2.33301 -28.834 -7 -48.501s-12.334 -48.834 -23.001 -87.501c-16.667 -61.333 -25 -106.666 -25 -135.999c0 -24.667 5.83301 -41.5 17.5 -50.5s31.834 -13.5 60.501 -13.5l1 7
c-11.333 4 -19.666 9 -24.999 15s-8 15.667 -8 29c0 12.667 2.66699 30.5 8 53.5s13.666 54.5 24.999 94.5c9.33301 33.333 16.166 59.5 20.499 78.5s6.5 34.833 6.5 47.5c0 13.333 -2.66699 24.5 -8 33.5s-14 17.833 -26 26.5c16 6.66699 29.167 14.167 39.5 22.5
s19.333 18.833 27 31.5s14.667 28.834 21 48.501s14.166 46.5 23.499 80.5c10.667 40 20.167 71.333 28.5 94s16.333 40.167 24 52.5s15.667 21.5 24 27.5s20.166 12.333 35.499 19z" />
    <glyph glyph-name="bar" unicode="|" horiz-adv-x="250" 
d="M110 750v-1000h38v1000h-38z" />
    <glyph glyph-name="braceright" unicode="}" horiz-adv-x="269" 
d="M275 265c-12.667 6 -21.6641 12.667 -26.9971 20s-8 17.333 -8 30s2.16699 28.5 6.5 47.5s12.166 48.5 23.499 88.5c16.667 61.333 25 106.666 25 135.999c0 24.667 -5.83301 41.5 -17.5 50.5s-31.834 13.5 -60.501 13.5l-1 -7c22.667 -2 34 -14.667 34 -38
c0 -24 -11.333 -75.333 -34 -154c-10 -34 -17 -60.5 -21 -79.5s-6 -34.5 -6 -46.5c0 -13.333 2.5 -24.5 7.5 -33.5s13.5 -17.833 25.5 -26.5c-16 -6.66699 -29 -14 -39 -22s-18.5 -18.167 -25.5 -30.5s-13.667 -28 -20 -47s-14.5 -46.833 -24.5 -83.5
c-11.333 -39.333 -21 -70.333 -29 -93s-15.833 -40 -23.5 -52s-15.667 -21.167 -24 -27.5s-20.166 -12.833 -35.499 -19.5l-1 -8c19.333 0 36.166 2.33301 50.499 7s27.833 13.834 40.5 27.501s25.167 33.667 37.5 60s24.833 60.833 37.5 103.5l9 29
c9.33301 32 16.666 56 21.999 72s11.333 29.5 18 40.5s14.667 19.833 24 26.5s21.333 12 36 16z" />
    <glyph glyph-name="asciitilde" unicode="~" 
d="M179 264c-14.667 0 -28.835 -5.49902 -42.502 -16.499s-29.167 -30.5 -46.5 -58.5c-0.666992 -1.33301 -1 -2.33301 -1 -3c-2.66699 -4.66699 -4 -8 -4 -10c0 -4.66699 2 -7 6 -7c5.33301 0 8.66602 1.66699 9.99902 5c8.66699 16.667 17.667 29 27 37s18 12 26 12
c8.66699 0 17.167 -3 25.5 -9s18.833 -15 31.5 -27c13.333 -13.333 25 -23.5 35 -30.5s20.667 -10.5 32 -10.5c14.667 0 28.834 5.5 42.501 16.5s29.167 30.5 46.5 58.5c0.666992 1.33301 1.33398 2.33301 2.00098 3c2 4.66699 3 8 3 10c0 4.66699 -2 7 -6 7
c-5.33301 0 -8.66602 -1.66699 -9.99902 -5c-8.66699 -16.667 -17.667 -29 -27 -37s-18 -12 -26 -12c-10 0 -19.5 3.16699 -28.5 9.5s-19.833 15.833 -32.5 28.5c-12.667 13.333 -23.667 23.166 -33 29.499s-19.333 9.5 -30 9.5z" />
    <glyph glyph-name="exclamdown" unicode="&#xa1;" horiz-adv-x="235" 
d="M285 447c0 8.66699 -0.999023 13 -2.99902 13c-0.666992 0 -1.66699 -0.666992 -3 -2c-8 -6.66699 -21.333 -13.667 -40 -21c-0.666992 -0.666992 -3 -1.66699 -7 -3c-7.33301 -2.66699 -11 -7.66699 -11 -15s2.33301 -14 7 -20c3.33301 -4.66699 7.5 -8.5 12.5 -11.5
s9.83301 -4.5 14.5 -4.5c7.33301 0 13.333 4 18 12c3.33301 5.33301 6.16602 12.833 8.49902 22.5s3.5 19.5 3.5 29.5zM232.001 312c0 8 -1.66699 15.335 -5 22.002c-0.666992 2.66699 -2.66699 4 -6 4s-5 -4 -5 -12c0 -14 -10.167 -40.333 -30.5 -79
s-49.5 -86.334 -87.5 -143.001c-12.667 -18 -22.5 -34.333 -29.5 -49s-10.5 -27.667 -10.5 -39c0 -9.33301 5 -18.5 15 -27.5s17.333 -13.5 22 -13.5c4 0 8.83301 2.66699 14.5 8s8.5 9.33301 8.5 12l-2 1c-4.66699 0 -7 2.33301 -7 7c0 6 3 16 9 30s14 31.333 24 52l12 25
l29.5 59c8.33301 17.333 16.333 35 24 53s13.667 34.667 18 50s6.5 28.666 6.5 39.999z" />
    <glyph glyph-name="cent" unicode="&#xa2;" horiz-adv-x="311" 
d="M317 156c0 2 -0.99707 4.33203 -2.99707 6.99902s-4.33301 4 -7 4c-0.666992 0 -1.33398 -0.333008 -2.00098 -1s-1.33398 -1 -2.00098 -1c-33.333 -30.667 -65.666 -55 -96.999 -73s-58 -28.333 -80 -31c11.333 26 21 47.167 29 63.5s18 34.5 30 54.5
c9.33301 16.667 15.666 27.667 18.999 33l27 46.5l25 41.5c8 -2.66699 12 -9 12 -19c0 -6 -2 -14.667 -6 -26c0 -3.33301 1 -5 3 -5s4.33301 0.833008 7 2.5s5 3.5 7 5.5c12.667 12 19 24 19 36c0 10.667 -6.66699 25.334 -20 44.001c6 8.66699 14.333 22.667 25 42
c5.33301 10.667 9.33301 18 12 22c1.33301 2.66699 2 6.66699 2 12c0 7.33301 -1.33301 14.333 -4 21s-5.66699 10 -9 10c-1.33301 0 -2.33301 -1.33301 -3 -4c-3.33301 -12 -9.5 -26.5 -18.5 -43.5s-17.833 -32.5 -26.5 -46.5c-4 1.33301 -10 2 -18 2
c-15.333 0 -31 -4.66699 -47 -14c-16.667 -9.33301 -34.334 -22.5 -53.001 -39.5s-36.167 -36.167 -52.5 -57.5s-29.666 -43.333 -39.999 -66s-15.5 -44.334 -15.5 -65.001c0 -22.667 5.33301 -40.334 16 -53.001c12.667 -16 30 -24.667 52 -26c-8 -30.667 -14 -60 -18 -88
c0 -8 1.33301 -12 4 -12c0.666992 0 1.66699 1.66699 3 5c2 10 5.33301 23.333 10 40s10.334 35.334 17.001 56.001c11.333 0.666992 25.166 4 41.499 10s33.5 14.333 51.5 25c39.333 23.333 74.666 51 105.999 83c2.66699 2.66699 4 4.33398 4 5.00098zM225.003 295.999
c-2 -3.33301 -5.00195 -8.66797 -9.00195 -16.001c-15.333 -25.333 -26.166 -43.666 -32.499 -54.999l-25.5 -48c-7.33301 -14.667 -13.333 -27.5 -18 -38.5l-20 -47.5l-13 -31c-15.333 0 -26 6.66699 -32 20c-2 4 -3 9 -3 15c0 23.333 11.667 53 35 89s52 67 86 93
c10.667 8.66699 21.334 15 32.001 19z" />
    <glyph glyph-name="sterling" unicode="&#xa3;" horiz-adv-x="456" 
d="M453 420c0 7.33301 -5.50098 17.8291 -16.501 31.4961s-22.833 25.5 -35.5 35.5c-12 9.33301 -24.333 14 -37 14c-14.667 0 -29 -6.16699 -43 -18.5s-26.833 -28.5 -38.5 -48.5s-22.334 -40.5 -32.001 -61.5s-20.5 -46.167 -32.5 -75.5
c-12.667 -31.333 -21.334 -51.666 -26.001 -60.999c-4.66699 -0.666992 -15.667 -1 -33 -1c-13.333 0 -24.5 0.5 -33.5 1.5s-13.833 3.16699 -14.5 6.5c0 2.66699 -1 4 -3 4s-4 -2.16699 -6 -6.5s-3 -7.83301 -3 -10.5c0.666992 -14 6.5 -23 17.5 -27s27.167 -6 48.5 -6
c8 0 12 -1.33301 12 -4c-2 -8.66699 -6 -20.334 -12 -35.001s-12.5 -29.334 -19.5 -44.001s-14 -27.667 -21 -39s-12.833 -18.666 -17.5 -21.999l-3 -2c-3.33301 -3.33301 -6.33301 -5 -9 -5c-40.667 12 -70 18 -88 18c-19.333 0 -34.666 -7.66699 -45.999 -23
c-6 -8 -9 -15.667 -9 -23c0 -10.667 5.5 -20.834 16.5 -30.501s22.167 -16.167 33.5 -19.5c6.66699 -1.33301 11.667 -2 15 -2c11.333 0 23.166 2.66699 35.499 8s23.833 12.666 34.5 21.999c2.66699 2.66699 5.66699 4 9 4c4 0 7.33301 -0.333008 10 -1
c10.667 -3.33301 26.667 -9 48 -17c34 -12 63.667 -21.5 89 -28.5s50 -10.5 74 -10.5c26.667 0 50.5 5.16699 71.5 15.5s38.833 28.5 53.5 54.5c0 0.666992 0.333008 1.33398 1 2.00098v1c0 2.66699 -1.66699 4 -5 4c-4 0 -7 -1.66699 -9 -5
c-4 -9.33301 -13.833 -16.166 -29.5 -20.499s-35.5 -6.5 -59.5 -6.5c-30 0 -63.167 3.33301 -99.5 10s-70.833 16.334 -103.5 29.001h-1c-8 2 -12.333 4.33301 -13 7c5.33301 2.66699 11.666 8.33398 18.999 17.001s15.333 19.5 24 32.5s15.667 24.167 21 33.5l27 46l13 23
c2.66699 4.66699 5.33398 7.66699 8.00098 9s8.66699 2.33301 18 3c4 0.666992 19.667 2.33398 47 5.00098c18.667 2 35.834 4 51.501 6s27.167 3.33301 34.5 4c10.667 1.33301 16 3.33301 16 6c0 2 -4.66699 3.66699 -14 5c-11.333 0.666992 -31.333 1.33398 -60 2.00098
c-28 0.666992 -48.333 1.33398 -61 2.00098c-10 0.666992 -15 4 -15 10c32.667 70 59.834 122 81.501 156s42.834 51 63.501 51c8.66699 0 17.667 -3.66699 27 -11c3.33301 -2.66699 6.33301 -7.33398 9 -14.001c2 -6.66699 4.66699 -10 8 -10c2 0 5.33301 1.33301 10 4
c1.33301 0.666992 2 2.66699 2 6zM65.999 13.9961c0 -0.666992 -0.999023 -2.33105 -2.99902 -4.99805s-3.66699 -4.66699 -5 -6c-5.33301 -5.33301 -10.833 -9.83301 -16.5 -13.5s-12.5 -5.5 -20.5 -5.5c-12.667 0 -23.167 2.16699 -31.5 6.5s-12.5 10.833 -12.5 19.5
c0 7.33301 3.16699 13.166 9.5 17.499s14.166 6.5 23.499 6.5c12 0 27.333 -4 46 -12c6.66699 -2.66699 10 -5.33398 10 -8.00098z" />
    <glyph glyph-name="currency" unicode="&#xa4;" horiz-adv-x="500" 
d="M72 188c0 -22.667 3.66602 -44.667 10.999 -66s17.333 -38.666 30 -51.999l-67 -61l30 -29l63 64c12 -12 28.5 -21.833 49.5 -29.5s42.5 -11.5 64.5 -11.5c21.333 0 42.166 3.66699 62.499 11s37.5 17.333 51.5 30l63 -64l30 29l-67 61c12 15.333 21.833 33.5 29.5 54.5
s11.5 42.167 11.5 63.5c0 22.667 -3.66699 44.667 -11 66s-17.333 38.666 -30 51.999l67 62l-30 28l-63 -63c-12 12 -28.667 21.667 -50 29s-42.666 11 -63.999 11s-42.166 -3.66699 -62.499 -11s-37.5 -17 -51.5 -29l-63 63l-30 -28l67 -62
c-12 -14.667 -21.833 -32.5 -29.5 -53.5s-11.5 -42.5 -11.5 -64.5zM393.999 188c0 -42 -12.833 -77.833 -38.5 -107.5s-59.834 -44.5 -102.501 -44.5c-43.333 0 -77.666 14.667 -102.999 44s-38 65.333 -38 108s12.667 78.667 38 108s59.666 44 102.999 44
c42.667 0 76.834 -14.833 102.501 -44.5s38.5 -65.5 38.5 -107.5z" />
    <glyph glyph-name="yen" unicode="&#xa5;" horiz-adv-x="637" 
d="M675 185l-0.999023 13.002l-158 -30c19.333 35.333 34 68 44 98s15 56.333 15 79c0 18 -3.33301 31.667 -10 41c-4.66699 7.33301 -13.667 11 -27 11c-11.333 0 -25 -3.33301 -41 -10s-32.833 -15.5 -50.5 -26.5l-53.5 -35l-72 -51.5c-51.333 -38 -88.333 -64 -111 -78
c-11.333 -6.66699 -20.333 -10 -27 -10s-10 3.66699 -10 11c0 10 6.33301 25 19 45c15.333 25.333 32 48.166 50 68.499s40.333 44.166 67 71.499c26.667 26.667 46 47.667 58 63s18 30.333 18 45c0 9.33301 -3.66699 19.333 -11 30c-8 12 -24.667 18 -50 18
c-14 0 -30.167 -1.83301 -48.5 -5.5s-36.833 -8.5 -55.5 -14.5s-37.167 -12.667 -55.5 -20s-34.833 -14.666 -49.5 -21.999c-1.33301 0 -2 1 -2 3v6c0.666992 1.33301 1 2.33301 1 3s-0.333008 1 -1 1c-2 0 -7.33301 -3 -16 -9c-4.66699 -2.66699 -7 -8 -7 -16
c0 -7.33301 2.33301 -13.833 7 -19.5s10.667 -8.5 18 -8.5c5.33301 0 13.5 2.5 24.5 7.5l47.5 22.5c32 16.667 59.167 29.5 81.5 38.5s41.166 13.5 56.499 13.5s23 -4.66699 23 -14c0 -8 -6.33301 -18.667 -19 -32s-32.334 -32.333 -59.001 -57l-56.5 -53
c-15.667 -15.333 -30.667 -31.5 -45 -48.5s-25.833 -33.833 -34.5 -50.5s-13 -32.334 -13 -47.001c0 -7.33301 1.66699 -15.333 5 -24c6 -14 13.667 -25.667 23 -35s21.666 -14 36.999 -14c7.33301 0 13.333 0.666992 18 2c17.333 4 37.5 12.5 60.5 25.5
s46.833 28.333 71.5 46l75 56l78 62.5l21 17c4.66699 4 9.33398 6 14.001 6c7.33301 0 11 -7.33301 11 -22c0 -20 -6.33301 -47.167 -19 -81.5s-29.334 -66.5 -50.001 -96.5l-216 -41v-15l204 40c-2 -2 -3.33301 -3.66699 -4 -5c-7.33301 -8.66699 -16 -17 -26 -25
c-6 -4.66699 -9.66699 -7.66699 -11 -9c-3.33301 -2.66699 -7.66602 -6.66699 -12.999 -12l-178 -34v-14l160 31c-14.667 -14.667 -28.667 -29.5 -42 -44.5s-25.5 -30 -36.5 -45s-19.5 -28.667 -25.5 -41s-9 -22.5 -9 -30.5c0 -20 6.66699 -30 20 -30
c6.66699 0 14.334 2.66699 23.001 8c19.333 12 43 36 71 72s57.333 78.667 88 128l176 34l-1 14l-166 -32c12 18 21 33 27 45z" />
    <glyph glyph-name="brokenbar" unicode="&#xa6;" horiz-adv-x="250" 
d="M110 175v-350h38v350h-38zM110 675v-350h38v350h-38z" />
    <glyph glyph-name="section" unicode="&#xa7;" horiz-adv-x="500" 
d="M132 354c0 -23.333 3.83691 -46.498 11.5039 -69.498s20.5 -45.5 38.5 -67.5c7.33301 -8.66699 11.666 -13.667 12.999 -15l49 -60c18 -22.667 29.667 -42.667 35 -60s8 -36.333 8 -57c0 -8.66699 -3.33301 -17.667 -10 -27s-15.167 -17.833 -25.5 -25.5
s-21 -13.834 -32 -18.501s-20.5 -7 -28.5 -7c-17.333 0 -32.166 3.83301 -44.499 11.5s-22.5 15.5 -30.5 23.5l-1 1c-3.33301 3.33301 -7.33301 5 -12 5h-3c-1.33301 -0.666992 -2.33301 -1 -3 -1c-5.33301 -2 -11.5 -6.66699 -18.5 -14s-11.167 -14.333 -12.5 -21v-3
c-0.666992 -0.666992 -1 -1.33398 -1 -2.00098c0 -7.33301 4 -15.333 12 -24c8 -7.33301 18.5 -13.5 31.5 -18.5s23.167 -7.5 30.5 -7.5c27.333 3.33301 55.166 11.5 83.499 24.5s58.166 32.167 89.499 57.5c18.667 14.667 36 29.834 52 45.501s31.667 33.167 47 52.5
s27.833 40 37.5 62s14.5 44 14.5 66c0 30 -5.33301 58.667 -16 86s-26.334 52.333 -47.001 75c-7.33301 8 -27 30.667 -59 68l-14 16c-11.333 13.333 -19.166 26 -23.499 38s-6.5 25 -6.5 39c0 19.333 8.66699 35.5 26 48.5s37.666 19.5 60.999 19.5
c17.333 0 31.166 -3.5 41.499 -10.5s19.833 -15.167 28.5 -24.5c1.33301 -2 2.33301 -3.33301 3 -4c2.66699 -2.66699 6 -4 10 -4c2.66699 0 5.66699 0.666992 9 2c5.33301 3.33301 10.5 8 15.5 14s7.83301 12.667 8.5 20v3l1 2c0 5.33301 -2.33301 10 -7 14
c-8.66699 9.33301 -17.834 17.166 -27.501 23.499s-20.834 9.5 -33.501 9.5c-33.333 -4 -62.666 -11.833 -87.999 -23.5s-52.666 -29.5 -81.999 -53.5c-39.333 -32 -71 -64.833 -95 -98.5s-36 -70.5 -36 -110.5zM183.004 398.002c0 22.667 7.00098 44.832 21.001 66.499
s31.333 39.5 52 53.5l1 -4c-4 -12.667 -6 -24.667 -6 -36c0 -23.333 7.33301 -46 22 -68s34.667 -47.333 60 -76c11.333 -12 19.666 -21.333 24.999 -28c22.667 -27.333 37.334 -51.833 44.001 -73.5s10 -44.834 10 -69.501c0 -20 -8 -41.667 -24 -65
s-35 -42.666 -57 -57.999l-2 1c2.66699 12 4 29 4 51c0 19.333 -6.33301 40.833 -19 64.5s-27 44.834 -43 63.501l-46 54c-16.667 20 -27.834 39.667 -33.501 59s-8.5 41 -8.5 65z" />
    <glyph glyph-name="dieresis" unicode="&#xa8;" horiz-adv-x="361" 
d="M361 412c0 6 -1.33398 8.99902 -4.00098 8.99902c-5.33301 -4 -15.666 -7.66699 -30.999 -11c-14 -2.66699 -21.667 -5.66699 -23 -9c-0.666992 -2 -1 -5.66699 -1 -11c1.33301 -4.66699 4.33301 -9.16699 9 -13.5s9.66699 -6.5 15 -6.5
c8.66699 0 16.5 3.83301 23.5 11.5s10.833 17.834 11.5 30.501zM230.999 411.999c0 6 -1.33203 8.99902 -3.99902 8.99902c-6 -4 -16.333 -7.66699 -31 -11c-12.667 -2.66699 -20.334 -5.66699 -23.001 -9v-2c-0.666992 -3.33301 -1 -6.33301 -1 -9
c4.66699 -13.333 12.667 -20 24 -20c8.66699 0 16.5 3.83301 23.5 11.5s10.833 17.834 11.5 30.501z" />
    <glyph glyph-name="copyright" unicode="&#xa9;" horiz-adv-x="700" 
d="M551 366l-6.49805 51.999c-1.66699 14 -3.5 26.667 -5.5 38c-10 4.66699 -23.833 8.66699 -41.5 12s-37.834 5 -60.501 5c-54 0 -99.833 -15.833 -137.5 -47.5s-56.5 -74.167 -56.5 -127.5c0 -20.667 3.83301 -41.167 11.5 -61.5s19.5 -38.666 35.5 -54.999
s36 -29.333 60 -39s51.333 -14.5 82 -14.5c19.333 0 38 2 56 6s34.333 8.33301 49 13c2 6 4.5 14.5 7.5 25.5s6.5 24.833 10.5 41.5c1.33301 4.66699 3.33301 13 6 25l-20 4c-12 -27.333 -26.667 -48.333 -44 -63s-39 -22 -65 -22c-34.667 0 -63.334 13.5 -86.001 40.5
s-34 62.167 -34 105.5c0 42 10.167 75.833 30.5 101.5s48.166 38.5 83.499 38.5c26.667 0 47.834 -6.66699 63.501 -20s29.5 -34 41.5 -62zM410.002 602.999c-41.333 0 -80.5 -7.66699 -117.5 -23s-69.167 -36.833 -96.5 -64.5s-48.666 -60 -63.999 -97
s-23 -76.5 -23 -118.5c0 -41.333 7.66699 -80.166 23 -116.499s36.666 -68.333 63.999 -96s59.333 -49.167 96 -64.5s76 -23 118 -23s81.333 7.66699 118 23s68.667 36.666 96 63.999s48.666 59.333 63.999 96s23 75.667 23 117c0 42 -7.66699 81.5 -23 118.5
s-36.666 69.333 -63.999 97s-59.333 49.167 -96 64.5s-76 23 -118 23zM410.002 565.999c35.333 0 68.333 -6.66699 99 -20s57.167 -32 79.5 -56s39.666 -52.167 51.999 -84.5s18.5 -67.166 18.5 -104.499c0 -36.667 -6.16699 -71 -18.5 -103s-29.666 -60.167 -51.999 -84.5
s-48.833 -43.166 -79.5 -56.499s-63.667 -20 -99 -20s-68.166 6.66699 -98.499 20s-56.833 32.166 -79.5 56.499s-40.167 52.5 -52.5 84.5s-18.5 66.333 -18.5 103c0 37.333 6.16699 72.166 18.5 104.499s29.833 60.5 52.5 84.5s49.167 42.667 79.5 56s63.166 20 98.499 20z
" />
    <glyph glyph-name="ordfeminine" unicode="&#xaa;" horiz-adv-x="365" 
d="M100 369c0 -10 3.83301 -19.167 11.5 -27.5s16.5 -12.5 26.5 -12.5c6 0 12.333 2 19 6c12 8 24.667 18.667 38 32l48 50l35 36c1.33301 0.666992 2.33301 1.33398 3 2.00098c2 0 3 -1.33301 3 -4v-2l-1 -2c-18 -32 -27 -58.333 -27 -79c0 -22 8.66699 -33 26 -33
c7.33301 0 14.333 1.66699 21 5c6 2.66699 14.667 8.33398 26 17.001s23 18.667 35 30s23 22.666 33 33.999s17.333 20.333 22 27c1.33301 2.66699 2 4.66699 2 6c0 2 -1.33301 3 -4 3s-6 -2 -10 -6c-28 -30 -52.167 -53.5 -72.5 -70.5s-34.166 -25.5 -41.499 -25.5
c-3.33301 0 -5 3.33301 -5 10c2.66699 12.667 8.16699 27.667 16.5 45s17.5 33.666 27.5 48.999c3.33301 5.33301 5 10.333 5 15c0 15.333 -6.33301 23 -19 23c-2 0 -5 -1 -9 -3c-6 -2.66699 -15.833 -9.83398 -29.5 -21.501s-31.167 -27.834 -52.5 -48.501l-33 -30
c-8 -7.33301 -15.667 -14 -23 -20c-13.333 -10.667 -22 -16 -26 -16c-2.66699 0 -4 2 -4 6c0 5.33301 1 10 3 14c9.33301 22 21.5 42.667 36.5 62s31 36.333 48 51s33.167 25.834 48.5 33.501s27.666 11.5 36.999 11.5c6 0 10.667 -2.33301 14 -7c4 -5.33301 7 -8 9 -8
c5.33301 0 8 3 8 9l-1 2v2c-4 14 -9.5 24.167 -16.5 30.5s-15.167 9.5 -24.5 9.5c-6.66699 0 -15 -1.66699 -25 -5c-30 -14 -61.667 -38.667 -95 -74s-60 -72.666 -80 -111.999c-2 -4 -3 -8.66699 -3 -14z" />
    <glyph glyph-name="guillemotleft" unicode="&#xab;" horiz-adv-x="500" 
d="M491 392c0 3.33301 -1.33301 5.00098 -4 5.00098c-2 0 -5.66699 -1.66699 -11 -5c-76 -46.667 -131 -85.667 -165 -117s-51 -59.666 -51 -84.999c0 -20 10.667 -39.333 32 -58s53.666 -39.334 96.999 -62.001c4 -1.33301 6.66699 -2 8 -2c4.66699 0 7 2 7 6
c0 2.66699 -2.33301 6 -7 10c-30 21.333 -52 39.666 -66 54.999s-21 30.333 -21 45c0 20 12.833 44.167 38.5 72.5s70.834 69.5 135.501 123.5c4.66699 4.66699 7 8.66699 7 12zM350 392.001c0 3.33301 -1.33301 5.00098 -4 5.00098c-2 0 -5.66699 -1.66699 -11 -5
c-76 -46.667 -131 -85.667 -165 -117s-51 -59.666 -51 -84.999c0 -20 10.667 -39.333 32 -58s53.666 -39.334 96.999 -62.001c4 -1.33301 6.66699 -2 8 -2c4.66699 0 7 2 7 6c0 2.66699 -2.33301 6 -7 10c-30 21.333 -52 39.666 -66 54.999s-21 30.333 -21 45
c0 20 12.833 44.167 38.5 72.5s70.834 69.5 135.501 123.5c4.66699 4.66699 7 8.66699 7 12z" />
    <glyph glyph-name="logicalnot" unicode="&#xac;" 
d="M75 262v-33h242v-107h35v140h-277z" />
    <glyph glyph-name="minus" unicode="&#xad;" 
d="M352 181v33h-277v-33h277z" />
    <glyph glyph-name="minus" unicode="&#x2212;" 
d="M352 181v33h-277v-33h277z" />
    <glyph glyph-name="registered" unicode="&#xae;" horiz-adv-x="600" 
d="M380 211c30 0 58.167 5.5 84.5 16.5s49.166 26.167 68.499 45.5s34.333 42 45 68s16 53.333 16 82c0 29.333 -5.33301 57 -16 83s-25.667 48.667 -45 68s-42.166 34.333 -68.499 45s-54.5 16 -84.5 16s-58.167 -5.33301 -84.5 -16s-49.166 -25.667 -68.499 -45
s-34.333 -42 -45 -68s-16 -53.667 -16 -83c0 -28.667 5.33301 -56 16 -82s25.667 -48.667 45 -68s42.166 -34.5 68.499 -45.5s54.5 -16.5 84.5 -16.5zM380 244c-49.333 0 -90.167 16.833 -122.5 50.5s-48.5 76.5 -48.5 128.5c0 51.333 16.333 94 49 128
s73.334 51 122.001 51c24 0 46.5 -4.5 67.5 -13.5s39.167 -21.5 54.5 -37.5s27.333 -35 36 -57s13 -45.667 13 -71c0 -52 -16.333 -94.833 -49 -128.5s-73.334 -50.5 -122.001 -50.5zM274.999 542v-18c15.333 -0.666992 24.5 -2.83398 27.5 -6.50098s4.5 -13.167 4.5 -28.5
v-130c0 -14.667 -1.66699 -23.834 -5 -27.501s-12.666 -6.16699 -27.999 -7.5v-18h107v18c-14.667 1.33301 -23.667 3.83301 -27 7.5s-5 12.834 -5 27.501v48h13c9.33301 0 16.333 -4 21 -12l13.5 -24.5c6.33301 -11.667 12.5 -22.167 18.5 -31.5
c8 -12 16.667 -20.5 26 -25.5s21.333 -8.16699 36 -9.5h17l3 15l-3 1c-7.33301 2.66699 -14 7.66699 -20 15c-8.66699 10 -17.334 21 -26.001 33l-15.5 25.5l-15.5 26.5c14.667 4.66699 26.5 12.334 35.5 23.001s13.5 23 13.5 37c0 23.333 -8 39.5 -24 48.5
s-35.667 13.5 -59 13.5h-108zM348.999 506c0 8 1 12.833 3 14.5s8.66699 2.5 20 2.5c12 0 22.833 -3.83301 32.5 -11.5s14.5 -20.167 14.5 -37.5c0 -7.33301 -1.5 -15 -4.5 -23s-8.5 -14.333 -16.5 -19c-8 -4 -17 -6 -27 -6h-22v80z" />
    <glyph glyph-name="macron" unicode="&#xaf;" horiz-adv-x="358" 
d="M358 392v33h-234v-33h234z" />
    <glyph glyph-name="degree" unicode="&#xb0;" horiz-adv-x="269" 
d="M311 360c0 30.667 -10.667 57.334 -32 80.001s-47.666 34 -78.999 34c-30 0 -55.833 -11.333 -77.5 -34s-32.5 -49.334 -32.5 -80.001c0 -32 10.833 -58.833 32.5 -80.5s47.5 -32.5 77.5 -32.5c31.333 0 57.666 11.167 78.999 33.5s32 48.833 32 79.5zM115 360
c0 23.333 8.33301 44 25 62s37 27 61 27c23.333 0 43.333 -9 60 -27s25 -39.333 25 -64c0 -22.667 -8.33301 -42.667 -25 -60s-36.667 -26 -60 -26s-43.5 8.33301 -60.5 25s-25.5 37.667 -25.5 63z" />
    <glyph glyph-name="plusminus" unicode="&#xb1;" 
d="M352 232v33h-121v129h-36v-129h-120v-33h120v-125h36v125h121zM352 35v33h-277v-33h277z" />
    <glyph glyph-name="twosuperior" unicode="&#xb2;" horiz-adv-x="303" 
d="M313 481c0 8.66699 -2.33203 16.334 -6.99902 23.001c-6 8.66699 -15 15.334 -27 20.001s-24.667 7 -38 7c-15.333 0 -31 -2.5 -47 -7.5s-28.333 -11.167 -37 -18.5c-5.33301 -3.33301 -8 -9.66602 -8 -18.999c0 -5.33301 0.833008 -9.83301 2.5 -13.5s4.5 -5.5 8.5 -5.5
c20 6 30 12.667 30 20c0 1.33301 -0.333008 2.66602 -1 3.99902c1.33301 2.66699 9.66602 6.66699 24.999 12s29.333 8 42 8c11.333 0 20 -2.66699 26 -8c3.33301 -2.66699 5 -6.66699 5 -12c0 -8 -6.33301 -18 -19 -30s-32.667 -28 -60 -48
c-34.667 -26 -62 -48.167 -82 -66.5s-34.667 -36.833 -44 -55.5c-4 -10.667 -6 -19.667 -6 -27c0 -14.667 3.66699 -27.834 11 -39.501s17.333 -17.5 30 -17.5c8.66699 0 20.167 2.66699 34.5 8s33.5 13.333 57.5 24l49.5 20c13.667 5.33301 26.167 9.66602 37.5 12.999
c6 1.33301 9 3.33301 9 6c0 2 -1.33301 3 -4 3c-16.667 0 -37.5 -3 -62.5 -9s-55.833 -14.333 -92.5 -25l-19 -5c-8.66699 0 -13 5 -13 15c2 11.333 10 23.833 24 37.5s35.667 32.5 65 56.5c35.333 30 62.5 54.833 81.5 74.5s28.5 38.167 28.5 55.5z" />
    <glyph glyph-name="threesuperior" unicode="&#xb3;" horiz-adv-x="290" 
d="M353 485c0 8 -4.00098 15.3311 -12.001 21.998c-7.33301 8 -20.666 12 -39.999 12c-14 0 -29.167 -1.66699 -45.5 -5s-32.833 -7.33301 -49.5 -12c-13.333 -3.33301 -21 -5 -23 -5c-2.66699 0 -5 -0.333008 -7 -1s-3 -2 -3 -4c0 -5.33301 2.5 -10.166 7.5 -14.499
s11.5 -6.5 19.5 -6.5c7.33301 0 15.333 1.5 24 4.5s20.334 7.5 35.001 13.5c12 5.33301 22 9.33301 30 12s15 4 21 4c4.66699 0 8.33398 -0.666992 11.001 -2c4 -2.66699 6 -5.66699 6 -9c0 -5.33301 -4 -11.666 -12 -18.999s-18.5 -15 -31.5 -23s-26 -15.167 -39 -21.5
l-37.5 -17.5c-12 -5.33301 -18 -11.666 -18 -18.999c0 -4.66699 2.5 -9 7.5 -13s10.167 -6 15.5 -6c4 0 7 1 9 3c11.333 8 26 12 44 12c10 0 18.5 -1.83301 25.5 -5.5s10.5 -9.83398 10.5 -18.501c0 -14.667 -8.66699 -30 -26 -46s-39.166 -30.833 -65.499 -44.5
s-52 -24.5 -77 -32.5s-44.167 -12 -57.5 -12c-8.66699 0 -14 2 -16 6c-1.33301 4 -4 6 -8 6s-6 -3 -6 -9c0 -10.667 3.83301 -18.5 11.5 -23.5s18.5 -7.5 32.5 -7.5c18 0 38.833 3.33301 62.5 10s47.667 15.834 72 27.501s46.166 24.667 65.499 39
s33.666 29.166 42.999 44.499c4 6.66699 6 14.667 6 24c0 14 -6 26 -18 36s-30.333 15 -55 15c-4 0 -6 0.666992 -6 2s2.33301 3.33301 7 6c31.333 18.667 53.666 34 66.999 46s20 22.667 20 32z" />
    <glyph glyph-name="acute" unicode="&#xb4;" horiz-adv-x="361" 
d="M329 446c0 4.66699 -1.83203 9.66797 -5.49902 15.001s-7.83398 8 -12.501 8c-3.33301 0 -6 -0.666992 -8 -2c-4.66699 -2.66699 -13.167 -8.33398 -25.5 -17.001l-35 -25.5l-34.5 -26.5c-12 -9.33301 -21.333 -17 -28 -23c-2.66699 -2 -4 -4 -4 -6s1.33301 -3 4 -3
c0.666992 0 1.66699 0.333008 3 1l3 1l81.5 40c23.667 11.333 41.167 19.333 52.5 24c6 3.33301 9 8 9 14z" />
    <glyph glyph-name="mu" unicode="&#xb5;" horiz-adv-x="500" 
d="M134 2l1.00098 -0.000976562c6 -14.667 14.333 -22 25 -22c6 0 13.833 2.33301 23.5 7s19.167 10.334 28.5 17.001c19.333 14 38 30.5 56 49.5s38.667 42.167 62 69.5c2 2 4.33301 4.66699 7 8h2c-2 -9.33301 -4.33301 -19.666 -7 -30.999
c-4.66699 -20.667 -9 -38.334 -13 -53.001c-4 -16 -6 -29 -6 -39s1.66699 -17.167 5 -21.5s8 -6.5 14 -6.5c3.33301 0 9.66602 2 18.999 6s20 9.5 32 16.5s24.167 15 36.5 24s23.166 17.833 32.499 26.5c4 2.66699 6 6.33398 6 11.001c-1.33301 4.66699 -4.33301 7 -9 7
c-2 0 -4.33301 -1 -7 -3c-12 -8.66699 -24.333 -16.334 -37 -23.001s-20.667 -10 -24 -10c-2.66699 0 -4 3.33301 -4 10c0 4.66699 0.666992 11.334 2 20.001c22 103.333 46 194 72 272c0 6 -2 9 -6 9l-1 -1h-2l-59 -25c-3.33301 -22.667 -8.16602 -46.334 -14.499 -71.001
s-12.166 -42 -17.499 -52c-13.333 -28.667 -38.333 -62 -75 -100c-20 -22 -38.333 -39 -55 -51s-30.334 -18 -41.001 -18c-12 0 -18 9.33301 -18 28c0 11.333 2.33301 26 7 44l34 139.5c10 39.667 19.333 72.5 28 98.5c0 5.33301 -3 8 -9 8l-59 -25l-61 -260
c-25.333 -101.333 -48 -187.333 -68 -258c0 -6 1.66699 -9 5 -9h2l2 1l59 24z" />
    <glyph glyph-name="paragraph" unicode="&#xb6;" horiz-adv-x="500" 
d="M415 646c-33.333 0 -65.6689 -6.00293 -97.002 -18.0029s-59.5 -29.167 -84.5 -51.5s-44.833 -49.166 -59.5 -80.499s-22 -65.666 -22 -102.999c0 -23.333 3.5 -45.666 10.5 -66.999s16.667 -40 29 -56s26.333 -28.333 42 -37s31.5 -13 47.5 -13c8 0 14 1 18 3l68 30
l-33 -169c-6.66699 -34 -14 -61.833 -22 -83.5s-16.333 -38 -25 -49s-17.5 -18.5 -26.5 -22.5s-18.833 -6 -29.5 -6s-21.667 2 -33 6s-20.666 9.33301 -27.999 16c-3.33301 2.66699 -6.66602 4 -9.99902 4c-4 0 -8.33301 -2 -13 -6c-4 -2.66699 -9 -7.33398 -15 -14.001
l-4 -5c-3.33301 -5.33301 -5 -10.333 -5 -15s2.33301 -9.66699 7 -15c6.66699 -7.33301 16.167 -13.833 28.5 -19.5s25.5 -8.5 39.5 -8.5c9.33301 0 23 4.33301 41 13s34 19.334 48 32.001c28.667 25.333 51.167 53.833 67.5 85.5s28.5 69.167 36.5 112.5l97 491l88 11
l34 22l-3 13h-192z" />
    <glyph glyph-name="periodcentered" unicode="&#xb7;" horiz-adv-x="224" 
d="M182 228c0 13.333 -4.66895 25 -14.002 35s-20.666 15 -33.999 15c-12.667 0 -23.667 -4.83301 -33 -14.5s-14 -21.167 -14 -34.5c0 -14 4.66699 -25.5 14 -34.5s20.333 -13.5 33 -13.5s23.834 4.66699 33.501 14s14.5 20.333 14.5 33z" />
    <glyph glyph-name="periodcentered" unicode="&#x2219;" horiz-adv-x="224" 
d="M182 228c0 13.333 -4.66895 25 -14.002 35s-20.666 15 -33.999 15c-12.667 0 -23.667 -4.83301 -33 -14.5s-14 -21.167 -14 -34.5c0 -14 4.66699 -25.5 14 -34.5s20.333 -13.5 33 -13.5s23.834 4.66699 33.501 14s14.5 20.333 14.5 33z" />
    <glyph glyph-name="cedilla" unicode="&#xb8;" horiz-adv-x="241" 
d="M186 -15c0 4.66699 -1.16797 9.16699 -3.50098 13.5s-5.16602 6.5 -8.49902 6.5c-24 -2 -47 -8.83301 -69 -20.5s-33 -24.5 -33 -38.5c0 -12.667 11.333 -25 34 -37c15.333 -8 23 -17.333 23 -28s-7.16699 -22 -21.5 -34s-34.166 -24.333 -59.499 -37
c-3.33301 -2 -5 -4 -5 -6c0 -3.33301 2.33301 -5 7 -5h2c1.33301 0.666992 2.33301 1 3 1c37.333 10.667 64.666 23.167 81.999 37.5s26 28.833 26 43.5c0 10 -3.66699 19.333 -11 28s-17 14.667 -29 18c-12.667 4 -19 8.66699 -19 14c0 6.66699 8.5 13.667 25.5 21
s34.167 12 51.5 14c3.33301 0 5 3 5 9z" />
    <glyph glyph-name="onesuperior" unicode="&#xb9;" horiz-adv-x="182" 
d="M251 508c0 4 -0.666992 6.66797 -2 8.00098c-7.33301 12 -14.333 18 -21 18c-5.33301 0 -11.333 -4.33301 -18 -13c-2.66699 -2.66699 -4 -4.66699 -4 -6c0 -2.66699 1.66699 -4 5 -4l2 1c2 1.33301 3.66699 2 5 2s2 -1 2 -3c0 -4 -9.33301 -19.667 -28 -47l-33 -50
c-22 -36.667 -39 -67.834 -51 -93.501s-18 -49.834 -18 -72.501c0 -19.333 5.66699 -35.666 17 -48.999c1.33301 -2.66699 3 -4 5 -4c2.66699 0 4 2.66699 4 8c0 15.333 6 36 18 62s29.667 60.333 53 103l13 25c16 29.333 28.5 53.833 37.5 73.5s13.5 33.5 13.5 41.5z" />
    <glyph glyph-name="ordmasculine" unicode="&#xba;" horiz-adv-x="335" 
d="M344 467c0 10 -2.33301 19.332 -7 27.999c-10.667 16.667 -23.334 28.334 -38.001 35.001c0.666992 1.33301 2 3 4 5c3.33301 4 5 7.33301 5 10c0 4 -5 11.333 -15 22c-4.66699 3.33301 -8 5 -10 5c-2.66699 0 -7 -2 -13 -6c-16 -11.333 -32.667 -25 -50 -41
s-33.5 -33.167 -48.5 -51.5s-27 -36.5 -36 -54.5s-13.5 -34.667 -13.5 -50c0 -20 8.66699 -35.667 26 -47c6.66699 -4.66699 15.334 -7 26.001 -7c15.333 0 32.833 4.83301 52.5 14.5s38.5 22.167 56.5 37.5s32.667 32 44 50s17 34.667 17 50zM320 471.999
c0 -23.333 -10.5 -47.168 -31.5 -71.501s-46.833 -43.166 -77.5 -56.499c-15.333 -6 -26.333 -9 -33 -9c-12.667 0 -20 6 -22 18c0 11.333 4 24.5 12 39.5s18.5 30.5 31.5 46.5s26.667 30.833 41 44.5s27.833 24.5 40.5 32.5c19.333 -3.33301 31.333 -12 36 -26
c2 -6 3 -12 3 -18z" />
    <glyph glyph-name="guillemotright" unicode="&#xbb;" horiz-adv-x="500" 
d="M486 271c0 20 -10.5 39.5 -31.5 58.5s-53.5 39.5 -97.5 61.5c-4 1.33301 -6.66699 2 -8 2c-4.66699 0 -7 -1.66699 -7 -5s2.66699 -6.66602 8 -9.99902c31.333 -23.333 53.5 -42 66.5 -56s19.5 -28.667 19.5 -44c0 -20.667 -12 -44.167 -36 -70.5s-70 -68.5 -138 -126.5
c-4 -2.66699 -6 -6.33398 -6 -11.001c0 -3.33301 1.66699 -5 5 -5c2 0 5.33301 1.33301 10 4c74.667 46 129.167 84.833 163.5 116.5s51.5 60.167 51.5 85.5zM345 270c0 20 -10.502 39.5 -31.502 58.5s-53.5 39.833 -97.5 62.5c-4 1.33301 -6.66699 2 -8 2
c-4.66699 0 -7 -1.66699 -7 -5s2.66699 -6.66602 8 -9.99902c30.667 -22.667 52.834 -41.334 66.501 -56.001s20.5 -29.667 20.5 -45c0 -19.333 -13 -43.5 -39 -72.5s-71 -70.5 -135 -124.5c-4.66699 -3.33301 -7 -7.33301 -7 -12c0 -2.66699 1.33301 -4 4 -4
s6.33398 1.33301 11.001 4c74.667 46 129.167 85 163.5 117s51.5 60.333 51.5 85z" />
    <glyph glyph-name="onequarter" unicode="&#xbc;" horiz-adv-x="576" 
d="M554 79c0 0.666992 -1.00098 1.00391 -3.00098 1.00391c-11.333 -2 -27.833 -4 -49.5 -6s-38.5 -3.33301 -50.5 -4c-2.66699 0 -4 0.666992 -4 2c0 2 0.666992 3.66699 2 5c8 16.667 24.667 44 50 82l42 66c3.33301 5.33301 5 11.666 5 18.999
c0 8.66699 -5.66699 21.334 -17 38.001c-6.66699 14 -13 21 -19 21c-2 0 -3 -2.33301 -3 -7c0 -2 -3.5 -5.33301 -10.5 -10s-19.5 -12.334 -37.5 -23.001c-23.333 -13.333 -44 -25.833 -62 -37.5s-35.5 -24.334 -52.5 -38.001s-31.167 -28.167 -42.5 -43.5
s-17 -30.333 -17 -45c0 -18 8 -33.167 24 -45.5s36 -18.5 60 -18.5c12 0 21 0.666992 27 2c4.66699 0 7 -2.33301 7 -7l-1 -1v-1c-14 -30.667 -22.667 -53.667 -26 -69v-4l-1 -1c0 -2.66699 1 -4 3 -4s4.66699 3 8 9c4 6.66699 9.33301 17.667 16 33c10 20 18 35 24 45
c0.666992 0 1.33398 0.666992 2.00098 2c2 1.33301 3.33301 2 4 2c17.333 3.33301 37 7.66602 59 12.999s39.667 10.666 53 15.999c6.66699 2 10 5 10 9zM260.999 508.004c0 4 -0.666992 6.66797 -2 8.00098c-7.33301 12 -14.333 18 -21 18
c-5.33301 0 -11.333 -4.33301 -18 -13c-2.66699 -2.66699 -4 -4.66699 -4 -6c0 -2.66699 1.66699 -4 5 -4l2 1c2 1.33301 3.66699 2 5 2s2 -1 2 -3c0 -4 -9.33301 -19.667 -28 -47l-33 -50c-22 -36.667 -39 -67.834 -51 -93.501s-18 -49.834 -18 -72.501
c0 -19.333 5.66699 -35.666 17 -48.999c1.33301 -2.66699 3 -4 5 -4c2.66699 0 4 2.66699 4 8c0 15.333 6 36 18 62s29.667 60.333 53 103l13 25c16 29.333 28.5 53.833 37.5 73.5s13.5 33.5 13.5 41.5zM551.999 514.005c0 7.33301 -1.99902 13.999 -5.99902 19.999
s-9 9.33301 -15 10c-12.667 0 -24.834 -3.33301 -36.501 -10s-17.5 -11.667 -17.5 -15c0 -1.33301 3.66699 -2 11 -2c4.66699 0 7 -2 7 -6c0 -7.33301 -7.83301 -19.166 -23.5 -35.499s-41.167 -41.166 -76.5 -74.499l-99 -94.5c-30 -29.667 -61.667 -62.834 -95 -99.501
s-66 -76.167 -98 -118.5s-60.667 -85.5 -86 -129.5c-2.66699 -4.66699 -4 -8.66699 -4 -12s1.33301 -5 4 -5s6 2.66699 10 8l119.5 141c32.333 37.333 65.833 74 100.5 110l114.5 113.5l168.5 156.5c14.667 14 22 28.333 22 43zM508 234.004
c0 -2.66699 -1.33203 -6.49902 -3.99902 -11.499s-7.33398 -12.833 -14.001 -23.5c-4 -6.66699 -6.66699 -11 -8 -13l-20 -37c-8 -13.333 -15.5 -26.5 -22.5 -39.5s-12.5 -24.167 -16.5 -33.5c-1.33301 -6 -4 -9 -8 -9c-22.667 -2 -41 -3 -55 -3
c-23.333 0 -37.333 5.33301 -42 16c-2 2 -3 5 -3 9c0 8.66699 5.5 18.834 16.5 30.501s25.5 24.167 43.5 37.5s38 26.666 60 39.999s43.333 25.666 64 36.999l2 1c2 1.33301 3.33301 2 4 2c2 0 3 -1 3 -3z" />
    <glyph glyph-name="onehalf" unicode="&#xbd;" horiz-adv-x="576" 
d="M544 242c0 8.66699 -2.33203 16.334 -6.99902 23.001c-6 8.66699 -15 15.334 -27 20.001s-24.667 7 -38 7c-15.333 0 -31 -2.5 -47 -7.5s-28.333 -11.167 -37 -18.5c-5.33301 -3.33301 -8 -9.66602 -8 -18.999c0 -5.33301 0.833008 -9.83301 2.5 -13.5s4.5 -5.5 8.5 -5.5
c20 6 30 12.667 30 20c0 1.33301 -0.333008 2.66602 -1 3.99902c1.33301 2.66699 9.66602 6.66699 24.999 12s29.333 8 42 8c11.333 0 20 -2.66699 26 -8c3.33301 -2.66699 5 -6.66699 5 -12c0 -8 -6.33301 -18 -19 -30s-32.667 -28 -60 -48
c-34.667 -26 -62 -48.167 -82 -66.5s-34.667 -36.833 -44 -55.5c-4 -10.667 -6 -19.667 -6 -27c0 -14.667 3.66699 -27.834 11 -39.501s17.333 -17.5 30 -17.5c8.66699 0 20.167 2.66699 34.5 8s33.5 13.333 57.5 24l49.5 20c13.667 5.33301 26.167 9.66602 37.5 12.999
c6 1.33301 9 3.33301 9 6c0 2 -1.33301 3 -4 3c-16.667 0 -37.5 -3 -62.5 -9s-55.833 -14.333 -92.5 -25l-19 -5c-8.66699 0 -13 5 -13 15c2 11.333 10 23.833 24 37.5s35.667 32.5 65 56.5c35.333 30 62.5 54.833 81.5 74.5s28.5 38.167 28.5 55.5zM261.001 508
c0 4 -0.666992 6.66797 -2 8.00098c-7.33301 12 -14.333 18 -21 18c-5.33301 0 -11.333 -4.33301 -18 -13c-2.66699 -2.66699 -4 -4.66699 -4 -6c0 -2.66699 1.66699 -4 5 -4l2 1c2 1.33301 3.66699 2 5 2s2 -1 2 -3c0 -4 -9.33301 -19.667 -28 -47l-33 -50
c-22 -36.667 -39 -67.834 -51 -93.501s-18 -49.834 -18 -72.501c0 -19.333 5.66699 -35.666 17 -48.999c1.33301 -2.66699 3 -4 5 -4c2.66699 0 4 2.66699 4 8c0 15.333 6 36 18 62s29.667 60.333 53 103l13 25c16 29.333 28.5 53.833 37.5 73.5s13.5 33.5 13.5 41.5z
M552.001 514.001c0 7.33301 -1.99902 13.999 -5.99902 19.999s-9 9.33301 -15 10c-12.667 0 -24.834 -3.33301 -36.501 -10s-17.5 -11.667 -17.5 -15c0 -1.33301 3.66699 -2 11 -2c4.66699 0 7 -2 7 -6c0 -7.33301 -7.83301 -19.166 -23.5 -35.499
s-41.167 -41.166 -76.5 -74.499l-99 -94.5c-30 -29.667 -61.667 -62.834 -95 -99.501s-66 -76.167 -98 -118.5s-60.667 -85.5 -86 -129.5c-2.66699 -4.66699 -4 -8.66699 -4 -12s1.33301 -5 4 -5s6 2.66699 10 8l119.5 141c32.333 37.333 65.833 74 100.5 110l114.5 113.5
l168.5 156.5c14.667 14 22 28.333 22 43z" />
    <glyph glyph-name="threequarters" unicode="&#xbe;" horiz-adv-x="668" 
d="M620 79c0 0.666992 -1.00098 1.00391 -3.00098 1.00391c-11.333 -2 -27.833 -4 -49.5 -6s-38.5 -3.33301 -50.5 -4c-2.66699 0 -4 0.666992 -4 2c0 2 0.666992 3.66699 2 5c8 16.667 24.667 44 50 82l42 66c3.33301 5.33301 5 11.666 5 18.999
c0 8.66699 -5.66699 21.334 -17 38.001c-6.66699 14 -13 21 -19 21c-2 0 -3 -2.33301 -3 -7c0 -2 -3.5 -5.33301 -10.5 -10s-19.5 -12.334 -37.5 -23.001c-23.333 -13.333 -44 -25.833 -62 -37.5s-35.5 -24.334 -52.5 -38.001s-31.167 -28.167 -42.5 -43.5
s-17 -30.333 -17 -45c0 -18 8 -33.167 24 -45.5s36 -18.5 60 -18.5c12 0 21 0.666992 27 2c4.66699 0 7 -2.33301 7 -7l-1 -1v-1c-14 -30.667 -22.667 -53.667 -26 -69v-4l-1 -1c0 -2.66699 1 -4 3 -4s4.66699 3 8 9c4 6.66699 9.33301 17.667 16 33c10 20 18 35 24 45
c0.666992 0 1.33398 0.666992 2.00098 2c2 1.33301 3.33301 2 4 2c17.333 3.33301 37 7.66602 59 12.999s39.667 10.666 53 15.999c6.66699 2 10 5 10 9zM617.999 514.004c0 7.33301 -1.99902 13.999 -5.99902 19.999s-9 9.33301 -15 10
c-12.667 0 -24.834 -3.33301 -36.501 -10s-17.5 -11.667 -17.5 -15c0 -1.33301 3.66699 -2 11 -2c4.66699 0 7 -2 7 -6c0 -7.33301 -7.83301 -19.166 -23.5 -35.499s-41.167 -41.166 -76.5 -74.499l-99 -94.5c-30 -29.667 -61.667 -62.834 -95 -99.501
s-66 -76.167 -98 -118.5s-60.667 -85.5 -86 -129.5c-2.66699 -4.66699 -4 -8.66699 -4 -12s1.33301 -5 4 -5s6 2.66699 10 8l119.5 141c32.333 37.333 65.833 74 100.5 110l114.5 113.5l168.5 156.5c14.667 14 22 28.333 22 43zM323 485.003
c0 8 -4.00098 15.3311 -12.001 21.998c-7.33301 8 -20.666 12 -39.999 12c-14 0 -29.167 -1.66699 -45.5 -5s-32.833 -7.33301 -49.5 -12c-13.333 -3.33301 -21 -5 -23 -5c-2.66699 0 -5 -0.333008 -7 -1s-3 -2 -3 -4c0 -5.33301 2.5 -10.166 7.5 -14.499
s11.5 -6.5 19.5 -6.5c7.33301 0 15.333 1.5 24 4.5s20.334 7.5 35.001 13.5c12 5.33301 22 9.33301 30 12s15 4 21 4c4.66699 0 8.33398 -0.666992 11.001 -2c4 -2.66699 6 -5.66699 6 -9c0 -5.33301 -4 -11.666 -12 -18.999s-18.5 -15 -31.5 -23s-26 -15.167 -39 -21.5
l-37.5 -17.5c-12 -5.33301 -18 -11.666 -18 -18.999c0 -4.66699 2.5 -9 7.5 -13s10.167 -6 15.5 -6c4 0 7 1 9 3c11.333 8 26 12 44 12c10 0 18.5 -1.83301 25.5 -5.5s10.5 -9.83398 10.5 -18.501c0 -14.667 -8.66699 -30 -26 -46s-39.166 -30.833 -65.499 -44.5
s-52 -24.5 -77 -32.5s-44.167 -12 -57.5 -12c-8.66699 0 -14 2 -16 6c-1.33301 4 -4 6 -8 6s-6 -3 -6 -9c0 -10.667 3.83301 -18.5 11.5 -23.5s18.5 -7.5 32.5 -7.5c18 0 38.833 3.33301 62.5 10s47.667 15.834 72 27.501s46.166 24.667 65.499 39
s33.666 29.166 42.999 44.499c4 6.66699 6 14.667 6 24c0 14 -6 26 -18 36s-30.333 15 -55 15c-4 0 -6 0.666992 -6 2s2.33301 3.33301 7 6c31.333 18.667 53.666 34 66.999 46s20 22.667 20 32zM573.999 234.001c0 -2.66699 -1.33203 -6.49902 -3.99902 -11.499
s-7.33398 -12.833 -14.001 -23.5c-4 -6.66699 -6.66699 -11 -8 -13l-20 -37c-8 -13.333 -15.5 -26.5 -22.5 -39.5s-12.5 -24.167 -16.5 -33.5c-1.33301 -6 -4 -9 -8 -9c-22.667 -2 -41 -3 -55 -3c-23.333 0 -37.333 5.33301 -42 16c-2 2 -3 5 -3 9
c0 8.66699 5.5 18.834 16.5 30.501s25.5 24.167 43.5 37.5s38 26.666 60 39.999s43.333 25.666 64 36.999l2 1c2 1.33301 3.33301 2 4 2c2 0 3 -1 3 -3z" />
    <glyph glyph-name="questiondown" unicode="&#xbf;" horiz-adv-x="306" 
d="M288 417c0 -7.33301 2.33496 -14.333 7.00195 -21c3.33301 -4 7.66602 -7.5 12.999 -10.5s10.333 -4.5 15 -4.5c7.33301 0 13.333 3.66699 18 11c3.33301 5.33301 6.16602 13.5 8.49902 24.5s3.5 20.5 3.5 28.5s-1 12 -3 12c-0.666992 0 -3 -1.33301 -7 -4
c-8.66699 -5.33301 -16.5 -9.83301 -23.5 -13.5s-14.167 -6.5 -21.5 -8.5c-6.66699 -2 -10 -6.66699 -10 -14zM312.002 305c0 10.667 -2.33301 20.6631 -7 29.9961c-2.66699 6 -5.66699 9 -9 9c-4 0 -6 -2.66699 -6 -8c0 -1.33301 1 -4.66602 3 -9.99902v-1l1 -2
c0 -10.667 -10.5 -26 -31.5 -46s-45.167 -39 -72.5 -57c-48.667 -31.333 -85 -62.666 -109 -93.999s-36 -59.666 -36 -84.999c0 -20.667 7.33301 -37 22 -49s34.667 -18 60 -18c36 0 77 12 123 36c10.667 5.33301 16 14.666 16 27.999c0 12.667 -4 19 -12 19h-1
c-12.667 -4 -20.334 -8.66699 -23.001 -14c-9.33301 -12 -26.166 -22.167 -50.499 -30.5s-47.166 -12.5 -68.499 -12.5c-12.667 0 -22.667 2 -30 6c-6.66699 4 -10 10 -10 18c0 12 7.83301 25.667 23.5 41s39.834 36 72.501 62c31.333 24.667 53.666 43.334 66.999 56.001
c25.333 23.333 44.666 44.833 57.999 64.5s20 38.834 20 57.501z" />
    <glyph glyph-name="Agrave" unicode="&#xc0;" horiz-adv-x="695" 
d="M693 635c0 2 -1.33203 4.00098 -3.99902 6.00098c-6 5.33301 -14.333 12.166 -25 20.499l-37.5 28.5l-38 27.5l-22.5 15.5c-2 1.33301 -4.66699 2 -8 2c-4.66699 0 -8.83398 -2.66699 -12.501 -8s-5.5 -10.333 -5.5 -15c0 -6 3 -10.667 9 -14
c11.333 -4.66699 28.833 -12.667 52.5 -24l81.5 -40l3 -1l3 -1c2.66699 0 4 1 4 3zM769.001 508.001c0 11.333 -2.33398 22.5 -7.00098 33.5s-11.667 19.5 -21 25.5c-20 13.333 -45.667 20 -77 20c-50 0 -108.5 -16.5 -175.5 -49.5s-131.833 -75.833 -194.5 -128.5
s-114 -107.834 -154 -165.501s-60 -109.167 -60 -154.5c0 -16.667 3.66699 -33.334 11 -50.001c8.66699 -18 20.5 -32.667 35.5 -44s31.833 -17 50.5 -17c28.667 1.33301 60.834 10.5 96.501 27.5s71.334 38 107.001 63s68.667 50.167 99 75.5l101.5 86
c20 18 32 28.667 36 32c5.33301 4 9 6 11 6c1.33301 0 2 -1 2 -3c0 -2.66699 -1 -6 -3 -10c-24.667 -48.667 -44.167 -93.167 -58.5 -133.5s-21.5 -72.5 -21.5 -96.5c0 -30.667 11.667 -46 35 -46c17.333 0 40.666 8.33301 69.999 25c6.66699 4 10 6.66699 10 8s-2 2 -6 2
c-3.33301 0 -7 -0.666992 -11 -2c-0.666992 0 -2.33398 -0.333008 -5.00098 -1h-3c-5.33301 0 -9.16602 1.83301 -11.499 5.5s-3.5 8.83398 -3.5 15.501c0 19.333 8.5 51.5 25.5 96.5s42.833 106.5 77.5 184.5c2.66699 6 4 12.333 4 19c0 10.667 -3.33301 19.834 -10 27.501
s-14.334 11.5 -23.001 11.5c-6.66699 0 -12 -1.66699 -16 -5l-67 -53l-107.5 -86.5l-98 -75c-33.667 -25 -65.5 -47.5 -95.5 -67.5s-56.333 -35.333 -79 -46c-26 -12.667 -47.333 -19 -64 -19c-17.333 0 -26 9.66699 -26 29c0 7.33301 1.66699 18.333 5 33
c10.667 40.667 34.667 87 72 139s82.5 102 135.5 150s108.333 87.5 166 118.5s111.167 47.167 160.5 48.5c20.667 0 34.834 -2.66699 42.501 -8s11.5 -12.666 11.5 -21.999c0 -8 -3.33301 -20 -10 -36c-3.33301 -8.66699 -5 -14.334 -5 -17.001c0 -3.33301 1.66699 -5 5 -5
c2 0 7 1.66699 15 5c9.33301 4 16.333 11 21 21s7 21 7 33z" />
    <glyph glyph-name="Aacute" unicode="&#xc1;" horiz-adv-x="695" 
d="M717 711c0 4.66699 -1.83203 9.66797 -5.49902 15.001s-7.83398 8 -12.501 8c-3.33301 0 -6 -0.666992 -8 -2c-4.66699 -2.66699 -13.167 -8.33398 -25.5 -17.001l-35 -25.5l-34.5 -26.5c-12 -9.33301 -21.333 -17 -28 -23c-2.66699 -2 -4 -4 -4 -6s1.33301 -3 4 -3
c0.666992 0 1.66699 0.333008 3 1l3 1l81.5 40c23.667 11.333 41.167 19.333 52.5 24c6 3.33301 9 8 9 14zM769.001 508.001c0 11.333 -2.33398 22.5 -7.00098 33.5s-11.667 19.5 -21 25.5c-20 13.333 -45.667 20 -77 20c-50 0 -108.5 -16.5 -175.5 -49.5
s-131.833 -75.833 -194.5 -128.5s-114 -107.834 -154 -165.501s-60 -109.167 -60 -154.5c0 -16.667 3.66699 -33.334 11 -50.001c8.66699 -18 20.5 -32.667 35.5 -44s31.833 -17 50.5 -17c28.667 1.33301 60.834 10.5 96.501 27.5s71.334 38 107.001 63
s68.667 50.167 99 75.5l101.5 86c20 18 32 28.667 36 32c5.33301 4 9 6 11 6c1.33301 0 2 -1 2 -3c0 -2.66699 -1 -6 -3 -10c-24.667 -48.667 -44.167 -93.167 -58.5 -133.5s-21.5 -72.5 -21.5 -96.5c0 -30.667 11.667 -46 35 -46c17.333 0 40.666 8.33301 69.999 25
c6.66699 4 10 6.66699 10 8s-2 2 -6 2c-3.33301 0 -7 -0.666992 -11 -2c-0.666992 0 -2.33398 -0.333008 -5.00098 -1h-3c-5.33301 0 -9.16602 1.83301 -11.499 5.5s-3.5 8.83398 -3.5 15.501c0 19.333 8.5 51.5 25.5 96.5s42.833 106.5 77.5 184.5c2.66699 6 4 12.333 4 19
c0 10.667 -3.33301 19.834 -10 27.501s-14.334 11.5 -23.001 11.5c-6.66699 0 -12 -1.66699 -16 -5l-67 -53l-107.5 -86.5l-98 -75c-33.667 -25 -65.5 -47.5 -95.5 -67.5s-56.333 -35.333 -79 -46c-26 -12.667 -47.333 -19 -64 -19c-17.333 0 -26 9.66699 -26 29
c0 7.33301 1.66699 18.333 5 33c10.667 40.667 34.667 87 72 139s82.5 102 135.5 150s108.333 87.5 166 118.5s111.167 47.167 160.5 48.5c20.667 0 34.834 -2.66699 42.501 -8s11.5 -12.666 11.5 -21.999c0 -8 -3.33301 -20 -10 -36
c-3.33301 -8.66699 -5 -14.334 -5 -17.001c0 -3.33301 1.66699 -5 5 -5c2 0 7 1.66699 15 5c9.33301 4 16.333 11 21 21s7 21 7 33z" />
    <glyph glyph-name="Acircumflex" unicode="&#xc2;" horiz-adv-x="695" 
d="M782 641c-16 32 -28.5 53.667 -37.5 65s-20.167 17 -33.5 17c-12.667 0 -28.5 -4.83301 -47.5 -14.5s-50.167 -27.5 -93.5 -53.5c-2.66699 -2 -4 -4 -4 -6s1.66699 -3 5 -3s6.33301 0.666992 9 2c34.667 18 60 30.333 76 37s29.667 10 41 10s21.5 -3.83301 30.5 -11.5
s21.5 -22.167 37.5 -43.5l3 -3c4 -4.66699 7.66699 -7 11 -7c2.66699 0 4 2 4 6v2c-0.666992 1.33301 -1 2.33301 -1 3zM769 508c0 11.333 -2.33398 22.5 -7.00098 33.5s-11.667 19.5 -21 25.5c-20 13.333 -45.667 20 -77 20c-50 0 -108.5 -16.5 -175.5 -49.5
s-131.833 -75.833 -194.5 -128.5s-114 -107.834 -154 -165.501s-60 -109.167 -60 -154.5c0 -16.667 3.66699 -33.334 11 -50.001c8.66699 -18 20.5 -32.667 35.5 -44s31.833 -17 50.5 -17c28.667 1.33301 60.834 10.5 96.501 27.5s71.334 38 107.001 63
s68.667 50.167 99 75.5l101.5 86c20 18 32 28.667 36 32c5.33301 4 9 6 11 6c1.33301 0 2 -1 2 -3c0 -2.66699 -1 -6 -3 -10c-24.667 -48.667 -44.167 -93.167 -58.5 -133.5s-21.5 -72.5 -21.5 -96.5c0 -30.667 11.667 -46 35 -46c17.333 0 40.666 8.33301 69.999 25
c6.66699 4 10 6.66699 10 8s-2 2 -6 2c-3.33301 0 -7 -0.666992 -11 -2c-0.666992 0 -2.33398 -0.333008 -5.00098 -1h-3c-5.33301 0 -9.16602 1.83301 -11.499 5.5s-3.5 8.83398 -3.5 15.501c0 19.333 8.5 51.5 25.5 96.5s42.833 106.5 77.5 184.5c2.66699 6 4 12.333 4 19
c0 10.667 -3.33301 19.834 -10 27.501s-14.334 11.5 -23.001 11.5c-6.66699 0 -12 -1.66699 -16 -5l-67 -53l-107.5 -86.5l-98 -75c-33.667 -25 -65.5 -47.5 -95.5 -67.5s-56.333 -35.333 -79 -46c-26 -12.667 -47.333 -19 -64 -19c-17.333 0 -26 9.66699 -26 29
c0 7.33301 1.66699 18.333 5 33c10.667 40.667 34.667 87 72 139s82.5 102 135.5 150s108.333 87.5 166 118.5s111.167 47.167 160.5 48.5c20.667 0 34.834 -2.66699 42.501 -8s11.5 -12.666 11.5 -21.999c0 -8 -3.33301 -20 -10 -36
c-3.33301 -8.66699 -5 -14.334 -5 -17.001c0 -3.33301 1.66699 -5 5 -5c2 0 7 1.66699 15 5c9.33301 4 16.333 11 21 21s7 21 7 33z" />
    <glyph glyph-name="Atilde" unicode="&#xc3;" horiz-adv-x="695" 
d="M791 679c0 2 -1.00488 3 -3.00488 3c-1.33301 0 -2.66602 -0.666992 -3.99902 -2c-14 -11.333 -28 -17 -42 -17c-8 0 -15.667 1.83301 -23 5.5s-16.333 9.16699 -27 16.5c-10.667 8 -20 13.833 -28 17.5s-16.333 5.5 -25 5.5c-10.667 0 -22.167 -3.5 -34.5 -10.5
s-25.5 -18.167 -39.5 -33.5c-2.66699 -2.66699 -4 -5 -4 -7c0 -2.66699 1.66699 -4 5 -4c4.66699 0 7.33398 1 8.00098 3c14.667 18 29.334 27 44.001 27c10.667 0 26.334 -6.66699 47.001 -20c12 -8.66699 22.333 -15 31 -19s18.334 -6 29.001 -6c10 0 20 2.5 30 7.5
s21 13.833 33 26.5c2 2 3 4.33301 3 7zM768.995 508c0 11.333 -2.33398 22.5 -7.00098 33.5s-11.667 19.5 -21 25.5c-20 13.333 -45.667 20 -77 20c-50 0 -108.5 -16.5 -175.5 -49.5s-131.833 -75.833 -194.5 -128.5s-114 -107.834 -154 -165.501s-60 -109.167 -60 -154.5
c0 -16.667 3.66699 -33.334 11 -50.001c8.66699 -18 20.5 -32.667 35.5 -44s31.833 -17 50.5 -17c28.667 1.33301 60.834 10.5 96.501 27.5s71.334 38 107.001 63s68.667 50.167 99 75.5l101.5 86c20 18 32 28.667 36 32c5.33301 4 9 6 11 6c1.33301 0 2 -1 2 -3
c0 -2.66699 -1 -6 -3 -10c-24.667 -48.667 -44.167 -93.167 -58.5 -133.5s-21.5 -72.5 -21.5 -96.5c0 -30.667 11.667 -46 35 -46c17.333 0 40.666 8.33301 69.999 25c6.66699 4 10 6.66699 10 8s-2 2 -6 2c-3.33301 0 -7 -0.666992 -11 -2
c-0.666992 0 -2.33398 -0.333008 -5.00098 -1h-3c-5.33301 0 -9.16602 1.83301 -11.499 5.5s-3.5 8.83398 -3.5 15.501c0 19.333 8.5 51.5 25.5 96.5s42.833 106.5 77.5 184.5c2.66699 6 4 12.333 4 19c0 10.667 -3.33301 19.834 -10 27.501s-14.334 11.5 -23.001 11.5
c-6.66699 0 -12 -1.66699 -16 -5l-67 -53l-107.5 -86.5l-98 -75c-33.667 -25 -65.5 -47.5 -95.5 -67.5s-56.333 -35.333 -79 -46c-26 -12.667 -47.333 -19 -64 -19c-17.333 0 -26 9.66699 -26 29c0 7.33301 1.66699 18.333 5 33c10.667 40.667 34.667 87 72 139
s82.5 102 135.5 150s108.333 87.5 166 118.5s111.167 47.167 160.5 48.5c20.667 0 34.834 -2.66699 42.501 -8s11.5 -12.666 11.5 -21.999c0 -8 -3.33301 -20 -10 -36c-3.33301 -8.66699 -5 -14.334 -5 -17.001c0 -3.33301 1.66699 -5 5 -5c2 0 7 1.66699 15 5
c9.33301 4 16.333 11 21 21s7 21 7 33z" />
    <glyph glyph-name="Adieresis" unicode="&#xc4;" horiz-adv-x="695" 
d="M758 701c0 6 -1.33398 8.99902 -4.00098 8.99902c-5.33301 -4 -15.666 -7.66699 -30.999 -11c-14 -2.66699 -21.667 -5.66699 -23 -9c-0.666992 -2 -1 -5.66699 -1 -11c1.33301 -4.66699 4.33301 -9.16699 9 -13.5s9.66699 -6.5 15 -6.5
c8.66699 0 16.5 3.83301 23.5 11.5s10.833 17.834 11.5 30.501zM627.999 700.999c0 6 -1.33203 8.99902 -3.99902 8.99902c-6 -4 -16.333 -7.66699 -31 -11c-12.667 -2.66699 -20.334 -5.66699 -23.001 -9v-2c-0.666992 -3.33301 -1 -6.33301 -1 -9
c4.66699 -13.333 12.667 -20 24 -20c8.66699 0 16.5 3.83301 23.5 11.5s10.833 17.834 11.5 30.501zM769 507.998c0 11.333 -2.33398 22.5 -7.00098 33.5s-11.667 19.5 -21 25.5c-20 13.333 -45.667 20 -77 20c-50 0 -108.5 -16.5 -175.5 -49.5
s-131.833 -75.833 -194.5 -128.5s-114 -107.834 -154 -165.501s-60 -109.167 -60 -154.5c0 -16.667 3.66699 -33.334 11 -50.001c8.66699 -18 20.5 -32.667 35.5 -44s31.833 -17 50.5 -17c28.667 1.33301 60.834 10.5 96.501 27.5s71.334 38 107.001 63
s68.667 50.167 99 75.5l101.5 86c20 18 32 28.667 36 32c5.33301 4 9 6 11 6c1.33301 0 2 -1 2 -3c0 -2.66699 -1 -6 -3 -10c-24.667 -48.667 -44.167 -93.167 -58.5 -133.5s-21.5 -72.5 -21.5 -96.5c0 -30.667 11.667 -46 35 -46c17.333 0 40.666 8.33301 69.999 25
c6.66699 4 10 6.66699 10 8s-2 2 -6 2c-3.33301 0 -7 -0.666992 -11 -2c-0.666992 0 -2.33398 -0.333008 -5.00098 -1h-3c-5.33301 0 -9.16602 1.83301 -11.499 5.5s-3.5 8.83398 -3.5 15.501c0 19.333 8.5 51.5 25.5 96.5s42.833 106.5 77.5 184.5c2.66699 6 4 12.333 4 19
c0 10.667 -3.33301 19.834 -10 27.501s-14.334 11.5 -23.001 11.5c-6.66699 0 -12 -1.66699 -16 -5l-67 -53l-107.5 -86.5l-98 -75c-33.667 -25 -65.5 -47.5 -95.5 -67.5s-56.333 -35.333 -79 -46c-26 -12.667 -47.333 -19 -64 -19c-17.333 0 -26 9.66699 -26 29
c0 7.33301 1.66699 18.333 5 33c10.667 40.667 34.667 87 72 139s82.5 102 135.5 150s108.333 87.5 166 118.5s111.167 47.167 160.5 48.5c20.667 0 34.834 -2.66699 42.501 -8s11.5 -12.666 11.5 -21.999c0 -8 -3.33301 -20 -10 -36
c-3.33301 -8.66699 -5 -14.334 -5 -17.001c0 -3.33301 1.66699 -5 5 -5c2 0 7 1.66699 15 5c9.33301 4 16.333 11 21 21s7 21 7 33z" />
    <glyph glyph-name="Aring" unicode="&#xc5;" horiz-adv-x="695" 
d="M742 692c0 17.333 -6 32.333 -18 45s-26.667 19 -44 19s-32 -6.5 -44 -19.5s-18 -27.833 -18 -44.5c0 -18 6.16699 -32.833 18.5 -44.5s26.833 -17.5 43.5 -17.5c17.333 0 32 6 44 18s18 26.667 18 44zM727 693c0 -12.667 -4.5 -23.833 -13.5 -33.5
s-20.167 -14.5 -33.5 -14.5c-12.667 0 -23.667 4.5 -33 13.5s-14 20.5 -14 34.5c0 12.667 4.5 23.834 13.5 33.501s20.167 14.5 33.5 14.5c12.667 0 23.667 -4.83301 33 -14.5s14 -20.834 14 -33.501zM769 508.001c0 11.333 -2.33398 22.5 -7.00098 33.5
s-11.667 19.5 -21 25.5c-20 13.333 -45.667 20 -77 20c-50 0 -108.5 -16.5 -175.5 -49.5s-131.833 -75.833 -194.5 -128.5s-114 -107.834 -154 -165.501s-60 -109.167 -60 -154.5c0 -16.667 3.66699 -33.334 11 -50.001c8.66699 -18 20.5 -32.667 35.5 -44
s31.833 -17 50.5 -17c28.667 1.33301 60.834 10.5 96.501 27.5s71.334 38 107.001 63s68.667 50.167 99 75.5l101.5 86c20 18 32 28.667 36 32c5.33301 4 9 6 11 6c1.33301 0 2 -1 2 -3c0 -2.66699 -1 -6 -3 -10c-24.667 -48.667 -44.167 -93.167 -58.5 -133.5
s-21.5 -72.5 -21.5 -96.5c0 -30.667 11.667 -46 35 -46c17.333 0 40.666 8.33301 69.999 25c6.66699 4 10 6.66699 10 8s-2 2 -6 2c-3.33301 0 -7 -0.666992 -11 -2c-0.666992 0 -2.33398 -0.333008 -5.00098 -1h-3c-5.33301 0 -9.16602 1.83301 -11.499 5.5
s-3.5 8.83398 -3.5 15.501c0 19.333 8.5 51.5 25.5 96.5s42.833 106.5 77.5 184.5c2.66699 6 4 12.333 4 19c0 10.667 -3.33301 19.834 -10 27.501s-14.334 11.5 -23.001 11.5c-6.66699 0 -12 -1.66699 -16 -5l-67 -53l-107.5 -86.5l-98 -75
c-33.667 -25 -65.5 -47.5 -95.5 -67.5s-56.333 -35.333 -79 -46c-26 -12.667 -47.333 -19 -64 -19c-17.333 0 -26 9.66699 -26 29c0 7.33301 1.66699 18.333 5 33c10.667 40.667 34.667 87 72 139s82.5 102 135.5 150s108.333 87.5 166 118.5s111.167 47.167 160.5 48.5
c20.667 0 34.834 -2.66699 42.501 -8s11.5 -12.666 11.5 -21.999c0 -8 -3.33301 -20 -10 -36c-3.33301 -8.66699 -5 -14.334 -5 -17.001c0 -3.33301 1.66699 -5 5 -5c2 0 7 1.66699 15 5c9.33301 4 16.333 11 21 21s7 21 7 33z" />
    <glyph glyph-name="AE" unicode="&#xc6;" horiz-adv-x="1006" 
d="M1237 519c0 18.667 -6.66699 44.999 -20 78.999c-5.33301 14.667 -13.333 25.167 -24 31.5s-23.667 9.5 -39 9.5c-24.667 0 -54.667 -3.5 -90 -10.5s-72.333 -16.5 -111 -28.5s-74.334 -25.5 -107.001 -40.5s-58.667 -29.833 -78 -44.5
c-3.33301 26 -12.333 43.333 -27 52c-23.333 14 -49 21 -77 21c-50 0 -108.333 -16.5 -175 -49.5s-131.5 -76 -194.5 -129s-114.5 -108.167 -154.5 -165.5s-60 -109 -60 -155c0 -17.333 3.66699 -34 11 -50c19.333 -40.667 48 -61 86 -61
c28.667 1.33301 60.834 10.5 96.501 27.5s71.334 38 107.001 63s68.667 50.167 99 75.5l101.5 86c20 18 32 28.667 36 32c5.33301 4 8.66602 6 9.99902 6c2 0 3 -1.33301 3 -4c0 -2 -1 -5 -3 -9c-30 -60.667 -53 -110.834 -69 -150.501s-24.333 -72.5 -25 -98.5
c0 -9.33301 3.16699 -16.333 9.5 -21s14.166 -7 23.499 -7c16 0 27 6.66699 33 20c6 12.667 9.66699 25.334 11 38.001c12.667 -20 30.167 -34.833 52.5 -44.5s48.5 -14.5 78.5 -14.5c32 0 66.5 5 103.5 15s74.167 24 111.5 42c6 2.66699 9 5.66699 9 9c0 2 -1.33301 3 -4 3
h-3c-1.33301 -0.666992 -2.66602 -1 -3.99902 -1c-88 -24.667 -159.333 -37 -214 -37c-35.333 0 -61.833 5 -79.5 15s-26.5 23.333 -26.5 40c0 17.333 8 35.833 24 55.5s38.167 38.667 66.5 57s62 34.166 101 47.499s80.5 22.333 124.5 27
c11.333 0.666992 17 4.33398 17 11.001c0 17.333 -4 31.5 -12 42.5s-19.667 16.5 -35 16.5c-10 0 -23.333 -2.66699 -40 -8c-4.66699 -2 -7.33398 -3 -8.00098 -3c-28 0 -51.333 0.666992 -70 2s-34.334 4.66602 -47.001 9.99902c-25.333 10.667 -38 24.334 -38 41.001
c0 18.667 15.333 39.334 46 62.001s69.834 44.167 117.501 64.5s96 36.833 145 49.5s89.833 19 122.5 19c20 0 35.5 -2.66699 46.5 -8s16.5 -13.666 16.5 -24.999c0 -14.667 -10.333 -34.334 -31 -59.001c-6 -6.66699 -9 -12.667 -9 -18c0 -4 1.66699 -6 5 -6
c4.66699 0 12.334 4 23.001 12c25.333 19.333 38 41.333 38 66zM792 285.999c-8.66699 -4 -18.999 -8.33105 -30.999 -12.998c-10.667 -4.66699 -17 -7.33398 -19 -8.00098c-4.66699 -2 -10.834 -5.5 -18.501 -10.5l-26.5 -16.5l-8 -6l19 43
c7.33301 17.333 12.333 28.666 15 33.999c11.333 -8 20.833 -13.333 28.5 -16s21.167 -5 40.5 -7zM736.001 508.001c0 -5.33301 -1.66797 -11.998 -5.00098 -19.998c-18.667 -18.667 -31.667 -36.5 -39 -53.5s-11 -32.167 -11 -45.5c0 -4 0.666992 -10 2 -18
c0.666992 -2 1 -3.33301 1 -4l-81 -64l-114 -89.5l-90 -68c-32 -23.667 -62.167 -44.834 -90.5 -63.501s-53.5 -33.334 -75.5 -44.001c-26 -12.667 -47.333 -19 -64 -19c-17.333 0 -26 9.66699 -26 29c0 7.33301 1.66699 18.333 5 33c10.667 40.667 34.667 87 72 139
s82.5 102 135.5 150s108.333 87.5 166 118.5s111.167 47.167 160.5 48.5c18.667 0 32.334 -2.5 41.001 -7.5s13 -12.167 13 -21.5z" />
    <glyph glyph-name="Ccedilla" unicode="&#xc7;" horiz-adv-x="537" 
d="M679 538c0 18 -5.66406 33.333 -16.9971 46s-27 19 -47 19c-47.333 0 -100.5 -14.667 -159.5 -44s-115.5 -68.333 -169.5 -117s-98 -101.167 -132 -157.5s-51 -109.833 -51 -160.5c0 -42 12.667 -79.667 38 -113c9.33301 -12.667 23.333 -23 42 -31
c-15.333 -10 -23 -20.667 -23 -32c0 -12.667 11.333 -25 34 -37c15.333 -8 23 -17.333 23 -28s-7.16699 -22 -21.5 -34s-34.166 -24.333 -59.499 -37c-3.33301 -2 -5 -4 -5 -6c0 -3.33301 2.33301 -5 7 -5h2c1.33301 0.666992 2.33301 1 3 1
c37.333 10.667 64.666 23.167 81.999 37.5s26 28.833 26 43.5c0 10 -3.66699 19.333 -11 28s-17 14.667 -29 18c-12.667 4 -19 8.66699 -19 14c0 4 3.66699 8.33301 11 13s17 9.33398 29 14.001c3.33301 -0.666992 9 -1 17 -1c22 0 45.5 2.83301 70.5 8.5s50 14 75 25
s48.167 23.667 69.5 38s39.333 29.833 54 46.5c6 7.33301 9 13.333 9 18c0 4 -1.66699 6 -5 6c-2.66699 0 -5.66699 -1.66699 -9 -5c-14 -12 -31.5 -23.833 -52.5 -35.5s-43.5 -21.834 -67.5 -30.501s-48 -15.667 -72 -21s-46 -8 -66 -8
c-24.667 0 -44.334 4.33301 -59.001 13s-22 22.667 -22 42c0 54 14.167 108 42.5 162s64.833 103.667 109.5 149s91.667 83.333 141 114s93.666 50.667 132.999 60c8 2 14.667 3 20 3c13.333 0 20 -5.33301 20 -16c0 -10 -6.33301 -23 -19 -39
c-5.33301 -6.66699 -8 -12 -8 -16c0 -3.33301 1.66699 -6 5 -8s6.66602 -3 9.99902 -3c14.667 0 27.667 8.66699 39 26c8 12 12 25.333 12 40z" />
    <glyph glyph-name="Egrave" unicode="&#xc8;" horiz-adv-x="522" 
d="M641 651c0 2 -1.33203 4.00098 -3.99902 6.00098c-6 5.33301 -14.333 12.166 -25 20.499l-37.5 28.5l-38 27.5l-22.5 15.5c-2 1.33301 -4.66699 2 -8 2c-4.66699 0 -8.83398 -2.66699 -12.501 -8s-5.5 -10.333 -5.5 -15c0 -6 3 -10.667 9 -14
c11.333 -4.66699 28.833 -12.667 52.5 -24l81.5 -40l3 -1l3 -1c2.66699 0 4 1 4 3zM740.001 487.001c0 22 -6.33594 47.6689 -19.0029 77.002c-12.667 28 -36 42 -70 42c-33.333 0 -79.666 -5.66699 -138.999 -17s-119.166 -27.5 -179.499 -48.5
s-110.666 -46.5 -150.999 -76.5s-60.5 -62.667 -60.5 -98c0 -19.333 6.66699 -39 20 -59c10.667 -16.667 26 -28.834 46 -36.501s42.333 -11.5 67 -11.5c27.333 0 55 4.33301 83 13c9.33301 2.66699 14 4.66699 14 6s-3.5 2.33301 -10.5 3s-20.5 1.33398 -40.5 2.00098
c-22 0.666992 -41.333 1.66699 -58 3s-29.667 3.66602 -39 6.99902c-29.333 10.667 -44 24.334 -44 41.001c0 18.667 17 39 51 61s77.667 42.833 131 62.5s107 35.5 161 47.5s99.333 18 136 18c23.333 0 41.5 -2.83301 54.5 -8.5s19.5 -13.834 19.5 -24.501
c0 -14 -12 -33.667 -36 -59c-6.66699 -6.66699 -10 -12.334 -10 -17.001c0 -4 2 -6 6 -6c6.66699 0 15 3.66699 25 11c28.667 20 43 42.667 43 68zM487.998 225.003c0 16.667 -3.66504 30.665 -10.998 41.998s-18.666 17 -33.999 17c-2 0 -3.66699 -0.333008 -5 -1h-5
c-18.667 -2.66699 -46.167 -10.167 -82.5 -22.5s-73 -28.333 -110 -48s-68.333 -42.334 -94 -68.001s-38.5 -52.5 -38.5 -80.5c0 -13.333 3.66699 -27.333 11 -42c14.667 -28.667 34.5 -49.667 59.5 -63s53.833 -20 86.5 -20c31.333 0 65.166 5.33301 101.499 16
s73.5 25 111.5 43c5.33301 2 8 4.66699 8 8c0 2.66699 -2 4 -6 4c-0.666992 0 -1.33398 -0.333008 -2.00098 -1h-3c-89.333 -24.667 -161 -37 -215 -37c-34.667 0 -60.834 5 -78.501 15s-26.5 23 -26.5 39s8 33.833 24 53.5s38.5 38.834 67.5 57.501
s62.833 34.834 101.5 48.501s79.667 23.167 123 28.5c11.333 0.666992 17 4.33398 17 11.001z" />
    <glyph glyph-name="Eacute" unicode="&#xc9;" horiz-adv-x="522" 
d="M661 730c0 4.66699 -1.83203 9.66797 -5.49902 15.001s-7.83398 8 -12.501 8c-3.33301 0 -6 -0.666992 -8 -2c-4.66699 -2.66699 -13.167 -8.33398 -25.5 -17.001l-35 -25.5l-34.5 -26.5c-12 -9.33301 -21.333 -17 -28 -23c-2.66699 -2 -4 -4 -4 -6s1.33301 -3 4 -3
c0.666992 0 1.66699 0.333008 3 1l3 1l81.5 40c23.667 11.333 41.167 19.333 52.5 24c6 3.33301 9 8 9 14zM740.001 487.001c0 22 -6.33594 47.6689 -19.0029 77.002c-12.667 28 -36 42 -70 42c-33.333 0 -79.666 -5.66699 -138.999 -17s-119.166 -27.5 -179.499 -48.5
s-110.666 -46.5 -150.999 -76.5s-60.5 -62.667 -60.5 -98c0 -19.333 6.66699 -39 20 -59c10.667 -16.667 26 -28.834 46 -36.501s42.333 -11.5 67 -11.5c27.333 0 55 4.33301 83 13c9.33301 2.66699 14 4.66699 14 6s-3.5 2.33301 -10.5 3s-20.5 1.33398 -40.5 2.00098
c-22 0.666992 -41.333 1.66699 -58 3s-29.667 3.66602 -39 6.99902c-29.333 10.667 -44 24.334 -44 41.001c0 18.667 17 39 51 61s77.667 42.833 131 62.5s107 35.5 161 47.5s99.333 18 136 18c23.333 0 41.5 -2.83301 54.5 -8.5s19.5 -13.834 19.5 -24.501
c0 -14 -12 -33.667 -36 -59c-6.66699 -6.66699 -10 -12.334 -10 -17.001c0 -4 2 -6 6 -6c6.66699 0 15 3.66699 25 11c28.667 20 43 42.667 43 68zM487.998 225.003c0 16.667 -3.66504 30.665 -10.998 41.998s-18.666 17 -33.999 17c-2 0 -3.66699 -0.333008 -5 -1h-5
c-18.667 -2.66699 -46.167 -10.167 -82.5 -22.5s-73 -28.333 -110 -48s-68.333 -42.334 -94 -68.001s-38.5 -52.5 -38.5 -80.5c0 -13.333 3.66699 -27.333 11 -42c14.667 -28.667 34.5 -49.667 59.5 -63s53.833 -20 86.5 -20c31.333 0 65.166 5.33301 101.499 16
s73.5 25 111.5 43c5.33301 2 8 4.66699 8 8c0 2.66699 -2 4 -6 4c-0.666992 0 -1.33398 -0.333008 -2.00098 -1h-3c-89.333 -24.667 -161 -37 -215 -37c-34.667 0 -60.834 5 -78.501 15s-26.5 23 -26.5 39s8 33.833 24 53.5s38.5 38.834 67.5 57.501
s62.833 34.834 101.5 48.501s79.667 23.167 123 28.5c11.333 0.666992 17 4.33398 17 11.001z" />
    <glyph glyph-name="Ecircumflex" unicode="&#xca;" horiz-adv-x="522" 
d="M743 666c-16 32 -28.5 53.667 -37.5 65s-20.167 17 -33.5 17c-12.667 0 -28.5 -4.83301 -47.5 -14.5s-50.167 -27.5 -93.5 -53.5c-2.66699 -2 -4 -4 -4 -6s1.66699 -3 5 -3s6.33301 0.666992 9 2c34.667 18 60 30.333 76 37s29.667 10 41 10s21.5 -3.83301 30.5 -11.5
s21.5 -22.167 37.5 -43.5l3 -3c4 -4.66699 7.66699 -7 11 -7c2.66699 0 4 2 4 6v2c-0.666992 1.33301 -1 2.33301 -1 3zM740 487c0 22 -6.33594 47.6689 -19.0029 77.002c-12.667 28 -36 42 -70 42c-33.333 0 -79.666 -5.66699 -138.999 -17s-119.166 -27.5 -179.499 -48.5
s-110.666 -46.5 -150.999 -76.5s-60.5 -62.667 -60.5 -98c0 -19.333 6.66699 -39 20 -59c10.667 -16.667 26 -28.834 46 -36.501s42.333 -11.5 67 -11.5c27.333 0 55 4.33301 83 13c9.33301 2.66699 14 4.66699 14 6s-3.5 2.33301 -10.5 3s-20.5 1.33398 -40.5 2.00098
c-22 0.666992 -41.333 1.66699 -58 3s-29.667 3.66602 -39 6.99902c-29.333 10.667 -44 24.334 -44 41.001c0 18.667 17 39 51 61s77.667 42.833 131 62.5s107 35.5 161 47.5s99.333 18 136 18c23.333 0 41.5 -2.83301 54.5 -8.5s19.5 -13.834 19.5 -24.501
c0 -14 -12 -33.667 -36 -59c-6.66699 -6.66699 -10 -12.334 -10 -17.001c0 -4 2 -6 6 -6c6.66699 0 15 3.66699 25 11c28.667 20 43 42.667 43 68zM487.997 225.002c0 16.667 -3.66504 30.665 -10.998 41.998s-18.666 17 -33.999 17c-2 0 -3.66699 -0.333008 -5 -1h-5
c-18.667 -2.66699 -46.167 -10.167 -82.5 -22.5s-73 -28.333 -110 -48s-68.333 -42.334 -94 -68.001s-38.5 -52.5 -38.5 -80.5c0 -13.333 3.66699 -27.333 11 -42c14.667 -28.667 34.5 -49.667 59.5 -63s53.833 -20 86.5 -20c31.333 0 65.166 5.33301 101.499 16
s73.5 25 111.5 43c5.33301 2 8 4.66699 8 8c0 2.66699 -2 4 -6 4c-0.666992 0 -1.33398 -0.333008 -2.00098 -1h-3c-89.333 -24.667 -161 -37 -215 -37c-34.667 0 -60.834 5 -78.501 15s-26.5 23 -26.5 39s8 33.833 24 53.5s38.5 38.834 67.5 57.501
s62.833 34.834 101.5 48.501s79.667 23.167 123 28.5c11.333 0.666992 17 4.33398 17 11.001z" />
    <glyph glyph-name="Edieresis" unicode="&#xcb;" horiz-adv-x="522" 
d="M725 704c0 6 -1.33398 8.99902 -4.00098 8.99902c-5.33301 -4 -15.666 -7.66699 -30.999 -11c-14 -2.66699 -21.667 -5.66699 -23 -9c-0.666992 -2 -1 -5.66699 -1 -11c1.33301 -4.66699 4.33301 -9.16699 9 -13.5s9.66699 -6.5 15 -6.5
c8.66699 0 16.5 3.83301 23.5 11.5s10.833 17.834 11.5 30.501zM594.999 703.999c0 6 -1.33203 8.99902 -3.99902 8.99902c-6 -4 -16.333 -7.66699 -31 -11c-12.667 -2.66699 -20.334 -5.66699 -23.001 -9v-2c-0.666992 -3.33301 -1 -6.33301 -1 -9
c4.66699 -13.333 12.667 -20 24 -20c8.66699 0 16.5 3.83301 23.5 11.5s10.833 17.834 11.5 30.501zM740 486.998c0 22 -6.33594 47.6689 -19.0029 77.002c-12.667 28 -36 42 -70 42c-33.333 0 -79.666 -5.66699 -138.999 -17s-119.166 -27.5 -179.499 -48.5
s-110.666 -46.5 -150.999 -76.5s-60.5 -62.667 -60.5 -98c0 -19.333 6.66699 -39 20 -59c10.667 -16.667 26 -28.834 46 -36.501s42.333 -11.5 67 -11.5c27.333 0 55 4.33301 83 13c9.33301 2.66699 14 4.66699 14 6s-3.5 2.33301 -10.5 3s-20.5 1.33398 -40.5 2.00098
c-22 0.666992 -41.333 1.66699 -58 3s-29.667 3.66602 -39 6.99902c-29.333 10.667 -44 24.334 -44 41.001c0 18.667 17 39 51 61s77.667 42.833 131 62.5s107 35.5 161 47.5s99.333 18 136 18c23.333 0 41.5 -2.83301 54.5 -8.5s19.5 -13.834 19.5 -24.501
c0 -14 -12 -33.667 -36 -59c-6.66699 -6.66699 -10 -12.334 -10 -17.001c0 -4 2 -6 6 -6c6.66699 0 15 3.66699 25 11c28.667 20 43 42.667 43 68zM487.997 225c0 16.667 -3.66504 30.665 -10.998 41.998s-18.666 17 -33.999 17c-2 0 -3.66699 -0.333008 -5 -1h-5
c-18.667 -2.66699 -46.167 -10.167 -82.5 -22.5s-73 -28.333 -110 -48s-68.333 -42.334 -94 -68.001s-38.5 -52.5 -38.5 -80.5c0 -13.333 3.66699 -27.333 11 -42c14.667 -28.667 34.5 -49.667 59.5 -63s53.833 -20 86.5 -20c31.333 0 65.166 5.33301 101.499 16
s73.5 25 111.5 43c5.33301 2 8 4.66699 8 8c0 2.66699 -2 4 -6 4c-0.666992 0 -1.33398 -0.333008 -2.00098 -1h-3c-89.333 -24.667 -161 -37 -215 -37c-34.667 0 -60.834 5 -78.501 15s-26.5 23 -26.5 39s8 33.833 24 53.5s38.5 38.834 67.5 57.501
s62.833 34.834 101.5 48.501s79.667 23.167 123 28.5c11.333 0.666992 17 4.33398 17 11.001z" />
    <glyph glyph-name="Igrave" unicode="&#xcc;" horiz-adv-x="530" 
d="M611 623c0 2 -1.33203 4.00098 -3.99902 6.00098c-6 5.33301 -14.333 12.166 -25 20.499l-37.5 28.5l-38 27.5l-22.5 15.5c-2 1.33301 -4.66699 2 -8 2c-4.66699 0 -8.83398 -2.66699 -12.501 -8s-5.5 -10.333 -5.5 -15c0 -6 3 -10.667 9 -14
c11.333 -4.66699 28.833 -12.667 52.5 -24l81.5 -40l3 -1l3 -1c2.66699 0 4 1 4 3zM719.001 607.001c0 5.33301 -0.99707 11.334 -2.99707 18.001v1c-0.666992 2.66699 -1.66699 4 -3 4s-3.66602 -1.66699 -6.99902 -5c-2 -2 -3.66699 -3.33301 -5 -4
c-13.333 -10.667 -30.333 -21.334 -51 -32.001s-50 -24.667 -88 -42l-89 -43c-24 -12 -46.667 -25.167 -68 -39.5s-38.5 -29.666 -51.5 -45.999s-19.5 -33.166 -19.5 -50.499c2 -19.333 8 -34.833 18 -46.5s19 -17.5 27 -17.5c9.33301 0 17.333 1.16699 24 3.5
s10 4.83301 10 7.5c0 3.33301 -3.33301 5.33301 -10 6c-1.33301 0 -3.33301 0.333008 -6 1c-8.66699 0.666992 -15.667 2 -21 4s-9.66602 5.66699 -12.999 11c-1.33301 2.66699 -2 4.66699 -2 6c0 7.33301 5.5 16.166 16.5 26.499s25 21 42 32s34 21.333 51 31l66.5 37.5
c24 12.667 39.333 21 46 25c2 1.33301 4 2 6 2c2.66699 0 4 -1.66699 4 -5v-2c-0.666992 -1.33301 -1 -2.33301 -1 -3c-34.667 -78.667 -66.834 -146.167 -96.501 -202.5s-57.334 -102.833 -83.001 -139.5s-50.334 -65.167 -74.001 -85.5s-47.834 -34.833 -72.501 -43.5
c-18 -6.66699 -36.333 -10 -55 -10c-20 0 -38.833 4 -56.5 12s-32.834 18.5 -45.501 31.5s-22.5 27.833 -29.5 44.5s-10.5 33.667 -10.5 51c0 10 1 19.333 3 28c1.33301 5.33301 2 9.33301 2 12c0 10 -2.33301 15 -7 15c-5.33301 0 -10.333 -6.66699 -15 -20
c-5.33301 -14.667 -8 -30 -8 -46c0 -21.333 4.33301 -43.333 13 -66s20.667 -43.667 36 -63s33.5 -35 54.5 -47s43.5 -18.667 67.5 -20c46 0 88 13.667 126 41s72.5 64.666 103.5 111.999s58.833 98.333 83.5 153s55 127 91 217l24 58c3.33301 8 8.5 14.667 15.5 20
s16.5 11 28.5 17l6 3c9.33301 4.66699 16 11.5 20 20.5s6 18.167 6 27.5z" />
    <glyph glyph-name="Iacute" unicode="&#xcd;" horiz-adv-x="530" 
d="M685 699c0 4.66699 -1.83203 9.66797 -5.49902 15.001s-7.83398 8 -12.501 8c-3.33301 0 -6 -0.666992 -8 -2c-4.66699 -2.66699 -13.167 -8.33398 -25.5 -17.001l-35 -25.5l-34.5 -26.5c-12 -9.33301 -21.333 -17 -28 -23c-2.66699 -2 -4 -4 -4 -6s1.33301 -3 4 -3
c0.666992 0 1.66699 0.333008 3 1l3 1l81.5 40c23.667 11.333 41.167 19.333 52.5 24c6 3.33301 9 8 9 14zM719.001 607.001c0 5.33301 -0.99707 11.334 -2.99707 18.001v1c-0.666992 2.66699 -1.66699 4 -3 4s-3.66602 -1.66699 -6.99902 -5c-2 -2 -3.66699 -3.33301 -5 -4
c-13.333 -10.667 -30.333 -21.334 -51 -32.001s-50 -24.667 -88 -42l-89 -43c-24 -12 -46.667 -25.167 -68 -39.5s-38.5 -29.666 -51.5 -45.999s-19.5 -33.166 -19.5 -50.499c2 -19.333 8 -34.833 18 -46.5s19 -17.5 27 -17.5c9.33301 0 17.333 1.16699 24 3.5
s10 4.83301 10 7.5c0 3.33301 -3.33301 5.33301 -10 6c-1.33301 0 -3.33301 0.333008 -6 1c-8.66699 0.666992 -15.667 2 -21 4s-9.66602 5.66699 -12.999 11c-1.33301 2.66699 -2 4.66699 -2 6c0 7.33301 5.5 16.166 16.5 26.499s25 21 42 32s34 21.333 51 31l66.5 37.5
c24 12.667 39.333 21 46 25c2 1.33301 4 2 6 2c2.66699 0 4 -1.66699 4 -5v-2c-0.666992 -1.33301 -1 -2.33301 -1 -3c-34.667 -78.667 -66.834 -146.167 -96.501 -202.5s-57.334 -102.833 -83.001 -139.5s-50.334 -65.167 -74.001 -85.5s-47.834 -34.833 -72.501 -43.5
c-18 -6.66699 -36.333 -10 -55 -10c-20 0 -38.833 4 -56.5 12s-32.834 18.5 -45.501 31.5s-22.5 27.833 -29.5 44.5s-10.5 33.667 -10.5 51c0 10 1 19.333 3 28c1.33301 5.33301 2 9.33301 2 12c0 10 -2.33301 15 -7 15c-5.33301 0 -10.333 -6.66699 -15 -20
c-5.33301 -14.667 -8 -30 -8 -46c0 -21.333 4.33301 -43.333 13 -66s20.667 -43.667 36 -63s33.5 -35 54.5 -47s43.5 -18.667 67.5 -20c46 0 88 13.667 126 41s72.5 64.666 103.5 111.999s58.833 98.333 83.5 153s55 127 91 217l24 58c3.33301 8 8.5 14.667 15.5 20
s16.5 11 28.5 17l6 3c9.33301 4.66699 16 11.5 20 20.5s6 18.167 6 27.5z" />
    <glyph glyph-name="Icircumflex" unicode="&#xce;" horiz-adv-x="530" 
d="M769 658c-16 32 -28.5 53.667 -37.5 65s-20.167 17 -33.5 17c-12.667 0 -28.5 -4.83301 -47.5 -14.5s-50.167 -27.5 -93.5 -53.5c-2.66699 -2 -4 -4 -4 -6s1.66699 -3 5 -3s6.33301 0.666992 9 2c34.667 18 60 30.333 76 37s29.667 10 41 10s21.5 -3.83301 30.5 -11.5
s21.5 -22.167 37.5 -43.5l3 -3c4 -4.66699 7.66699 -7 11 -7c2.66699 0 4 2 4 6v2c-0.666992 1.33301 -1 2.33301 -1 3zM719 607c0 5.33301 -0.99707 11.334 -2.99707 18.001v1c-0.666992 2.66699 -1.66699 4 -3 4s-3.66602 -1.66699 -6.99902 -5
c-2 -2 -3.66699 -3.33301 -5 -4c-13.333 -10.667 -30.333 -21.334 -51 -32.001s-50 -24.667 -88 -42l-89 -43c-24 -12 -46.667 -25.167 -68 -39.5s-38.5 -29.666 -51.5 -45.999s-19.5 -33.166 -19.5 -50.499c2 -19.333 8 -34.833 18 -46.5s19 -17.5 27 -17.5
c9.33301 0 17.333 1.16699 24 3.5s10 4.83301 10 7.5c0 3.33301 -3.33301 5.33301 -10 6c-1.33301 0 -3.33301 0.333008 -6 1c-8.66699 0.666992 -15.667 2 -21 4s-9.66602 5.66699 -12.999 11c-1.33301 2.66699 -2 4.66699 -2 6c0 7.33301 5.5 16.166 16.5 26.499
s25 21 42 32s34 21.333 51 31l66.5 37.5c24 12.667 39.333 21 46 25c2 1.33301 4 2 6 2c2.66699 0 4 -1.66699 4 -5v-2c-0.666992 -1.33301 -1 -2.33301 -1 -3c-34.667 -78.667 -66.834 -146.167 -96.501 -202.5s-57.334 -102.833 -83.001 -139.5
s-50.334 -65.167 -74.001 -85.5s-47.834 -34.833 -72.501 -43.5c-18 -6.66699 -36.333 -10 -55 -10c-20 0 -38.833 4 -56.5 12s-32.834 18.5 -45.501 31.5s-22.5 27.833 -29.5 44.5s-10.5 33.667 -10.5 51c0 10 1 19.333 3 28c1.33301 5.33301 2 9.33301 2 12
c0 10 -2.33301 15 -7 15c-5.33301 0 -10.333 -6.66699 -15 -20c-5.33301 -14.667 -8 -30 -8 -46c0 -21.333 4.33301 -43.333 13 -66s20.667 -43.667 36 -63s33.5 -35 54.5 -47s43.5 -18.667 67.5 -20c46 0 88 13.667 126 41s72.5 64.666 103.5 111.999
s58.833 98.333 83.5 153s55 127 91 217l24 58c3.33301 8 8.5 14.667 15.5 20s16.5 11 28.5 17l6 3c9.33301 4.66699 16 11.5 20 20.5s6 18.167 6 27.5z" />
    <glyph glyph-name="Idieresis" unicode="&#xcf;" horiz-adv-x="530" 
d="M761 699c0 6 -1.33398 8.99902 -4.00098 8.99902c-5.33301 -4 -15.666 -7.66699 -30.999 -11c-14 -2.66699 -21.667 -5.66699 -23 -9c-0.666992 -2 -1 -5.66699 -1 -11c1.33301 -4.66699 4.33301 -9.16699 9 -13.5s9.66699 -6.5 15 -6.5
c8.66699 0 16.5 3.83301 23.5 11.5s10.833 17.834 11.5 30.501zM630.999 698.999c0 6 -1.33203 8.99902 -3.99902 8.99902c-6 -4 -16.333 -7.66699 -31 -11c-12.667 -2.66699 -20.334 -5.66699 -23.001 -9v-2c-0.666992 -3.33301 -1 -6.33301 -1 -9
c4.66699 -13.333 12.667 -20 24 -20c8.66699 0 16.5 3.83301 23.5 11.5s10.833 17.834 11.5 30.501zM719 606.998c0 5.33301 -0.99707 11.334 -2.99707 18.001v1c-0.666992 2.66699 -1.66699 4 -3 4s-3.66602 -1.66699 -6.99902 -5c-2 -2 -3.66699 -3.33301 -5 -4
c-13.333 -10.667 -30.333 -21.334 -51 -32.001s-50 -24.667 -88 -42l-89 -43c-24 -12 -46.667 -25.167 -68 -39.5s-38.5 -29.666 -51.5 -45.999s-19.5 -33.166 -19.5 -50.499c2 -19.333 8 -34.833 18 -46.5s19 -17.5 27 -17.5c9.33301 0 17.333 1.16699 24 3.5
s10 4.83301 10 7.5c0 3.33301 -3.33301 5.33301 -10 6c-1.33301 0 -3.33301 0.333008 -6 1c-8.66699 0.666992 -15.667 2 -21 4s-9.66602 5.66699 -12.999 11c-1.33301 2.66699 -2 4.66699 -2 6c0 7.33301 5.5 16.166 16.5 26.499s25 21 42 32s34 21.333 51 31l66.5 37.5
c24 12.667 39.333 21 46 25c2 1.33301 4 2 6 2c2.66699 0 4 -1.66699 4 -5v-2c-0.666992 -1.33301 -1 -2.33301 -1 -3c-34.667 -78.667 -66.834 -146.167 -96.501 -202.5s-57.334 -102.833 -83.001 -139.5s-50.334 -65.167 -74.001 -85.5s-47.834 -34.833 -72.501 -43.5
c-18 -6.66699 -36.333 -10 -55 -10c-20 0 -38.833 4 -56.5 12s-32.834 18.5 -45.501 31.5s-22.5 27.833 -29.5 44.5s-10.5 33.667 -10.5 51c0 10 1 19.333 3 28c1.33301 5.33301 2 9.33301 2 12c0 10 -2.33301 15 -7 15c-5.33301 0 -10.333 -6.66699 -15 -20
c-5.33301 -14.667 -8 -30 -8 -46c0 -21.333 4.33301 -43.333 13 -66s20.667 -43.667 36 -63s33.5 -35 54.5 -47s43.5 -18.667 67.5 -20c46 0 88 13.667 126 41s72.5 64.666 103.5 111.999s58.833 98.333 83.5 153s55 127 91 217l24 58c3.33301 8 8.5 14.667 15.5 20
s16.5 11 28.5 17l6 3c9.33301 4.66699 16 11.5 20 20.5s6 18.167 6 27.5z" />
    <glyph glyph-name="Eth" unicode="&#xd0;" horiz-adv-x="667" 
d="M748 402c0 28 -4.50098 54.1689 -13.501 78.502s-23.833 46.333 -44.5 66s-48.167 35.167 -82.5 46.5s-75.5 17 -123.5 17c-71.333 0 -158.666 -14.667 -261.999 -44l-9 -3c-16 -4 -25.333 -6 -28 -6c-2 0 -3 0.666992 -3 2s2 3.66602 6 6.99902
c4.66699 5.33301 7 9 7 11s-1.83301 3.33301 -5.5 4s-10.834 1 -21.501 1c-5.33301 0 -11.5 -2.33301 -18.5 -7s-10.5 -10.667 -10.5 -18s3 -14 9 -20c11.333 -12 31 -18 59 -18c16.667 0 35.334 1.5 56.001 4.5s46.667 7.5 78 13.5c44 8 80 14 108 18s55.333 6 82 6
c25.333 0 48.833 -2.33301 70.5 -7s40.834 -12.334 57.501 -23.001c31.333 -20 47 -47.333 47 -82c0 -60.667 -44.167 -132.334 -132.5 -215.001s-212.833 -162 -373.5 -238c-2.66699 -1.33301 -6.33398 -2 -11.001 -2c-6 0 -13.333 2.33301 -22 7
c-4.66699 2.66699 -7.66699 4 -9 4s-2.66602 -1.16699 -3.99902 -3.5s-2 -4.16602 -2 -5.49902c0 -11.333 6 -20 18 -26s27.333 -9 46 -9c39.333 0 89.166 12.5 149.499 37.5s120 58.833 179 101.5s107.667 90.5 146 143.5s57.5 105.833 57.5 158.5zM434.999 281.002
c0 5.33301 -2.5 10 -7.5 14s-11.833 6 -20.5 6c-39.333 0 -72.666 0.333008 -99.999 1c16 26 28.333 49.833 37 71.5s13 40.834 13 57.501c0 29.333 -14 50.666 -42 63.999h-1l-1 1c-2.66699 0 -5 -1.66699 -7 -5s-3 -6.33301 -3 -9c0 -2 1.33301 -4 4 -6s4 -5.33301 4 -10
c0 -11.333 -6.66699 -29.166 -20 -53.499s-34.333 -58.833 -63 -103.5c-0.666992 -1.33301 -2 -3.66602 -4 -6.99902c-41.333 0 -72.5 0.333008 -93.5 1s-31.5 2 -31.5 4c0 1.33301 -1.66699 2 -5 2c-8 0 -12 -2.66699 -12 -8c0 -9.33301 5.5 -18.166 16.5 -26.499
s23.833 -12.5 38.5 -12.5c18.667 0 40 1 64 3c-18 -28.667 -34.167 -55.667 -48.5 -81s-27.333 -50 -39 -74s-21 -47 -28 -69s-10.5 -41.333 -10.5 -58c0 -9.33301 0.666992 -16.333 2 -21c2 -7.33301 4 -11 6 -11c2.66699 0 4.66699 2.66699 6 8
c4.66699 23.333 16.834 50.666 36.501 81.999s48.167 72.666 85.5 123.999c35.333 48.667 60 84 74 106c25.333 2.66699 47.666 4.5 66.999 5.5s35.333 1.5 48 1.5c11.333 0 17.666 -0.666992 18.999 -2h1c2 -1.33301 4 -2 6 -2c6 1.33301 9 3.66602 9 6.99902z" />
    <glyph glyph-name="Ntilde" unicode="&#xd1;" horiz-adv-x="779" 
d="M844 676c0 2 -1.00488 3 -3.00488 3c-1.33301 0 -2.66602 -0.666992 -3.99902 -2c-14 -11.333 -28 -17 -42 -17c-8 0 -15.667 1.83301 -23 5.5s-16.333 9.16699 -27 16.5c-10.667 8 -20 13.833 -28 17.5s-16.333 5.5 -25 5.5c-10.667 0 -22.167 -3.5 -34.5 -10.5
s-25.5 -18.167 -39.5 -33.5c-2.66699 -2.66699 -4 -5 -4 -7c0 -2.66699 1.66699 -4 5 -4c4.66699 0 7.33398 1 8.00098 3c14.667 18 29.334 27 44.001 27c10.667 0 26.334 -6.66699 47.001 -20c12 -8.66699 22.333 -15 31 -19s18.334 -6 29.001 -6c10 0 20 2.5 30 7.5
s21 13.833 33 26.5c2 2 3 4.33301 3 7zM838.995 424c0 26 -6.83203 46.3271 -20.499 60.9941s-33.167 22 -58.5 22c-41.333 0 -94 -20.5 -158 -61.5s-136 -104.167 -216 -189.5c-4 -4 -8.5 -7.83301 -13.5 -11.5s-8.83301 -5.5 -11.5 -5.5c-2 0 -3 1 -3 3
s1.33301 5.33301 4 10l29 44c35.333 54 63.833 99.167 85.5 135.5s38.167 69.833 49.5 100.5c8 22 12 41 12 57c0 22.667 -6.66699 39.834 -20 51.501s-32 17.5 -56 17.5c-8 0 -14.333 -0.333008 -19 -1c-30.667 -2.66699 -62.667 -9.16699 -96 -19.5
s-64.5 -22.666 -93.5 -36.999s-52.167 -30 -69.5 -47s-26 -33.5 -26 -49.5c0 -10 3.33301 -19.333 10 -28c3.33301 -4 8 -6 14 -6c4.66699 0 10.334 1.5 17.001 4.5s10 5.16699 10 6.5s-2.33301 2 -7 2c-4 0.666992 -7.16699 1.5 -9.5 2.5s-3.5 2.83301 -3.5 5.5
c0 2 0.666992 4 2 6c8 14 21.667 27.833 41 41.5s41.333 26.334 66 38.001s49 21.5 73 29.5s45 14.333 63 19c11.333 2.66699 22.666 4 33.999 4c22.667 0 34 -8.66699 34 -26c0 -19.333 -14.667 -51.333 -44 -96c-12 -19.333 -24.833 -38.333 -38.5 -57l-61.5 -84
l-89.5 -125c-23 -32.667 -43.167 -64 -60.5 -94c-24 -42 -36 -79.333 -36 -112c0 -19.333 4.33301 -34.333 13 -45c5.33301 -6 9.33301 -9 12 -9c2 0 4.66699 3 8 9c2 4 3.66699 7 5 9c46 66 96.167 128.333 150.5 187s108 109.667 161 153s100.667 77 143 101
s74.5 36 96.5 36c19.333 0 29 -9.66699 29 -29c0 -8 -2 -18 -6 -30c-5.33301 -15.333 -13 -33.166 -23 -53.499l-43 -83.5l-42.5 -83c-11 -22 -21.5 -44.667 -31.5 -68s-18.167 -45.666 -24.5 -66.999s-9.5 -39.666 -9.5 -54.999c0 -13.333 2.16699 -23.833 6.5 -31.5
s12.166 -14.5 23.499 -20.5c9.33301 -4 17.333 -6 24 -6c10.667 0 17 5.33301 19 16v10c-0.666992 5.33301 -1 8.33301 -1 9c0 8 3.5 22.833 10.5 44.5s16.167 47.167 27.5 76.5s24.833 62.166 40.5 98.499l52.5 119.5c17.333 38.667 26 72.334 26 101.001z" />
    <glyph glyph-name="Ograve" unicode="&#xd2;" horiz-adv-x="701" 
d="M638 663c0 2 -1.33203 4.00098 -3.99902 6.00098c-6 5.33301 -14.333 12.166 -25 20.499l-37.5 28.5l-38 27.5l-22.5 15.5c-2 1.33301 -4.66699 2 -8 2c-4.66699 0 -8.83398 -2.66699 -12.501 -8s-5.5 -10.333 -5.5 -15c0 -6 3 -10.667 9 -14
c11.333 -4.66699 28.833 -12.667 52.5 -24l81.5 -40l3 -1l3 -1c2.66699 0 4 1 4 3zM790.001 423.001c0 52.667 -19.165 94.0039 -57.498 124.004s-94.166 45 -167.499 45c-2 0 -5.66699 -0.333008 -11 -1h-12c1.33301 5.33301 2 9 2 11c0 10 -4.33301 20.333 -13 31
c-4 6 -9.33301 9 -16 9c-5.33301 0 -15.666 -6.66699 -30.999 -20v0c-10.667 -8.66699 -22.667 -19.667 -36 -33c-10 -9.33301 -17.5 -16 -22.5 -20s-10.833 -7 -17.5 -9c-42.667 -12.667 -83 -28.834 -121 -48.501s-71.333 -40.834 -100 -63.501s-51 -45.5 -67 -68.5
s-24 -44.5 -24 -64.5c0 -32.667 21 -57 63 -73c2 -0.666992 3 -2.33398 3 -5.00098s-1 -6 -3 -10c-9.33301 -17.333 -16.5 -36.833 -21.5 -58.5s-7.5 -43.5 -7.5 -65.5c0 -14 0.666992 -24 2 -30c6 -36.667 20.167 -63.667 42.5 -81s51.166 -26 86.499 -26
c44.667 0 95.667 12.833 153 38.5s113.166 59.5 167.499 101.5s100.166 87.333 137.499 136s59.666 94.667 66.999 138v3c2.66699 17.333 4 30.666 4 39.999zM747.003 449.005c0 -40.667 -25.001 -91.3301 -75.001 -151.997s-118.333 -123.667 -205 -189
c-40.667 -30 -80 -53 -118 -69s-71.667 -24 -101 -24c-24 0 -42.833 5.83301 -56.5 17.5s-20.5 29.5 -20.5 53.5c0 32.667 14 75 42 127c2.66699 4.66699 6.33398 7 11.001 7c2.66699 0 6.66699 -0.666992 12 -2l6 -2c5.33301 -1.33301 15 -2 29 -2
c16.667 0 33.167 1.33301 49.5 4s28.5 6 36.5 10c7.33301 4 11 8.33301 11 13c0 2.66699 -2 4 -6 4c-0.666992 0 -1.33398 -0.333008 -2.00098 -1h-3c-10 -2.66699 -21.333 -5.16699 -34 -7.5s-25 -3.5 -37 -3.5c-6 0 -15.333 1.33301 -28 4h-3c-10.667 2 -16 4.66699 -16 8
c0 2 2 6 6 12c0.666992 1.33301 1.66699 3 3 5c29.333 47.333 62.5 92.166 99.5 134.499s77.167 79.5 120.5 111.5l21 15c6.66699 5.33301 11.334 8.66602 14.001 9.99902c33.333 4 63 6 89 6c52 0 90.833 -7.83301 116.5 -23.5s38.5 -37.834 38.5 -66.501zM136.002 298.009
c0 13.333 5.99902 28.668 17.999 46.001s27.667 34.666 47 51.999s39.333 32.5 60 45.5s39 21.833 55 26.5h2l2 1c0.666992 0 1.33398 -0.333008 2.00098 -1c0 -1.33301 -1.33301 -3.33301 -4 -6c-26 -28.667 -51.167 -60 -75.5 -94s-46.833 -68.667 -67.5 -104l-1 -1
c0 -1.33301 -0.333008 -2 -1 -2c-2 0 -4.33301 0.333008 -7 1c-20 6.66699 -30 18.667 -30 36z" />
    <glyph glyph-name="Oacute" unicode="&#xd3;" horiz-adv-x="701" 
d="M762 721c0 4.66699 -1.83203 9.66797 -5.49902 15.001s-7.83398 8 -12.501 8c-3.33301 0 -6 -0.666992 -8 -2c-4.66699 -2.66699 -13.167 -8.33398 -25.5 -17.001l-35 -25.5l-34.5 -26.5c-12 -9.33301 -21.333 -17 -28 -23c-2.66699 -2 -4 -4 -4 -6s1.33301 -3 4 -3
c0.666992 0 1.66699 0.333008 3 1l3 1l81.5 40c23.667 11.333 41.167 19.333 52.5 24c6 3.33301 9 8 9 14zM790.001 423.001c0 52.667 -19.165 94.0039 -57.498 124.004s-94.166 45 -167.499 45c-2 0 -5.66699 -0.333008 -11 -1h-12c1.33301 5.33301 2 9 2 11
c0 10 -4.33301 20.333 -13 31c-4 6 -9.33301 9 -16 9c-5.33301 0 -15.666 -6.66699 -30.999 -20v0c-10.667 -8.66699 -22.667 -19.667 -36 -33c-10 -9.33301 -17.5 -16 -22.5 -20s-10.833 -7 -17.5 -9c-42.667 -12.667 -83 -28.834 -121 -48.501
s-71.333 -40.834 -100 -63.501s-51 -45.5 -67 -68.5s-24 -44.5 -24 -64.5c0 -32.667 21 -57 63 -73c2 -0.666992 3 -2.33398 3 -5.00098s-1 -6 -3 -10c-9.33301 -17.333 -16.5 -36.833 -21.5 -58.5s-7.5 -43.5 -7.5 -65.5c0 -14 0.666992 -24 2 -30
c6 -36.667 20.167 -63.667 42.5 -81s51.166 -26 86.499 -26c44.667 0 95.667 12.833 153 38.5s113.166 59.5 167.499 101.5s100.166 87.333 137.499 136s59.666 94.667 66.999 138v3c2.66699 17.333 4 30.666 4 39.999zM747.003 449.005
c0 -40.667 -25.001 -91.3301 -75.001 -151.997s-118.333 -123.667 -205 -189c-40.667 -30 -80 -53 -118 -69s-71.667 -24 -101 -24c-24 0 -42.833 5.83301 -56.5 17.5s-20.5 29.5 -20.5 53.5c0 32.667 14 75 42 127c2.66699 4.66699 6.33398 7 11.001 7
c2.66699 0 6.66699 -0.666992 12 -2l6 -2c5.33301 -1.33301 15 -2 29 -2c16.667 0 33.167 1.33301 49.5 4s28.5 6 36.5 10c7.33301 4 11 8.33301 11 13c0 2.66699 -2 4 -6 4c-0.666992 0 -1.33398 -0.333008 -2.00098 -1h-3c-10 -2.66699 -21.333 -5.16699 -34 -7.5
s-25 -3.5 -37 -3.5c-6 0 -15.333 1.33301 -28 4h-3c-10.667 2 -16 4.66699 -16 8c0 2 2 6 6 12c0.666992 1.33301 1.66699 3 3 5c29.333 47.333 62.5 92.166 99.5 134.499s77.167 79.5 120.5 111.5l21 15c6.66699 5.33301 11.334 8.66602 14.001 9.99902c33.333 4 63 6 89 6
c52 0 90.833 -7.83301 116.5 -23.5s38.5 -37.834 38.5 -66.501zM136.002 298.009c0 13.333 5.99902 28.668 17.999 46.001s27.667 34.666 47 51.999s39.333 32.5 60 45.5s39 21.833 55 26.5h2l2 1c0.666992 0 1.33398 -0.333008 2.00098 -1
c0 -1.33301 -1.33301 -3.33301 -4 -6c-26 -28.667 -51.167 -60 -75.5 -94s-46.833 -68.667 -67.5 -104l-1 -1c0 -1.33301 -0.333008 -2 -1 -2c-2 0 -4.33301 0.333008 -7 1c-20 6.66699 -30 18.667 -30 36z" />
    <glyph glyph-name="Ocircumflex" unicode="&#xd4;" horiz-adv-x="701" 
d="M695 671c-16 32 -28.5 53.667 -37.5 65s-20.167 17 -33.5 17c-12.667 0 -28.5 -4.83301 -47.5 -14.5s-50.167 -27.5 -93.5 -53.5c-2.66699 -2 -4 -4 -4 -6s1.66699 -3 5 -3s6.33301 0.666992 9 2c34.667 18 60 30.333 76 37s29.667 10 41 10s21.5 -3.83301 30.5 -11.5
s21.5 -22.167 37.5 -43.5l3 -3c4 -4.66699 7.66699 -7 11 -7c2.66699 0 4 2 4 6v2c-0.666992 1.33301 -1 2.33301 -1 3zM790 423c0 52.667 -19.165 94.0039 -57.498 124.004s-94.166 45 -167.499 45c-2 0 -5.66699 -0.333008 -11 -1h-12c1.33301 5.33301 2 9 2 11
c0 10 -4.33301 20.333 -13 31c-4 6 -9.33301 9 -16 9c-5.33301 0 -15.666 -6.66699 -30.999 -20v0c-10.667 -8.66699 -22.667 -19.667 -36 -33c-10 -9.33301 -17.5 -16 -22.5 -20s-10.833 -7 -17.5 -9c-42.667 -12.667 -83 -28.834 -121 -48.501
s-71.333 -40.834 -100 -63.501s-51 -45.5 -67 -68.5s-24 -44.5 -24 -64.5c0 -32.667 21 -57 63 -73c2 -0.666992 3 -2.33398 3 -5.00098s-1 -6 -3 -10c-9.33301 -17.333 -16.5 -36.833 -21.5 -58.5s-7.5 -43.5 -7.5 -65.5c0 -14 0.666992 -24 2 -30
c6 -36.667 20.167 -63.667 42.5 -81s51.166 -26 86.499 -26c44.667 0 95.667 12.833 153 38.5s113.166 59.5 167.499 101.5s100.166 87.333 137.499 136s59.666 94.667 66.999 138v3c2.66699 17.333 4 30.666 4 39.999zM747.002 449.004
c0 -40.667 -25.001 -91.3301 -75.001 -151.997s-118.333 -123.667 -205 -189c-40.667 -30 -80 -53 -118 -69s-71.667 -24 -101 -24c-24 0 -42.833 5.83301 -56.5 17.5s-20.5 29.5 -20.5 53.5c0 32.667 14 75 42 127c2.66699 4.66699 6.33398 7 11.001 7
c2.66699 0 6.66699 -0.666992 12 -2l6 -2c5.33301 -1.33301 15 -2 29 -2c16.667 0 33.167 1.33301 49.5 4s28.5 6 36.5 10c7.33301 4 11 8.33301 11 13c0 2.66699 -2 4 -6 4c-0.666992 0 -1.33398 -0.333008 -2.00098 -1h-3c-10 -2.66699 -21.333 -5.16699 -34 -7.5
s-25 -3.5 -37 -3.5c-6 0 -15.333 1.33301 -28 4h-3c-10.667 2 -16 4.66699 -16 8c0 2 2 6 6 12c0.666992 1.33301 1.66699 3 3 5c29.333 47.333 62.5 92.166 99.5 134.499s77.167 79.5 120.5 111.5l21 15c6.66699 5.33301 11.334 8.66602 14.001 9.99902c33.333 4 63 6 89 6
c52 0 90.833 -7.83301 116.5 -23.5s38.5 -37.834 38.5 -66.501zM136.001 298.008c0 13.333 5.99902 28.668 17.999 46.001s27.667 34.666 47 51.999s39.333 32.5 60 45.5s39 21.833 55 26.5h2l2 1c0.666992 0 1.33398 -0.333008 2.00098 -1
c0 -1.33301 -1.33301 -3.33301 -4 -6c-26 -28.667 -51.167 -60 -75.5 -94s-46.833 -68.667 -67.5 -104l-1 -1c0 -1.33301 -0.333008 -2 -1 -2c-2 0 -4.33301 0.333008 -7 1c-20 6.66699 -30 18.667 -30 36z" />
    <glyph glyph-name="Otilde" unicode="&#xd5;" horiz-adv-x="701" 
d="M806 691c0 2 -1.00488 3 -3.00488 3c-1.33301 0 -2.66602 -0.666992 -3.99902 -2c-14 -11.333 -28 -17 -42 -17c-8 0 -15.667 1.83301 -23 5.5s-16.333 9.16699 -27 16.5c-10.667 8 -20 13.833 -28 17.5s-16.333 5.5 -25 5.5c-10.667 0 -22.167 -3.5 -34.5 -10.5
s-25.5 -18.167 -39.5 -33.5c-2.66699 -2.66699 -4 -5 -4 -7c0 -2.66699 1.66699 -4 5 -4c4.66699 0 7.33398 1 8.00098 3c14.667 18 29.334 27 44.001 27c10.667 0 26.334 -6.66699 47.001 -20c12 -8.66699 22.333 -15 31 -19s18.334 -6 29.001 -6c10 0 20 2.5 30 7.5
s21 13.833 33 26.5c2 2 3 4.33301 3 7zM789.995 423c0 52.667 -19.165 94.0039 -57.498 124.004s-94.166 45 -167.499 45c-2 0 -5.66699 -0.333008 -11 -1h-12c1.33301 5.33301 2 9 2 11c0 10 -4.33301 20.333 -13 31c-4 6 -9.33301 9 -16 9
c-5.33301 0 -15.666 -6.66699 -30.999 -20v0c-10.667 -8.66699 -22.667 -19.667 -36 -33c-10 -9.33301 -17.5 -16 -22.5 -20s-10.833 -7 -17.5 -9c-42.667 -12.667 -83 -28.834 -121 -48.501s-71.333 -40.834 -100 -63.501s-51 -45.5 -67 -68.5s-24 -44.5 -24 -64.5
c0 -32.667 21 -57 63 -73c2 -0.666992 3 -2.33398 3 -5.00098s-1 -6 -3 -10c-9.33301 -17.333 -16.5 -36.833 -21.5 -58.5s-7.5 -43.5 -7.5 -65.5c0 -14 0.666992 -24 2 -30c6 -36.667 20.167 -63.667 42.5 -81s51.166 -26 86.499 -26c44.667 0 95.667 12.833 153 38.5
s113.166 59.5 167.499 101.5s100.166 87.333 137.499 136s59.666 94.667 66.999 138v3c2.66699 17.333 4 30.666 4 39.999zM746.997 449.004c0 -40.667 -25.001 -91.3301 -75.001 -151.997s-118.333 -123.667 -205 -189c-40.667 -30 -80 -53 -118 -69s-71.667 -24 -101 -24
c-24 0 -42.833 5.83301 -56.5 17.5s-20.5 29.5 -20.5 53.5c0 32.667 14 75 42 127c2.66699 4.66699 6.33398 7 11.001 7c2.66699 0 6.66699 -0.666992 12 -2l6 -2c5.33301 -1.33301 15 -2 29 -2c16.667 0 33.167 1.33301 49.5 4s28.5 6 36.5 10c7.33301 4 11 8.33301 11 13
c0 2.66699 -2 4 -6 4c-0.666992 0 -1.33398 -0.333008 -2.00098 -1h-3c-10 -2.66699 -21.333 -5.16699 -34 -7.5s-25 -3.5 -37 -3.5c-6 0 -15.333 1.33301 -28 4h-3c-10.667 2 -16 4.66699 -16 8c0 2 2 6 6 12c0.666992 1.33301 1.66699 3 3 5
c29.333 47.333 62.5 92.166 99.5 134.499s77.167 79.5 120.5 111.5l21 15c6.66699 5.33301 11.334 8.66602 14.001 9.99902c33.333 4 63 6 89 6c52 0 90.833 -7.83301 116.5 -23.5s38.5 -37.834 38.5 -66.501zM135.996 298.008c0 13.333 5.99902 28.668 17.999 46.001
s27.667 34.666 47 51.999s39.333 32.5 60 45.5s39 21.833 55 26.5h2l2 1c0.666992 0 1.33398 -0.333008 2.00098 -1c0 -1.33301 -1.33301 -3.33301 -4 -6c-26 -28.667 -51.167 -60 -75.5 -94s-46.833 -68.667 -67.5 -104l-1 -1c0 -1.33301 -0.333008 -2 -1 -2
c-2 0 -4.33301 0.333008 -7 1c-20 6.66699 -30 18.667 -30 36z" />
    <glyph glyph-name="Odieresis" unicode="&#xd6;" horiz-adv-x="701" 
d="M770 700c0 6 -1.33398 8.99902 -4.00098 8.99902c-5.33301 -4 -15.666 -7.66699 -30.999 -11c-14 -2.66699 -21.667 -5.66699 -23 -9c-0.666992 -2 -1 -5.66699 -1 -11c1.33301 -4.66699 4.33301 -9.16699 9 -13.5s9.66699 -6.5 15 -6.5
c8.66699 0 16.5 3.83301 23.5 11.5s10.833 17.834 11.5 30.501zM639.999 699.999c0 6 -1.33203 8.99902 -3.99902 8.99902c-6 -4 -16.333 -7.66699 -31 -11c-12.667 -2.66699 -20.334 -5.66699 -23.001 -9v-2c-0.666992 -3.33301 -1 -6.33301 -1 -9
c4.66699 -13.333 12.667 -20 24 -20c8.66699 0 16.5 3.83301 23.5 11.5s10.833 17.834 11.5 30.501zM790 422.998c0 52.667 -19.165 94.0039 -57.498 124.004s-94.166 45 -167.499 45c-2 0 -5.66699 -0.333008 -11 -1h-12c1.33301 5.33301 2 9 2 11
c0 10 -4.33301 20.333 -13 31c-4 6 -9.33301 9 -16 9c-5.33301 0 -15.666 -6.66699 -30.999 -20v0c-10.667 -8.66699 -22.667 -19.667 -36 -33c-10 -9.33301 -17.5 -16 -22.5 -20s-10.833 -7 -17.5 -9c-42.667 -12.667 -83 -28.834 -121 -48.501
s-71.333 -40.834 -100 -63.501s-51 -45.5 -67 -68.5s-24 -44.5 -24 -64.5c0 -32.667 21 -57 63 -73c2 -0.666992 3 -2.33398 3 -5.00098s-1 -6 -3 -10c-9.33301 -17.333 -16.5 -36.833 -21.5 -58.5s-7.5 -43.5 -7.5 -65.5c0 -14 0.666992 -24 2 -30
c6 -36.667 20.167 -63.667 42.5 -81s51.166 -26 86.499 -26c44.667 0 95.667 12.833 153 38.5s113.166 59.5 167.499 101.5s100.166 87.333 137.499 136s59.666 94.667 66.999 138v3c2.66699 17.333 4 30.666 4 39.999zM747.002 449.002
c0 -40.667 -25.001 -91.3301 -75.001 -151.997s-118.333 -123.667 -205 -189c-40.667 -30 -80 -53 -118 -69s-71.667 -24 -101 -24c-24 0 -42.833 5.83301 -56.5 17.5s-20.5 29.5 -20.5 53.5c0 32.667 14 75 42 127c2.66699 4.66699 6.33398 7 11.001 7
c2.66699 0 6.66699 -0.666992 12 -2l6 -2c5.33301 -1.33301 15 -2 29 -2c16.667 0 33.167 1.33301 49.5 4s28.5 6 36.5 10c7.33301 4 11 8.33301 11 13c0 2.66699 -2 4 -6 4c-0.666992 0 -1.33398 -0.333008 -2.00098 -1h-3c-10 -2.66699 -21.333 -5.16699 -34 -7.5
s-25 -3.5 -37 -3.5c-6 0 -15.333 1.33301 -28 4h-3c-10.667 2 -16 4.66699 -16 8c0 2 2 6 6 12c0.666992 1.33301 1.66699 3 3 5c29.333 47.333 62.5 92.166 99.5 134.499s77.167 79.5 120.5 111.5l21 15c6.66699 5.33301 11.334 8.66602 14.001 9.99902c33.333 4 63 6 89 6
c52 0 90.833 -7.83301 116.5 -23.5s38.5 -37.834 38.5 -66.501zM136.001 298.006c0 13.333 5.99902 28.668 17.999 46.001s27.667 34.666 47 51.999s39.333 32.5 60 45.5s39 21.833 55 26.5h2l2 1c0.666992 0 1.33398 -0.333008 2.00098 -1
c0 -1.33301 -1.33301 -3.33301 -4 -6c-26 -28.667 -51.167 -60 -75.5 -94s-46.833 -68.667 -67.5 -104l-1 -1c0 -1.33301 -0.333008 -2 -1 -2c-2 0 -4.33301 0.333008 -7 1c-20 6.66699 -30 18.667 -30 36z" />
    </font>
</defs>
</svg>
